<?xml version="1.0" encoding="utf-8"?>
<!-- Generator: Adobe Illustrator 26.3.1, SVG Export Plug-In . SVG Version: 6.00 Build 0)  -->
<svg version="1.0" id="Layer_1" xmlns="http://www.w3.org/2000/svg" xmlns:xlink="http://www.w3.org/1999/xlink" x="0px" y="0px"
	 viewBox="0 0 300 300" style="enable-background:new 0 0 300 300;" xml:space="preserve">
<style type="text/css">
	.st0{stroke:#D0043C;stroke-width:3;}
	.st1{fill:#FFFFFF;}
	.st2{fill:#D0043C;stroke:#D0043C;}
	.st3{fill-rule:evenodd;clip-rule:evenodd;fill:#FFFFFF;stroke:#000000;stroke-width:0.216;stroke-miterlimit:2.4142;}
	.st4{fill-rule:evenodd;clip-rule:evenodd;fill:#FFFFFF;stroke:#362E28;stroke-width:0.216;stroke-miterlimit:2.4142;}
	.st5{fill:#FFFFFF;stroke:#FFFFFF;}
</style>
<g id="Cirkels">
	<ellipse transform="matrix(0.7071 -0.7071 0.7071 0.7071 -62.7476 149.5653)" cx="149.17" cy="150.53" rx="126.34" ry="126.34"/>
	<path class="st0" d="M260.04,150.53c0,61.13-49.74,110.87-110.87,110.87S38.3,211.66,38.3,150.53S88.03,39.66,149.17,39.66
		S260.04,89.39,260.04,150.53z M149.17,8.72C70.97,8.72,7.36,72.33,7.36,150.53s63.62,141.81,141.81,141.81
		s141.81-63.62,141.81-141.81S227.36,8.72,149.17,8.72z"/>
</g>
<g id="Shihan">
	<path class="st1" d="M130.05,243.77c0,1.35,1.06,1.88,2.25,1.88c0.78,0,1.98-0.23,1.98-1.27c0-1.1-1.53-1.28-3.02-1.68
		c-1.51-0.4-3.04-0.98-3.04-2.89c0-2.08,1.97-3.08,3.81-3.08c2.12,0,4.08,0.93,4.08,3.28h-2.17c-0.07-1.23-0.94-1.54-2.01-1.54
		c-0.71,0-1.54,0.3-1.54,1.15c0,0.78,0.49,0.88,3.04,1.54c0.74,0.18,3.02,0.65,3.02,2.97c0,1.87-1.47,3.26-4.23,3.26
		c-2.25,0-4.36-1.11-4.33-3.62H130.05z"/>
	<path class="st1" d="M137.56,236.97h2.02v3.84h0.04c0.51-0.83,1.4-1.23,2.15-1.23c2.15,0,2.69,1.21,2.69,3.04v4.53h-2.02v-4.16
		c0-1.21-0.36-1.81-1.3-1.81c-1.1,0-1.57,0.61-1.57,2.11v3.86h-2.02V236.97z"/>
	<path class="st1" d="M148.1,238.64h-2.02v-1.67h2.02V238.64z M146.07,239.78h2.02v7.37h-2.02V239.78z"/>
	<path class="st1" d="M149.69,236.97h2.02v3.84h0.04c0.51-0.83,1.4-1.23,2.15-1.23c2.15,0,2.69,1.21,2.69,3.04v4.53h-2.02v-4.16
		c0-1.21-0.36-1.81-1.3-1.81c-1.1,0-1.57,0.61-1.57,2.11v3.86h-2.02V236.97z"/>
	<path class="st1" d="M158.06,242.05c0.11-1.9,1.81-2.47,3.46-2.47c1.47,0,3.24,0.33,3.24,2.1v3.83c0,0.67,0.07,1.34,0.26,1.64
		h-2.05c-0.07-0.23-0.13-0.47-0.14-0.71c-0.64,0.67-1.58,0.91-2.48,0.91c-1.4,0-2.51-0.7-2.51-2.21c0-1.67,1.25-2.07,2.51-2.24
		c1.24-0.18,2.4-0.14,2.4-0.97c0-0.87-0.6-1-1.31-1c-0.77,0-1.27,0.31-1.34,1.11H158.06z M162.74,243.54
		c-0.34,0.3-1.06,0.31-1.68,0.43c-0.63,0.13-1.2,0.34-1.2,1.08c0,0.76,0.58,0.94,1.24,0.94c1.58,0,1.64-1.25,1.64-1.7V243.54z"/>
	<path class="st1" d="M166.33,239.78h1.92v1.03h0.04c0.51-0.83,1.4-1.23,2.25-1.23c2.15,0,2.69,1.21,2.69,3.04v4.53h-2.02v-4.16
		c0-1.21-0.36-1.81-1.3-1.81c-1.1,0-1.57,0.61-1.57,2.11v3.86h-2.02V239.78z"/>
</g>
<g id="Ernst_van_der_Zee">
	<path class="st1" d="M99.16,216.92v1.88h-5.37v2.18h4.93v1.74h-4.93v2.49h5.49v1.88h-7.73v-10.18H99.16z"/>
	<path class="st1" d="M102.5,219.73v1.37h0.03c0.09-0.23,0.22-0.44,0.38-0.63c0.16-0.19,0.35-0.36,0.56-0.5
		c0.21-0.14,0.43-0.24,0.67-0.32c0.24-0.08,0.48-0.11,0.74-0.11c0.13,0,0.28,0.02,0.44,0.07v1.88c-0.1-0.02-0.21-0.04-0.34-0.05
		c-0.13-0.01-0.26-0.02-0.38-0.02c-0.37,0-0.68,0.06-0.94,0.19c-0.26,0.12-0.46,0.29-0.62,0.51s-0.27,0.46-0.33,0.75
		c-0.07,0.29-0.1,0.59-0.1,0.93v3.32h-2.02v-7.37H102.5z"/>
	<path class="st1" d="M108.3,219.73v1.03h0.04c0.26-0.43,0.59-0.74,1-0.93c0.41-0.19,0.83-0.29,1.25-0.29
		c0.54,0,0.99,0.07,1.33,0.22s0.62,0.35,0.82,0.61c0.2,0.26,0.34,0.58,0.42,0.96c0.08,0.38,0.12,0.79,0.12,1.25v4.53h-2.02v-4.16
		c0-0.61-0.1-1.06-0.29-1.36c-0.19-0.3-0.53-0.45-1.01-0.45c-0.55,0-0.95,0.16-1.2,0.49c-0.25,0.33-0.37,0.87-0.37,1.62v3.86h-2.02
		v-7.37H108.3z"/>
	<path class="st1" d="M116.53,225.27c0.09,0.16,0.21,0.29,0.35,0.38s0.31,0.17,0.49,0.22c0.19,0.05,0.38,0.07,0.58,0.07
		c0.14,0,0.29-0.02,0.45-0.05c0.16-0.03,0.3-0.09,0.43-0.16s0.24-0.17,0.32-0.29c0.09-0.12,0.13-0.27,0.13-0.45
		c0-0.3-0.2-0.53-0.61-0.68c-0.4-0.15-0.97-0.3-1.69-0.46c-0.29-0.07-0.58-0.14-0.86-0.24c-0.28-0.09-0.53-0.21-0.75-0.36
		c-0.22-0.15-0.39-0.33-0.53-0.56c-0.13-0.22-0.2-0.5-0.2-0.82c0-0.48,0.09-0.86,0.28-1.17c0.19-0.3,0.43-0.54,0.73-0.72
		c0.3-0.18,0.65-0.3,1.03-0.37c0.38-0.07,0.77-0.11,1.17-0.11c0.4,0,0.79,0.04,1.16,0.11c0.38,0.08,0.71,0.2,1,0.38
		c0.29,0.18,0.54,0.42,0.73,0.72s0.31,0.68,0.35,1.13h-1.92c-0.03-0.39-0.18-0.65-0.44-0.79s-0.58-0.21-0.94-0.21
		c-0.11,0-0.24,0.01-0.37,0.02c-0.13,0.01-0.25,0.05-0.36,0.09c-0.11,0.05-0.2,0.12-0.28,0.21c-0.08,0.09-0.11,0.21-0.11,0.36
		c0,0.18,0.07,0.33,0.2,0.44c0.13,0.11,0.31,0.21,0.52,0.28s0.46,0.14,0.73,0.19c0.28,0.06,0.56,0.12,0.84,0.19
		c0.29,0.07,0.58,0.15,0.86,0.24c0.28,0.1,0.53,0.22,0.75,0.38s0.39,0.35,0.53,0.58c0.13,0.23,0.2,0.52,0.2,0.86
		c0,0.48-0.1,0.89-0.29,1.22c-0.19,0.33-0.45,0.59-0.76,0.79s-0.67,0.34-1.08,0.42c-0.4,0.08-0.81,0.12-1.23,0.12
		c-0.43,0-0.85-0.04-1.25-0.13c-0.41-0.09-0.77-0.23-1.09-0.43s-0.58-0.46-0.78-0.79c-0.2-0.33-0.32-0.74-0.33-1.23h1.92
		C116.4,224.93,116.44,225.11,116.53,225.27z"/>
	<path class="st1" d="M126.53,219.73v1.35h-1.48v3.65c0,0.34,0.06,0.57,0.17,0.68c0.11,0.11,0.34,0.17,0.68,0.17
		c0.11,0,0.22,0,0.33-0.01c0.1-0.01,0.2-0.02,0.3-0.04v1.57c-0.17,0.03-0.36,0.05-0.57,0.06c-0.21,0.01-0.41,0.01-0.61,0.01
		c-0.31,0-0.61-0.02-0.89-0.06c-0.28-0.04-0.53-0.13-0.74-0.25s-0.38-0.3-0.51-0.53c-0.12-0.23-0.19-0.53-0.19-0.9v-4.35h-1.23
		v-1.35h1.23v-2.21h2.02v2.21H126.53z"/>
	<path class="st1" d="M133.29,227.1l-2.52-7.37h2.12l1.55,5.03h0.03l1.55-5.03h2.01l-2.49,7.37H133.29z"/>
	<path class="st1" d="M138.79,222c0.03-0.48,0.15-0.87,0.36-1.18c0.21-0.31,0.48-0.57,0.8-0.76c0.32-0.19,0.69-0.33,1.09-0.41
		c0.4-0.08,0.81-0.12,1.22-0.12c0.37,0,0.75,0.03,1.13,0.08c0.38,0.05,0.73,0.15,1.04,0.31c0.31,0.15,0.57,0.36,0.77,0.63
		c0.2,0.27,0.3,0.63,0.3,1.08v3.83c0,0.33,0.02,0.65,0.06,0.96c0.04,0.3,0.1,0.53,0.2,0.68h-2.05c-0.04-0.11-0.07-0.23-0.09-0.35
		c-0.02-0.12-0.04-0.24-0.05-0.36c-0.32,0.33-0.7,0.57-1.14,0.7c-0.44,0.13-0.88,0.2-1.34,0.2c-0.35,0-0.68-0.04-0.98-0.13
		s-0.57-0.22-0.8-0.4c-0.23-0.18-0.41-0.41-0.53-0.68c-0.13-0.28-0.19-0.6-0.19-0.98c0-0.42,0.07-0.76,0.22-1.03
		c0.15-0.27,0.34-0.49,0.57-0.65s0.5-0.28,0.8-0.36c0.3-0.08,0.6-0.14,0.91-0.19c0.3-0.05,0.6-0.09,0.9-0.11
		c0.29-0.03,0.56-0.07,0.78-0.13s0.41-0.14,0.54-0.25c0.13-0.11,0.19-0.27,0.19-0.48c0-0.22-0.04-0.39-0.11-0.52
		c-0.07-0.13-0.17-0.23-0.29-0.3c-0.12-0.07-0.26-0.12-0.41-0.14c-0.16-0.02-0.33-0.04-0.51-0.04c-0.4,0-0.71,0.09-0.94,0.26
		c-0.23,0.17-0.36,0.46-0.4,0.86H138.79z M143.47,223.5c-0.09,0.08-0.19,0.14-0.32,0.18s-0.27,0.08-0.41,0.11s-0.3,0.05-0.46,0.07
		s-0.32,0.04-0.48,0.07c-0.15,0.03-0.3,0.07-0.45,0.11c-0.15,0.05-0.28,0.11-0.38,0.19c-0.11,0.08-0.2,0.18-0.26,0.31
		s-0.1,0.28-0.1,0.47c0,0.18,0.03,0.33,0.1,0.46s0.16,0.22,0.27,0.29c0.11,0.07,0.25,0.12,0.4,0.15c0.15,0.03,0.31,0.04,0.47,0.04
		c0.4,0,0.71-0.07,0.93-0.2c0.22-0.13,0.38-0.29,0.48-0.48c0.1-0.19,0.17-0.37,0.19-0.56c0.02-0.19,0.04-0.34,0.04-0.46V223.5z"/>
	<path class="st1" d="M148.98,219.73v1.03h0.04c0.26-0.43,0.59-0.74,1-0.93c0.41-0.19,0.83-0.29,1.25-0.29
		c0.54,0,0.99,0.07,1.33,0.22s0.62,0.35,0.82,0.61c0.2,0.26,0.34,0.58,0.42,0.96c0.08,0.38,0.12,0.79,0.12,1.25v4.53h-2.02v-4.16
		c0-0.61-0.1-1.06-0.29-1.36c-0.19-0.3-0.53-0.45-1.01-0.45c-0.55,0-0.95,0.16-1.2,0.49c-0.25,0.33-0.37,0.87-0.37,1.62v3.86h-2.02
		v-7.37H148.98z"/>
	<path class="st1" d="M164.71,226.16c-0.24,0.4-0.55,0.69-0.93,0.86c-0.38,0.18-0.82,0.26-1.3,0.26c-0.55,0-1.04-0.11-1.45-0.32
		c-0.42-0.21-0.76-0.5-1.03-0.87c-0.27-0.37-0.48-0.79-0.61-1.26c-0.14-0.48-0.21-0.97-0.21-1.48c0-0.49,0.07-0.97,0.21-1.43
		s0.34-0.87,0.61-1.22c0.27-0.35,0.61-0.63,1.02-0.85s0.88-0.32,1.43-0.32c0.44,0,0.85,0.09,1.25,0.28
		c0.39,0.19,0.71,0.46,0.93,0.82h0.03v-3.71h2.02v10.18h-1.92v-0.94H164.71z M164.62,222.52c-0.06-0.28-0.15-0.53-0.29-0.74
		c-0.14-0.21-0.32-0.39-0.53-0.52s-0.49-0.2-0.83-0.2c-0.33,0-0.61,0.07-0.84,0.2s-0.41,0.31-0.55,0.53s-0.24,0.47-0.3,0.75
		c-0.06,0.28-0.09,0.57-0.09,0.88c0,0.29,0.03,0.57,0.1,0.86c0.07,0.28,0.17,0.54,0.32,0.76c0.15,0.22,0.33,0.4,0.56,0.54
		s0.49,0.21,0.81,0.21c0.33,0,0.61-0.07,0.83-0.2c0.22-0.13,0.4-0.31,0.53-0.53c0.13-0.22,0.23-0.48,0.29-0.76s0.09-0.58,0.09-0.88
		S164.68,222.8,164.62,222.52z"/>
	<path class="st1" d="M170.35,225.33c0.3,0.29,0.74,0.44,1.31,0.44c0.41,0,0.76-0.1,1.05-0.31c0.29-0.2,0.48-0.42,0.54-0.65h1.78
		c-0.28,0.88-0.72,1.52-1.31,1.9c-0.59,0.38-1.3,0.57-2.14,0.57c-0.58,0-1.1-0.09-1.57-0.28c-0.47-0.19-0.86-0.45-1.18-0.79
		s-0.57-0.75-0.75-1.23c-0.18-0.48-0.26-1-0.26-1.57c0-0.55,0.09-1.06,0.27-1.54c0.18-0.48,0.44-0.89,0.77-1.23
		c0.33-0.35,0.73-0.62,1.19-0.82c0.46-0.2,0.97-0.3,1.53-0.3c0.63,0,1.17,0.12,1.64,0.36c0.47,0.24,0.85,0.57,1.15,0.98
		s0.52,0.87,0.65,1.4c0.13,0.52,0.18,1.07,0.14,1.64h-5.32C169.88,224.57,170.05,225.04,170.35,225.33z M172.64,221.46
		c-0.24-0.27-0.61-0.4-1.1-0.4c-0.32,0-0.59,0.05-0.81,0.16c-0.21,0.11-0.38,0.24-0.51,0.41c-0.13,0.16-0.22,0.33-0.27,0.51
		s-0.08,0.34-0.09,0.48h3.29C173.05,222.11,172.88,221.72,172.64,221.46z"/>
	<path class="st1" d="M178.29,219.73v1.37h0.03c0.09-0.23,0.22-0.44,0.38-0.63c0.16-0.19,0.35-0.36,0.56-0.5
		c0.21-0.14,0.43-0.24,0.67-0.32c0.24-0.08,0.48-0.11,0.74-0.11c0.13,0,0.28,0.02,0.44,0.07v1.88c-0.1-0.02-0.21-0.04-0.34-0.05
		c-0.13-0.01-0.26-0.02-0.38-0.02c-0.37,0-0.68,0.06-0.94,0.19c-0.26,0.12-0.46,0.29-0.62,0.51s-0.27,0.46-0.33,0.75
		c-0.07,0.29-0.1,0.59-0.1,0.93v3.32h-2.02v-7.37H178.29z"/>
	<path class="st1" d="M190.89,218.81h-5.03v-1.88h8.01v1.77l-5.46,6.53h5.6v1.88h-8.58v-1.77L190.89,218.81z"/>
	<path class="st1" d="M197.28,225.33c0.3,0.29,0.74,0.44,1.31,0.44c0.41,0,0.76-0.1,1.05-0.31c0.29-0.2,0.48-0.42,0.54-0.65h1.78
		c-0.28,0.88-0.72,1.52-1.31,1.9c-0.59,0.38-1.3,0.57-2.14,0.57c-0.58,0-1.1-0.09-1.57-0.28c-0.47-0.19-0.86-0.45-1.18-0.79
		s-0.57-0.75-0.75-1.23c-0.18-0.48-0.26-1-0.26-1.57c0-0.55,0.09-1.06,0.27-1.54c0.18-0.48,0.44-0.89,0.77-1.23
		c0.33-0.35,0.73-0.62,1.19-0.82c0.46-0.2,0.97-0.3,1.53-0.3c0.63,0,1.17,0.12,1.64,0.36c0.47,0.24,0.85,0.57,1.15,0.98
		s0.52,0.87,0.65,1.4c0.13,0.52,0.18,1.07,0.14,1.64h-5.32C196.81,224.57,196.97,225.04,197.28,225.33z M199.56,221.46
		c-0.24-0.27-0.61-0.4-1.1-0.4c-0.32,0-0.59,0.05-0.81,0.16c-0.21,0.11-0.38,0.24-0.51,0.41c-0.13,0.16-0.22,0.33-0.27,0.51
		s-0.08,0.34-0.09,0.48h3.29C199.98,222.11,199.81,221.72,199.56,221.46z"/>
	<path class="st1" d="M205.46,225.33c0.3,0.29,0.74,0.44,1.31,0.44c0.41,0,0.76-0.1,1.05-0.31c0.29-0.2,0.48-0.42,0.54-0.65h1.78
		c-0.28,0.88-0.72,1.52-1.31,1.9c-0.59,0.38-1.3,0.57-2.14,0.57c-0.58,0-1.1-0.09-1.57-0.28c-0.47-0.19-0.86-0.45-1.18-0.79
		s-0.57-0.75-0.75-1.23c-0.18-0.48-0.26-1-0.26-1.57c0-0.55,0.09-1.06,0.27-1.54c0.18-0.48,0.44-0.89,0.77-1.23
		c0.33-0.35,0.73-0.62,1.19-0.82c0.46-0.2,0.97-0.3,1.53-0.3c0.63,0,1.17,0.12,1.64,0.36c0.47,0.24,0.85,0.57,1.15,0.98
		s0.52,0.87,0.65,1.4c0.13,0.52,0.18,1.07,0.14,1.64h-5.32C204.99,224.57,205.15,225.04,205.46,225.33z M207.75,221.46
		c-0.24-0.27-0.61-0.4-1.1-0.4c-0.32,0-0.59,0.05-0.81,0.16c-0.21,0.11-0.38,0.24-0.51,0.41c-0.13,0.16-0.22,0.33-0.27,0.51
		s-0.08,0.34-0.09,0.48h3.29C208.16,222.11,207.99,221.72,207.75,221.46z"/>
</g>
<g id="John_Smith">
	<path class="st2" d="M85.45,265.26c-0.51,0.56-1.12,1-1.85,1.31c-0.73,0.31-1.56,0.42-2.5,0.34c-0.94-0.08-2.01-0.5-3.22-1.27
		c-0.68-0.43-1.27-0.94-1.78-1.53c-0.51-0.59-0.89-1.24-1.13-1.96c-0.24-0.71-0.32-1.48-0.22-2.29c0.1-0.82,0.43-1.67,0.99-2.55
		l0.89-1.4l3.2,2.04l-0.46,0.72c-0.25,0.39-0.45,0.77-0.6,1.14c-0.15,0.37-0.22,0.72-0.22,1.05c0,0.33,0.09,0.64,0.27,0.95
		c0.18,0.3,0.48,0.59,0.9,0.85c0.47,0.3,0.88,0.44,1.24,0.44c0.36,0,0.68-0.1,0.96-0.29c0.28-0.19,0.53-0.43,0.75-0.73
		c0.22-0.29,0.42-0.58,0.6-0.87l6.91-10.87l3.54,2.25l-7.01,11.03C86.37,264.15,85.95,264.7,85.45,265.26z"/>
	<path class="st2" d="M95.08,263.77c0.67-0.69,1.41-1.2,2.24-1.54c0.82-0.33,1.7-0.49,2.64-0.46c0.94,0.03,1.91,0.26,2.91,0.69
		c1,0.43,1.83,0.98,2.5,1.65c0.67,0.67,1.17,1.42,1.49,2.25s0.46,1.72,0.41,2.68c-0.05,0.96-0.29,1.95-0.73,2.96
		c-0.44,1.01-0.99,1.86-1.65,2.55c-0.66,0.68-1.41,1.19-2.23,1.52c-0.82,0.33-1.71,0.48-2.65,0.44s-1.92-0.27-2.91-0.71
		c-1-0.43-1.83-0.98-2.5-1.63c-0.67-0.66-1.16-1.4-1.48-2.23c-0.32-0.83-0.46-1.72-0.42-2.67c0.04-0.95,0.28-1.93,0.72-2.95
		C93.86,265.32,94.41,264.46,95.08,263.77z M96.41,269.39c-0.11,0.53-0.13,1.03-0.06,1.52c0.07,0.49,0.25,0.93,0.55,1.33
		c0.29,0.4,0.73,0.73,1.32,0.98s1.13,0.35,1.63,0.3c0.5-0.06,0.95-0.22,1.35-0.51c0.4-0.28,0.76-0.64,1.06-1.08s0.57-0.91,0.79-1.42
		s0.39-1.03,0.5-1.56c0.11-0.53,0.13-1.04,0.06-1.52c-0.07-0.48-0.26-0.92-0.56-1.33c-0.3-0.41-0.74-0.74-1.33-1
		c-0.59-0.25-1.13-0.35-1.63-0.28c-0.5,0.07-0.94,0.24-1.34,0.51c-0.4,0.27-0.75,0.63-1.07,1.08c-0.31,0.45-0.58,0.93-0.79,1.43
		C96.68,268.34,96.52,268.86,96.41,269.39z"/>
	<path class="st2" d="M119.52,263.19l-1.73,6.98l0.08,0.02c0.66-0.66,1.4-1.08,2.21-1.25c0.81-0.17,1.57-0.17,2.26,0
		c0.99,0.25,1.76,0.58,2.33,1c0.56,0.43,0.97,0.92,1.21,1.49c0.25,0.57,0.36,1.21,0.33,1.93c-0.02,0.72-0.14,1.49-0.34,2.32
		l-2.05,8.25l-3.68-0.92l1.88-7.57c0.27-1.11,0.31-1.98,0.1-2.61c-0.21-0.63-0.76-1.06-1.64-1.27c-1-0.25-1.8-0.13-2.4,0.35
		c-0.6,0.48-1.07,1.41-1.41,2.78l-1.75,7.03l-3.68-0.92l4.6-18.52L119.52,263.19z"/>
	<path class="st2" d="M136.69,271.77l-0.16,1.92l0.08,0.01c0.54-0.76,1.21-1.29,2.01-1.59c0.79-0.3,1.59-0.42,2.39-0.35
		c1.01,0.08,1.83,0.29,2.46,0.62c0.63,0.33,1.1,0.75,1.44,1.27c0.33,0.52,0.55,1.14,0.64,1.85s0.11,1.5,0.04,2.35l-0.69,8.47
		l-3.78-0.31l0.64-7.78c0.09-1.14-0.02-2-0.33-2.59c-0.31-0.59-0.92-0.92-1.82-0.99c-1.03-0.08-1.8,0.16-2.31,0.74
		c-0.51,0.58-0.82,1.56-0.94,2.97l-0.59,7.22l-3.78-0.31l1.12-13.77L136.69,271.77z"/>
	<path class="st2" d="M168.6,280.11c0.31,0.4,0.67,0.7,1.1,0.9c0.43,0.2,0.91,0.32,1.44,0.36c0.53,0.04,1.07,0.01,1.61-0.09
		c0.37-0.07,0.76-0.17,1.17-0.31c0.41-0.14,0.78-0.33,1.12-0.57c0.34-0.24,0.6-0.54,0.79-0.89c0.19-0.35,0.24-0.76,0.15-1.24
		c-0.09-0.51-0.33-0.89-0.71-1.15s-0.85-0.44-1.42-0.56c-0.56-0.11-1.19-0.19-1.89-0.23c-0.69-0.04-1.4-0.09-2.12-0.16
		c-0.73-0.05-1.46-0.14-2.17-0.27c-0.71-0.13-1.37-0.35-1.97-0.66c-0.6-0.31-1.12-0.73-1.55-1.28c-0.44-0.55-0.73-1.25-0.89-2.11
		c-0.18-0.96-0.12-1.84,0.16-2.62c0.28-0.79,0.71-1.48,1.29-2.07c0.58-0.59,1.27-1.08,2.07-1.46c0.8-0.38,1.62-0.65,2.46-0.8
		c0.98-0.18,1.94-0.24,2.89-0.19s1.81,0.26,2.6,0.63c0.79,0.36,1.46,0.89,2.01,1.58s0.93,1.57,1.12,2.66l-4,0.73
		c-0.14-0.55-0.34-1-0.61-1.33c-0.27-0.33-0.59-0.57-0.96-0.72c-0.37-0.15-0.78-0.23-1.23-0.24c-0.45-0.01-0.92,0.03-1.43,0.12
		c-0.33,0.06-0.66,0.16-0.98,0.29c-0.32,0.13-0.6,0.31-0.84,0.53c-0.24,0.23-0.42,0.48-0.55,0.78c-0.13,0.29-0.15,0.64-0.08,1.05
		c0.07,0.37,0.19,0.65,0.37,0.86c0.18,0.2,0.5,0.36,0.94,0.48c0.45,0.12,1.05,0.21,1.81,0.27c0.76,0.06,1.76,0.13,2.99,0.22
		c0.36,0.01,0.87,0.04,1.53,0.12c0.66,0.07,1.33,0.25,2.01,0.54c0.69,0.29,1.32,0.73,1.89,1.33c0.57,0.59,0.95,1.42,1.14,2.47
		c0.16,0.86,0.13,1.69-0.06,2.48c-0.2,0.8-0.58,1.52-1.14,2.18c-0.56,0.65-1.3,1.22-2.22,1.69c-0.92,0.48-2.02,0.83-3.3,1.06
		c-1.03,0.19-2.06,0.24-3.08,0.17s-1.95-0.32-2.79-0.73c-0.84-0.41-1.56-0.99-2.15-1.75c-0.59-0.76-0.98-1.72-1.18-2.88l4-0.73
		C168.08,279.2,168.29,279.72,168.6,280.11z"/>
	<path class="st2" d="M186.45,266.63l0.7,1.74l0.05-0.02c0.2-0.85,0.55-1.58,1.06-2.21c0.51-0.63,1.18-1.11,2.03-1.45
		c0.81-0.32,1.61-0.46,2.41-0.42c0.8,0.05,1.53,0.4,2.19,1.05c0.16-0.71,0.47-1.42,0.95-2.11c0.48-0.69,1.17-1.22,2.06-1.57
		c0.68-0.27,1.34-0.44,1.99-0.51c0.65-0.07,1.25,0,1.81,0.2c0.56,0.2,1.07,0.54,1.54,1.04c0.47,0.49,0.87,1.16,1.2,1.98l3.44,8.58
		l-3.52,1.41l-2.91-7.27c-0.17-0.43-0.35-0.83-0.54-1.2c-0.19-0.37-0.41-0.66-0.67-0.88c-0.26-0.22-0.57-0.36-0.93-0.41
		c-0.36-0.05-0.78,0.03-1.28,0.22c-0.5,0.2-0.86,0.46-1.09,0.77c-0.23,0.31-0.37,0.66-0.42,1.03c-0.05,0.38-0.03,0.77,0.07,1.18
		c0.1,0.41,0.23,0.82,0.38,1.21l2.86,7.15l-3.52,1.41l-2.88-7.2c-0.15-0.38-0.31-0.75-0.48-1.12s-0.37-0.68-0.62-0.95
		c-0.25-0.26-0.56-0.43-0.92-0.51c-0.37-0.07-0.83,0-1.39,0.23c-0.17,0.07-0.37,0.19-0.61,0.38s-0.45,0.43-0.62,0.74
		c-0.17,0.31-0.27,0.7-0.3,1.16s0.09,1.01,0.34,1.64l2.98,7.44l-3.52,1.41l-5.14-12.83L186.45,266.63z"/>
	<path class="st2" d="M206.95,254.87l-1.61-2.68l3.26-1.95l1.61,2.68L206.95,254.87z M211.3,254.75l7.1,11.86l-3.26,1.95l-7.1-11.86
		L211.3,254.75z"/>
	<path class="st2" d="M223.21,246.42l1.51,2.04l-2.23,1.66l4.08,5.49c0.38,0.51,0.72,0.79,1.02,0.84c0.3,0.04,0.71-0.13,1.22-0.51
		c0.17-0.13,0.33-0.26,0.48-0.39c0.15-0.13,0.28-0.26,0.4-0.4l1.75,2.36c-0.23,0.23-0.49,0.48-0.79,0.72
		c-0.3,0.25-0.61,0.48-0.91,0.71c-0.47,0.35-0.94,0.65-1.41,0.9c-0.47,0.25-0.93,0.4-1.39,0.45c-0.46,0.05-0.91-0.02-1.35-0.23
		c-0.44-0.21-0.87-0.59-1.28-1.14l-4.86-6.54l-1.85,1.37l-1.51-2.04l1.84-1.37l-2.47-3.32l3.05-2.26l2.47,3.32L223.21,246.42z"/>
</g>
<g id="Karateschool">
	<path class="st2" d="M43.48,65.08l6.06,5.08l-1.27-10.8l3.36-4.02l0.99,10.56l14.1,1.15l-3.38,4.04l-10.27-1.11l0.32,3.41
		l4.71,3.95l-2.7,3.22L40.79,68.3L43.48,65.08z"/>
	<path class="st2" d="M64.9,55.89c-0.52-0.72-0.82-1.43-0.89-2.14c-0.07-0.7,0.01-1.38,0.26-2.04c0.24-0.66,0.61-1.29,1.1-1.89
		c0.49-0.6,1.03-1.14,1.62-1.63c0.54-0.44,1.11-0.85,1.72-1.23c0.61-0.38,1.24-0.64,1.87-0.8s1.26-0.15,1.87,0
		c0.61,0.15,1.18,0.56,1.72,1.2l4.57,5.55c0.4,0.48,0.8,0.92,1.22,1.31c0.42,0.4,0.79,0.65,1.1,0.75l-2.97,2.44
		c-0.19-0.12-0.37-0.25-0.55-0.4c-0.18-0.14-0.34-0.3-0.51-0.47c-0.07,0.87-0.34,1.66-0.82,2.37s-1.04,1.34-1.7,1.88
		c-0.51,0.42-1.04,0.75-1.58,0.99c-0.54,0.24-1.09,0.36-1.63,0.37c-0.54,0.01-1.07-0.11-1.59-0.35c-0.51-0.25-1-0.64-1.45-1.19
		c-0.5-0.61-0.8-1.19-0.91-1.76s-0.09-1.11,0.05-1.62c0.14-0.51,0.39-1,0.72-1.48c0.34-0.47,0.7-0.93,1.08-1.36
		c0.38-0.43,0.77-0.84,1.16-1.23s0.72-0.77,0.98-1.12c0.26-0.35,0.42-0.69,0.49-1.01c0.06-0.32-0.04-0.62-0.3-0.91
		c-0.26-0.32-0.52-0.52-0.77-0.63c-0.26-0.1-0.51-0.13-0.77-0.09c-0.26,0.04-0.51,0.13-0.77,0.29c-0.25,0.15-0.51,0.34-0.78,0.55
		c-0.58,0.48-0.93,0.97-1.06,1.49s0.02,1.09,0.44,1.71L64.9,55.89z M73.45,52.49c-0.03,0.21-0.12,0.43-0.25,0.64
		c-0.13,0.21-0.29,0.43-0.47,0.65c-0.18,0.22-0.37,0.44-0.59,0.65c-0.21,0.22-0.42,0.45-0.62,0.68c-0.19,0.22-0.36,0.46-0.51,0.7
		c-0.16,0.24-0.27,0.49-0.33,0.74s-0.07,0.5-0.02,0.76c0.05,0.26,0.19,0.52,0.42,0.8c0.22,0.26,0.44,0.44,0.69,0.54
		c0.24,0.1,0.49,0.13,0.74,0.1s0.5-0.12,0.76-0.26c0.25-0.14,0.5-0.31,0.73-0.5c0.58-0.48,0.95-0.94,1.1-1.39
		c0.16-0.45,0.2-0.88,0.13-1.27c-0.07-0.39-0.2-0.74-0.39-1.04c-0.19-0.3-0.36-0.54-0.49-0.7L73.45,52.49z"/>
	<path class="st2" d="M83.01,37.37l1.31,2.2l0.05-0.03c-0.07-0.46-0.06-0.92,0.01-1.39c0.07-0.47,0.21-0.91,0.42-1.34
		s0.46-0.81,0.77-1.16c0.31-0.35,0.67-0.65,1.08-0.89c0.21-0.13,0.47-0.23,0.78-0.31l1.81,3.03c-0.17,0.06-0.37,0.14-0.6,0.25
		c-0.23,0.1-0.44,0.22-0.64,0.33c-0.6,0.36-1.04,0.76-1.34,1.2c-0.29,0.45-0.47,0.92-0.51,1.41c-0.05,0.5,0.01,1,0.18,1.53
		c0.17,0.52,0.41,1.05,0.73,1.59l3.19,5.35l-3.26,1.94l-7.07-11.87L83.01,37.37z"/>
	<path class="st2" d="M96.38,34.91c-0.28-0.85-0.35-1.62-0.21-2.31c0.14-0.69,0.43-1.32,0.86-1.87c0.43-0.56,0.97-1.05,1.61-1.47
		c0.65-0.42,1.32-0.78,2.03-1.07c0.64-0.26,1.32-0.48,2.01-0.65c0.7-0.18,1.37-0.24,2.02-0.2s1.25,0.23,1.78,0.56
		c0.54,0.33,0.96,0.88,1.28,1.66l2.69,6.67c0.23,0.58,0.49,1.12,0.77,1.62c0.28,0.5,0.56,0.85,0.83,1.05l-3.57,1.44
		c-0.15-0.17-0.28-0.35-0.41-0.54c-0.12-0.19-0.24-0.39-0.34-0.6c-0.33,0.81-0.83,1.48-1.49,2.01c-0.67,0.54-1.4,0.97-2.19,1.29
		c-0.61,0.25-1.21,0.4-1.8,0.47c-0.59,0.06-1.14,0.02-1.67-0.13c-0.52-0.15-0.99-0.42-1.41-0.81c-0.42-0.39-0.76-0.91-1.02-1.58
		c-0.29-0.73-0.41-1.38-0.34-1.95c0.07-0.57,0.24-1.08,0.54-1.53s0.67-0.84,1.13-1.19c0.46-0.35,0.94-0.67,1.44-0.97
		c0.5-0.3,0.99-0.57,1.48-0.83c0.49-0.26,0.92-0.51,1.27-0.77c0.36-0.26,0.61-0.53,0.77-0.81c0.15-0.28,0.15-0.6-0.01-0.96
		c-0.15-0.38-0.34-0.66-0.55-0.83c-0.21-0.17-0.45-0.28-0.71-0.32c-0.26-0.04-0.53-0.03-0.82,0.04c-0.29,0.07-0.59,0.17-0.9,0.29
		c-0.69,0.28-1.18,0.65-1.46,1.11c-0.28,0.46-0.31,1.05-0.09,1.77L96.38,34.91z M105.56,34.23c-0.1,0.19-0.24,0.37-0.43,0.53
		c-0.19,0.16-0.41,0.32-0.64,0.48c-0.24,0.15-0.49,0.3-0.76,0.45c-0.27,0.15-0.53,0.3-0.79,0.46c-0.24,0.16-0.48,0.33-0.7,0.51
		c-0.22,0.19-0.4,0.39-0.53,0.6c-0.13,0.22-0.21,0.46-0.24,0.72c-0.03,0.26,0.02,0.56,0.16,0.89c0.13,0.31,0.29,0.56,0.49,0.72
		s0.43,0.27,0.68,0.32c0.25,0.04,0.51,0.04,0.8-0.02c0.28-0.06,0.57-0.14,0.85-0.26c0.69-0.28,1.18-0.61,1.47-1
		c0.29-0.38,0.46-0.77,0.51-1.17c0.05-0.4,0.03-0.77-0.06-1.11c-0.09-0.35-0.18-0.62-0.26-0.82L105.56,34.23z"/>
	<path class="st2" d="M123.1,21.77l0.59,2.47l-2.7,0.65l1.59,6.66c0.15,0.62,0.35,1.02,0.61,1.17c0.26,0.16,0.7,0.16,1.32,0.01
		c0.21-0.05,0.4-0.11,0.59-0.17c0.19-0.06,0.36-0.13,0.53-0.21l0.68,2.86c-0.3,0.13-0.64,0.24-1.02,0.35
		c-0.38,0.11-0.75,0.21-1.11,0.29c-0.57,0.14-1.12,0.23-1.65,0.27s-1.02,0-1.46-0.13c-0.44-0.13-0.83-0.38-1.15-0.74
		c-0.32-0.36-0.57-0.88-0.73-1.56l-1.89-7.93l-2.24,0.53l-0.59-2.47l2.24-0.53l-0.96-4.03l3.69-0.88l0.96,4.03L123.1,21.77z"/>
	<path class="st2" d="M136.47,30.39c0.62,0.5,1.46,0.7,2.52,0.61c0.76-0.07,1.4-0.31,1.92-0.74s0.82-0.86,0.91-1.3l3.33-0.29
		c-0.39,1.7-1.1,2.95-2.14,3.76s-2.34,1.28-3.9,1.41c-1.08,0.09-2.07,0.01-2.97-0.26c-0.9-0.27-1.68-0.7-2.34-1.28
		c-0.66-0.59-1.19-1.31-1.6-2.17c-0.41-0.86-0.66-1.82-0.75-2.89c-0.09-1.03-0.01-2,0.25-2.92c0.26-0.92,0.67-1.73,1.24-2.43
		c0.56-0.7,1.26-1.28,2.09-1.73c0.83-0.45,1.77-0.72,2.81-0.81c1.17-0.1,2.21,0.04,3.12,0.41s1.68,0.92,2.3,1.64
		c0.63,0.71,1.11,1.55,1.44,2.5s0.51,1.97,0.53,3.04l-9.93,0.87C135.46,29.02,135.85,29.89,136.47,30.39z M140.11,22.77
		c-0.5-0.46-1.21-0.65-2.13-0.57c-0.6,0.05-1.1,0.2-1.48,0.44c-0.38,0.24-0.68,0.52-0.89,0.84c-0.21,0.32-0.35,0.66-0.42,1
		c-0.07,0.35-0.1,0.65-0.09,0.92l6.15-0.54C140.98,23.93,140.6,23.23,140.11,22.77z"/>
	<path class="st2" d="M156.07,29.77c0.15,0.31,0.35,0.56,0.6,0.77c0.25,0.21,0.55,0.37,0.89,0.48c0.34,0.12,0.7,0.19,1.07,0.21
		c0.27,0.02,0.55,0.01,0.85-0.03c0.3-0.04,0.57-0.12,0.82-0.23c0.25-0.11,0.46-0.28,0.64-0.49s0.28-0.48,0.3-0.82
		c0.04-0.57-0.3-1.02-1.04-1.37c-0.73-0.34-1.77-0.71-3.09-1.09c-0.54-0.17-1.07-0.35-1.58-0.56c-0.51-0.21-0.96-0.47-1.35-0.77
		c-0.39-0.31-0.69-0.68-0.91-1.11s-0.3-0.96-0.26-1.56c0.07-0.89,0.3-1.6,0.69-2.15c0.39-0.54,0.88-0.96,1.48-1.24
		c0.59-0.29,1.25-0.47,1.97-0.55c0.72-0.08,1.45-0.09,2.2-0.03c0.75,0.06,1.46,0.18,2.16,0.38c0.69,0.2,1.3,0.48,1.82,0.86
		c0.52,0.38,0.95,0.86,1.27,1.45s0.49,1.31,0.49,2.17l-3.6-0.27c0-0.73-0.24-1.25-0.71-1.54c-0.48-0.29-1.05-0.47-1.73-0.52
		c-0.21-0.02-0.45-0.02-0.7-0.01s-0.48,0.05-0.69,0.12c-0.21,0.07-0.39,0.19-0.55,0.35c-0.16,0.16-0.24,0.38-0.26,0.66
		c-0.03,0.34,0.08,0.62,0.31,0.85c0.23,0.23,0.54,0.43,0.93,0.59c0.39,0.16,0.84,0.32,1.35,0.46c0.51,0.15,1.02,0.3,1.55,0.47
		c0.54,0.17,1.07,0.36,1.58,0.58c0.51,0.22,0.96,0.49,1.35,0.81c0.39,0.32,0.69,0.71,0.9,1.17c0.22,0.45,0.3,1,0.25,1.64
		c-0.07,0.91-0.31,1.65-0.72,2.24c-0.41,0.58-0.92,1.04-1.54,1.37c-0.61,0.33-1.31,0.54-2.07,0.63s-1.54,0.11-2.32,0.05
		c-0.8-0.06-1.58-0.2-2.33-0.42c-0.75-0.22-1.41-0.54-1.98-0.95s-1.02-0.95-1.35-1.59c-0.34-0.64-0.49-1.43-0.45-2.35l3.6,0.27
		C155.86,29.11,155.92,29.47,156.07,29.77z"/>
	<path class="st2" d="M180.57,25.55c-0.59-0.15-1.11-0.13-1.58,0.04s-0.87,0.43-1.23,0.8c-0.36,0.36-0.65,0.78-0.88,1.27
		c-0.23,0.48-0.41,0.98-0.53,1.48c-0.12,0.48-0.19,0.99-0.21,1.52c-0.02,0.53,0.04,1.02,0.17,1.49c0.13,0.46,0.37,0.88,0.7,1.23
		c0.33,0.36,0.79,0.61,1.36,0.75c0.88,0.22,1.62,0.14,2.22-0.23c0.6-0.38,1.06-0.96,1.39-1.76l3.55,0.88
		c-0.68,1.72-1.71,2.91-3.09,3.56c-1.37,0.65-2.95,0.76-4.73,0.31c-1-0.25-1.88-0.65-2.64-1.19c-0.76-0.55-1.35-1.19-1.79-1.94
		c-0.44-0.75-0.72-1.59-0.84-2.51c-0.12-0.92-0.06-1.88,0.19-2.88c0.26-1.04,0.65-1.96,1.17-2.78c0.52-0.82,1.16-1.47,1.91-1.98
		c0.75-0.5,1.59-0.83,2.53-0.98c0.94-0.15,1.95-0.09,3.04,0.18c0.8,0.2,1.53,0.49,2.22,0.88c0.68,0.39,1.26,0.87,1.74,1.44
		c0.47,0.57,0.81,1.21,1.02,1.93c0.21,0.72,0.23,1.52,0.07,2.4l-3.61-0.89C182.86,26.94,182.14,25.94,180.57,25.55z"/>
	<path class="st2" d="M201.8,24.48l-2.93,6.57l0.07,0.03c0.77-0.54,1.56-0.82,2.4-0.85c0.83-0.03,1.57,0.1,2.22,0.39
		c0.93,0.41,1.63,0.88,2.11,1.4c0.48,0.52,0.79,1.08,0.94,1.68c0.14,0.6,0.14,1.25-0.01,1.96c-0.15,0.7-0.4,1.45-0.75,2.23
		l-3.46,7.76l-3.47-1.55l3.18-7.13c0.46-1.04,0.65-1.89,0.55-2.55c-0.1-0.66-0.56-1.17-1.39-1.54c-0.94-0.42-1.75-0.45-2.43-0.07
		c-0.67,0.37-1.3,1.2-1.87,2.49l-2.95,6.61l-3.47-1.55l7.78-17.43L201.8,24.48z"/>
	<path class="st2" d="M214.54,41.12c0.79-0.55,1.62-0.91,2.49-1.08c0.87-0.17,1.77-0.15,2.68,0.05c0.92,0.21,1.82,0.62,2.72,1.23
		s1.61,1.31,2.14,2.1c0.53,0.78,0.88,1.61,1.03,2.49c0.16,0.87,0.12,1.78-0.11,2.71c-0.23,0.93-0.65,1.86-1.28,2.77
		c-0.62,0.91-1.33,1.64-2.11,2.18c-0.78,0.54-1.61,0.9-2.48,1.07c-0.87,0.17-1.77,0.15-2.69-0.07c-0.92-0.22-1.83-0.63-2.73-1.25
		s-1.61-1.31-2.14-2.08s-0.87-1.6-1.03-2.47c-0.16-0.87-0.13-1.77,0.1-2.7c0.22-0.93,0.65-1.85,1.27-2.76S213.76,41.67,214.54,41.12
		z M214.78,46.88c-0.21,0.49-0.32,0.99-0.35,1.48c-0.02,0.49,0.07,0.96,0.28,1.41c0.21,0.45,0.58,0.85,1.11,1.21
		c0.53,0.36,1.04,0.56,1.55,0.6c0.5,0.04,0.98-0.04,1.43-0.24c0.45-0.2,0.87-0.49,1.25-0.86c0.38-0.37,0.73-0.79,1.04-1.24
		c0.31-0.46,0.57-0.94,0.79-1.44c0.21-0.5,0.33-0.99,0.35-1.48c0.02-0.48-0.08-0.96-0.29-1.42c-0.22-0.46-0.59-0.87-1.12-1.23
		c-0.53-0.36-1.04-0.56-1.54-0.58c-0.5-0.03-0.97,0.05-1.42,0.25c-0.44,0.19-0.86,0.48-1.25,0.86c-0.39,0.38-0.74,0.8-1.05,1.26
		S214.99,46.39,214.78,46.88z"/>
	<path class="st2" d="M232.74,54.58c0.87-0.4,1.75-0.61,2.64-0.62c0.89-0.01,1.77,0.16,2.63,0.53s1.69,0.93,2.46,1.69
		c0.77,0.76,1.35,1.58,1.74,2.44c0.38,0.87,0.58,1.74,0.58,2.63c0,0.89-0.2,1.77-0.59,2.65c-0.39,0.88-0.97,1.71-1.75,2.5
		c-0.78,0.79-1.6,1.38-2.46,1.77c-0.87,0.4-1.74,0.6-2.63,0.61c-0.89,0.01-1.77-0.17-2.63-0.55c-0.87-0.38-1.69-0.95-2.46-1.71
		s-1.35-1.57-1.74-2.43s-0.58-1.73-0.58-2.61c0-0.89,0.19-1.77,0.58-2.64c0.38-0.87,0.96-1.7,1.74-2.49
		C231.04,55.58,231.87,54.98,232.74,54.58z M231.95,60.29c-0.29,0.45-0.49,0.91-0.6,1.39c-0.11,0.48-0.1,0.96,0.03,1.44
		c0.13,0.48,0.42,0.94,0.88,1.39c0.46,0.45,0.93,0.74,1.41,0.87c0.49,0.13,0.97,0.13,1.45,0.02c0.48-0.12,0.94-0.32,1.38-0.62
		c0.44-0.3,0.86-0.65,1.25-1.04c0.39-0.39,0.73-0.82,1.03-1.27c0.3-0.46,0.5-0.92,0.6-1.39c0.1-0.47,0.09-0.96-0.04-1.45
		c-0.13-0.49-0.42-0.96-0.88-1.41c-0.46-0.45-0.93-0.73-1.41-0.85s-0.96-0.12-1.44-0.01c-0.47,0.11-0.93,0.32-1.38,0.62
		c-0.45,0.31-0.87,0.65-1.26,1.05C232.58,59.42,232.24,59.84,231.95,60.29z"/>
	<path class="st2" d="M257.6,68.39l-15.13,11.63l-2.31-3.01l15.13-11.63L257.6,68.39z"/>
</g>
<polygon id="HandVuist" class="st3" points="83.05,161.09 88.05,157.76 91.8,154.84 94.72,152.76 97.42,151.09 100.55,149.01 
	104.92,147.76 107.94,147.17 110.82,147.37 114.29,146.93 117.21,147.35 121.74,146.78 125.29,145.95 129.08,144.43 132.62,144.01 
	134.71,142.4 136.58,140.68 140.74,139.43 144.07,138.71 146.99,137.97 151.21,136.68 154.49,135.68 157.2,135.89 159.28,138.6 
	160.32,141.1 161.78,143.39 163.03,146.93 164.28,150.68 166.08,154.69 168.05,160.63 169.2,164.47 168.96,167.91 168.22,170.67 
	165.89,170.78 163.86,166.3 163.03,160.47 161.57,157.34 159.49,151.3 158.24,146.51 156.36,142.97 152.51,141.09 149.24,140.93 
	144.07,142.03 141.03,143.29 139.08,145.06 143.03,144.43 147.2,142.97 150.63,142.47 154.07,144.01 155.74,146.93 156.36,150.89 
	158.03,155.88 159.07,158.17 161.36,162.76 162.19,165.46 162.61,169.42 161.99,172.13 159.69,173.38 156.36,174.42 153.24,175.67 
	149.91,176.71 146.78,175.67 144.7,172.75 142.82,170.88 141.78,165.88 145.32,164.84 147.62,165.67 150.41,169.05 152.31,168.27 
	151.57,165.67 150.74,163.59 152.4,159.84 149.07,162.13 144.49,161.3 142.2,157.13 141.78,160.47 141.58,160.47 141.37,160.47 
	141.37,160.88 141.58,161.09 141.78,161.51 141.99,161.92 142.2,162.13 142.2,162.13 139.91,162.55 137.62,161.3 138.66,166.51 
	135.54,168.59 129.5,171.3 127.21,174.21 124.08,177.13 120.33,177.96 116.79,179.21 113.88,178.59 110.96,175.25 108.46,173.8 
	105.34,173.38 100.55,176.5 97.74,179.26 94.62,182.5 91.76,185.11 89.41,187.24 86.7,190.41 85.97,193.37 89.93,190.04 
	93.05,186.92 96.38,184.42 101.17,180.46 104.92,177.34 107.42,175.88 108.88,176.5 109.29,178.79 107,181.08 104.71,184 
	102.42,186.71 100.34,189 98.26,191.71 96.17,195.87 95.13,197.95 92.84,201.29 91.1,204.01 85.81,198.14 83.44,193.98 
	79.67,187.07 77.4,180.78 75.78,175.94 74.04,169.11 73.73,167.06 73.53,164.01 74.66,163.53 77.64,163.38 83.05,161.09 "/>
<polygon id="HandTop" class="st4" points="159.49,132.14 161.99,136.1 163.44,140.06 166.15,144.01 168.23,148.8 170.32,152.97 
	173.02,157.55 175.94,160.88 178.85,163.59 181.77,165.05 185.1,165.26 187.81,171.51 190.1,178.59 192.18,186.08 194.06,191.71 
	196.56,197.33 198.85,201.7 200.51,204.2 205.3,198.99 209.68,194 212.59,188.17 215.51,180.88 217.17,174.42 216.76,170.88 
	211.76,165.46 208.63,162.34 206.14,158.59 204.05,156.3 200.51,151.93 195.31,145.68 191.77,140.27 186.77,133.39 182.19,128.19 
	178.23,124.85 173.23,121.73 170.94,119.02 166.36,115.48 164.07,113.4 160.11,111.53 154.49,111.94 151.99,113.4 144.23,116.85 
	137.41,119.2 134.34,120.64 129.71,122.47 125.44,124.5 122.21,126.31 118.57,127.82 115.97,129.03 112.43,131.06 108.05,134.02 
	105.4,135.64 102.38,137.93 100.34,139.85 101.59,141.72 103.67,139.85 108.88,136.52 112.42,134.43 117.21,131.1 118.46,129.85 
	121.17,128.19 123.87,127.15 126.79,125.9 128.87,125.27 132.62,123.81 135.54,122.35 137.62,121.11 141.16,120.06 145.32,119.23 
	149.07,117.56 151.16,116.52 154.49,116.11 152.82,118.61 148.45,120.27 144.07,122.15 139.49,122.77 136.99,123.81 133.88,125.49 
	129.5,127.15 126.37,128.19 122.42,130.27 119.92,131.93 115.75,134.23 112.21,136.73 109.01,138.45 107,140.27 105.34,140.47 
	105.75,143.39 107.63,145.06 110.96,143.81 112.63,142.35 113.88,139.85 118.46,137.77 122.21,136.1 125.33,134.02 128.46,132.77 
	130.75,131.1 133.66,130.27 135.54,128.6 137.83,127.56 141.37,126.52 145.32,125.48 149.49,123.4 151.78,123.81 150.53,125.69 
	145.95,127.56 140.74,130.06 136.58,131.93 133.04,132.56 129.08,134.43 125.96,136.1 123.04,138.6 118.46,140.68 116.17,141.72 
	115.75,144.01 118.51,144.78 123.04,144.64 125.75,142.76 128.25,141.09 131.37,141.31 133.66,140.68 135.54,138.6 139.91,137.14 
	142.62,137.14 145.74,136.31 149.91,134.85 153.45,133.39 155.53,131.93 159.49,132.14 "/>
<g>
	<path class="st5" d="M113.57,97.75c-1.44,1.26-3.44,1.88-5.99,1.88c-2.58,0-4.58-0.62-6-1.87c-1.42-1.25-2.12-3.17-2.12-5.77V80.12
		h4.2v11.87c0,0.52,0.04,1.02,0.13,1.52c0.09,0.5,0.28,0.94,0.56,1.32c0.28,0.38,0.68,0.7,1.19,0.94c0.51,0.24,1.19,0.36,2.04,0.36
		c1.5,0,2.53-0.33,3.1-1c0.57-0.67,0.86-1.71,0.86-3.14V80.12h4.2v11.87C115.74,94.57,115.02,96.49,113.57,97.75z"/>
	<path class="st5" d="M122.63,85.38v1.87h0.05c0.5-0.71,1.1-1.26,1.8-1.66c0.7-0.39,1.51-0.59,2.42-0.59c0.87,0,1.67,0.17,2.39,0.51
		c0.72,0.34,1.27,0.94,1.64,1.79c0.41-0.61,0.97-1.14,1.67-1.6c0.7-0.46,1.54-0.7,2.5-0.7c0.73,0,1.41,0.09,2.03,0.27
		c0.62,0.18,1.16,0.46,1.6,0.85c0.45,0.39,0.79,0.9,1.04,1.54c0.25,0.63,0.37,1.39,0.37,2.29v9.25h-3.79v-7.83
		c0-0.46-0.02-0.9-0.05-1.31c-0.04-0.41-0.13-0.77-0.29-1.07c-0.16-0.3-0.4-0.54-0.71-0.72C135,88.09,134.58,88,134.04,88
		c-0.53,0-0.97,0.1-1.3,0.31c-0.33,0.21-0.59,0.47-0.78,0.8c-0.19,0.33-0.31,0.7-0.37,1.12c-0.06,0.42-0.09,0.84-0.09,1.27v7.7
		h-3.79v-7.75c0-0.41-0.01-0.81-0.03-1.22c-0.02-0.4-0.09-0.77-0.23-1.11c-0.13-0.34-0.36-0.61-0.67-0.82
		c-0.31-0.2-0.77-0.31-1.38-0.31c-0.18,0-0.41,0.04-0.71,0.12c-0.29,0.08-0.58,0.23-0.86,0.45c-0.28,0.22-0.51,0.54-0.71,0.96
		c-0.2,0.42-0.29,0.97-0.29,1.64v8.02h-3.8V85.38H122.63z"/>
	<path class="st5" d="M143.27,83.25v-3.13h3.8v3.13H143.27z M147.06,85.38V99.2h-3.8V85.38H147.06z"/>
	<path class="st5" d="M168.18,80.12c0.85,0,1.63,0.14,2.31,0.41c0.69,0.28,1.27,0.65,1.76,1.14s0.86,1.04,1.12,1.67
		c0.26,0.63,0.39,1.31,0.39,2.04c0,1.12-0.24,2.09-0.71,2.91c-0.47,0.82-1.24,1.44-2.31,1.87v0.05c0.52,0.14,0.94,0.36,1.28,0.65
		c0.34,0.29,0.61,0.64,0.83,1.04s0.37,0.84,0.47,1.32c0.1,0.48,0.16,0.96,0.2,1.44c0.02,0.3,0.04,0.66,0.05,1.07
		c0.02,0.41,0.05,0.83,0.09,1.26c0.04,0.43,0.12,0.83,0.21,1.22c0.1,0.38,0.24,0.71,0.44,0.98h-4.2c-0.23-0.61-0.37-1.33-0.43-2.17
		c-0.05-0.84-0.13-1.64-0.24-2.41c-0.14-1-0.45-1.73-0.91-2.19c-0.46-0.46-1.22-0.69-2.27-0.69h-4.2v7.46h-4.2V80.12H168.18z
		 M166.68,88.75c0.96,0,1.68-0.21,2.16-0.64c0.48-0.43,0.72-1.12,0.72-2.08c0-0.93-0.24-1.6-0.72-2.02
		c-0.48-0.42-1.2-0.63-2.16-0.63h-4.6v5.37H166.68z"/>
	<path class="st5" d="M181.89,103.32c-0.73,0.48-1.75,0.72-3.05,0.72c-0.39,0-0.78-0.01-1.16-0.04c-0.38-0.03-0.77-0.06-1.16-0.09
		v-3.13c0.36,0.04,0.72,0.07,1.1,0.11c0.37,0.04,0.75,0.04,1.12,0.03c0.5-0.05,0.87-0.25,1.11-0.59c0.24-0.34,0.36-0.71,0.36-1.12
		c0-0.3-0.05-0.59-0.16-0.86l-4.84-12.96h4.04l3.13,9.46h0.05l3.02-9.46h3.93l-5.77,15.53
		C183.19,102.04,182.62,102.84,181.89,103.32z"/>
	<path class="st5" d="M200.01,99.2v-1.92h-0.08c-0.48,0.8-1.1,1.38-1.87,1.74c-0.77,0.36-1.55,0.53-2.35,0.53
		c-1.02,0-1.85-0.13-2.5-0.4c-0.65-0.27-1.16-0.65-1.54-1.14c-0.37-0.49-0.64-1.09-0.79-1.79c-0.15-0.7-0.23-1.48-0.23-2.34v-8.5
		h3.8v7.8c0,1.14,0.18,1.99,0.53,2.55c0.36,0.56,0.99,0.84,1.9,0.84c1.03,0,1.78-0.31,2.25-0.92c0.46-0.61,0.69-1.63,0.69-3.03
		v-7.24h3.8V99.2H200.01z"/>
</g>
<g id="KanjiRechts">
	<path class="st1" d="M265.96,125.27l0.03,0.67c0,0,2.02,1.96,2.85,2.04c0.83,0.08,1.38,0.14,1.35-0.69
		c-0.02-0.83-0.36-1.25-0.63-1.58c-0.28-0.33-0.64-0.36-0.97-0.36c0,0-0.53,0.04-1.38-0.04
		C266.37,125.22,265.94,125.22,265.96,125.27z"/>
	<path class="st1" d="M267.39,130.71c1.05,0.92,1.16,1.86,1.11,2.26c-0.04,0.4-0.28,0.45-1.37,0.41c-1.09-0.04-2.31-2.18-2.31-2.18
		v-0.65L267.39,130.71z"/>
	<path class="st1" d="M274.51,124.55l-1.38-0.01l-0.2,0.17l0.01,0.6l0.31,0.28c0,0,0.03,0.02,0,0.19c-0.03,0.16-0.45,1.69-1.21,3.18
		c-0.76,1.48-1.22,2.32-1.55,2.72l-0.01,0.68h0.66c0,0,0.9-0.68,2.45-2.59c0,0,1.45-0.06,2.18-0.38c0,0,2.21-0.41,2.45-0.45
		c0.24-0.03,0.24-0.03,0.24-0.03s2.42-0.31,2.44-0.31c0.02,0,1.71,0.01,1.71-0.65c0-0.67,0.09-0.92-1.2-1.46
		c-1.29-0.54-1.79-0.04-1.8,0c-0.02,0.03-0.45,0.57-0.66,0.57c-0.27,0.12-0.66,0.18-1.19,0.33l-2.89,0.87c0,0-0.38,0.19-0.11-0.18
		c0.27-0.36,1.1-1.66,1.1-1.66s0.04-0.04,0.04-0.28c0-0.23,0.09-0.58-0.3-0.95C275.23,124.79,275.26,124.63,274.51,124.55z"/>
	<g>
		<path class="st1" d="M270.42,134.43L270.42,134.43C270.45,134.43,270.42,134.43,270.42,134.43z"/>
		<path class="st1" d="M285.45,134.33c-0.38-0.35-1.11-0.55-1.28-0.61c-0.18-0.06-0.6-0.21-1.21-0.22c-0.61,0-0.72,0.2-0.72,0.2
			c-0.48,0.36-0.62,0.3-0.62,0.3c-0.19,0.13-0.13-0.15-0.13-0.15l0.31-1.8c0-0.02,0.22-0.9,0.15-1.31c-0.07-0.4-1.52-0.92-1.52-0.92
			l-0.71,0.01c0,0-0.87,0.35-1.39,0.49c-0.52,0.14-2.72,0.59-2.91,0.64c-0.19,0.05-0.45,0.24-0.83,0.03c-0.38-0.2-0.6-0.16-0.6-0.16
			c-0.44-0.1-0.56,0.22-0.56,0.22l-0.01,0.57l0.15,0.36c0,0-0.17,0.82-0.4,1.68c-0.26,1-0.58,2.05-0.61,2.11
			c-0.05,0.11-2.23,0.33-2.35,0.31c-0.13-0.02-0.04-0.08-0.04-0.08l0.29-0.92l-0.03-0.65c-0.03,0-0.11,0-0.31,0
			c-0.44,0-0.47,0.23-0.47,0.23l-3.95,6.12c-0.13,0.31-0.54,0.09-0.71,0.1c-0.17,0.01-0.28,0.05-0.29,0.2
			c0,0.06-0.04,0.36,0.06,0.71c0.14,0.5,0.57,1.11,1.25,1.49c1.24,0.68,1.4-0.06,1.4-0.06s0.53-1.48,1.11-2.97
			c0.59-1.5,1.23-3.02,1.25-3.09c0.04-0.13,0.13-0.02,0.13-0.02l0.48,0.32c0,0,0.33,0.02,0.41,0.02c0.08,0,0.69-0.06,1.01-0.19
			c0.32-0.14,0.15,0.23,0.15,0.23s-0.24,0.49-0.74,1.47c-0.1,0.2-0.21,0.36-0.27,0.51c-0.06,0.14-0.1,0.17-0.14,0.27
			c-0.12,0.36-0.11,0.63-0.11,0.63s-0.02,0.82,0.12,1.02c0.16,0.24,0.41,0.26,0.63,0.27c0.29,0.02,0.55-0.02,0.55-0.02
			c0.89-0.64,1.55-0.57,1.55-0.57s0.98-0.01,1.93,0.01c0.79,0.01,1.56,0.06,1.67,0.06c0.25,0.02,0.57,0.06,0.76,0.05
			c0.18-0.01,0.14,0.13,0.14,0.13s0.01,0.13-0.48,0.84c-0.48,0.7-0.86,0.48-1.61,0.29c-0.74-0.18-1.11-0.21-1.37-0.21
			c-0.26,0.01-0.24,0.16-0.24,0.16s-0.01,0.34,0,0.43c0.01,0.09,0.06,0.12,0.06,0.12s0.68,0.4,1.55,1.01
			c0.47,0.33,1.72,1.67,1.75,1.68c0.04,0.01,0.32,0.06,0.66-0.04c0.34-0.1,0.64-0.77,0.95-1.38c0.3-0.61,0.9-2.47,0.94-2.62
			c0.04-0.14,0.14-0.08,0.14-0.08s0.92,0.26,1.81,0.5c0.89,0.24,1.27,0.24,1.57,0.2c0.3-0.04,0.27-0.44,0.27-0.73
			c0-0.29-0.03-0.37-0.04-0.44c-0.01-0.06-0.33-0.4-0.86-0.85c-0.53-0.44-1.05-0.53-1.05-0.53s-1.28-0.01-1.41-0.02
			c-0.13,0-0.12-0.12-0.12-0.12l0.61-3.68l0.03-0.08c0,0,0.02-0.02,0.09-0.02c0.51-0.02,2.86-0.09,3.56-0.1
			c0.79-0.01,0.87-0.24,0.87-0.24C285.71,135.38,285.83,134.68,285.45,134.33z M275.44,136.65c0,0-0.03,0.17-0.07,0.39
			c-0.05,0.22-0.32,1.25-0.36,1.41c-0.05,0.15-0.33,1.09-0.41,1.3c-0.08,0.21-0.15,0.19-0.15,0.19s-0.75,0.02-1.05,0.01
			c-0.3-0.01-0.16-0.18-0.16-0.18c0.3-0.62,1.13-3.04,1.13-3.04c0.06-0.05,0.12-0.04,0.2-0.04c0.08,0,0.52-0.07,0.75-0.15
			C275.56,136.46,275.44,136.65,275.44,136.65z M276.27,132.76c0,0-0.41,2.04-0.44,2.19c-0.03,0.16-0.09,0.15-0.09,0.15
			s-0.66,0.13-0.84,0.15c-0.19,0.02-0.09-0.15-0.09-0.15s0.1-0.4,0.27-1.05c0.18-0.68,0.26-1.75,0.26-1.75
			c0.71-0.16,0.58-0.12,0.77-0.13C276.3,132.15,276.27,132.76,276.27,132.76z M279.02,136.54c-0.06,0.33-0.4,2.58-0.5,2.97
			c-0.09,0.38-0.23,0.31-0.23,0.31l-1.55,0.02c0,0,0,0-0.23-0.01c-0.23-0.01-0.09-0.18-0.09-0.18l1.14-3.45c0,0-0.07-0.01,0.11-0.03
			c0.18-0.02,0.93-0.13,1.23-0.18C279.19,135.95,279.08,136.21,279.02,136.54z M279.55,132.54c0,0-0.23,1.47-0.27,1.72
			c-0.03,0.25-0.13,0.21-0.13,0.21s-0.94,0.18-1.12,0.21c-0.18,0.03-0.1-0.17-0.1-0.17l0.43-1.63c0.04-0.75-0.29-1.15-0.29-1.15
			c-0.08-0.17,0.09-0.12,0.14-0.13c0.06-0.02,0.85-0.13,1.02-0.18c0.17-0.06,0.27,0.03,0.27,0.03c0.06,0.05,0.09,0.13,0.09,0.13
			L279.55,132.54z"/>
	</g>
	<path class="st1" d="M267.54,149.9c-0.6-0.09-1.19-0.22-1.24-0.22c-0.33,0-0.35,0.15-0.35,0.15v0.44c0,0-0.04,0.15,0.35,0.61
		c0.39,0.46,1.68,1.89,2.36,1.98c0.68,0.09,1.03,0.22,1-0.5c0,0,0.16-1.13-0.52-1.86l-0.31-0.46
		C268.82,150.04,268.18,149.99,267.54,149.9z"/>
	<path class="st1" d="M264.59,155.16c0,0-0.16-0.03-0.17,0.13c-0.01,0.16-0.01,0.4-0.01,0.4s-0.01,0.04,0.05,0.14
		c0.05,0.1,0.6,0.93,1.4,1.54c0.81,0.61,0.92,0.61,1.21,0.64c0.29,0.03,0.91,0.15,0.94-0.37c0.03-0.53,0-1.16,0-1.16
		s0.07-0.62-1.03-0.89C265.87,155.31,265.57,155.09,264.59,155.16z"/>
	<path class="st1" d="M269.38,158.81c0,0-0.33-0.06-0.51,0.24c-0.18,0.31-3.63,6.21-3.96,6.17c-0.33-0.04-0.94-0.05-0.94-0.05
		s-0.09,0.02-0.1,0.17c-0.01,0.15,0,0.53,0,0.53s-0.01,0.17,0.16,0.46c0.17,0.29,1.09,1.68,1.38,1.74c0,0,0.25,0.16,0.56,0.15
		c0.3-0.01,0.42,0.06,0.62-0.4c0.2-0.46,3.01-8.09,3.01-8.09s0.06-0.12,0.07-0.36c0.01-0.24,0-0.34,0-0.34
		S269.65,158.82,269.38,158.81z"/>
	<path class="st1" d="M275.31,151.98l-4.7,1.16c0,0-0.12,0.03-0.11,0.17c0.01,0.14-0.07,0.44,0.19,0.59
		c0.25,0.15,0.45,0.28,0.45,0.28s0.12,0.07,0.24,0.08c0.12,0.01,0.52-0.01,0.52-0.01s1.04-0.39,1.59-0.51
		c0.55-0.12,1.08-0.25,1.08-0.25s0.27-0.14,0.19,0.15c-0.04,0.14-0.38,0.86-0.84,1.57c-0.54,0.84-1.26,1.67-1.72,1.74
		c0,0-0.26-0.07-0.76,0.43c0,0-0.22,0.13-0.22,0.55c-0.01,0.42-0.02,0.81-0.02,0.81s0.15,0.78,0.53,0.63c0,0,0.14,0.09,0.9-0.17
		c0.75-0.27,6.18-2.11,6.18-2.11l1.21,1.37c0,0,0.18,0.24,0.53,0.26c0.35,0.02,1.02,0.11,1.09-0.61c0.08-0.72-0.28-2.12-1.12-2.76
		l-2.37-0.96c0,0-0.4-0.06-0.44-0.03c-0.05,0.03-0.17,0.02-0.18,0.3c-0.01,0.28,0,0.52,0.21,0.82l0.31,0.4c0,0,0.11,0.09,0.01,0.12
		c-0.1,0.02-2.93,0.75-2.93,0.75s-0.26,0.08-0.07-0.16c0.19-0.24,1.3-2.05,1.41-2.52c0.11-0.48,0.06-0.94,0.06-0.92
		c0,0.03,1.05-0.24,2.2-0.33c1.13-0.09,3.19-0.19,3.19-0.19s0.62-0.19,0.86-0.38c0.23-0.18,0.18-0.29,0.18-0.29l-0.01-0.48
		c0,0,0.06-0.16-0.61-0.46c-0.67-0.3-1.18-0.54-1.18-0.54s-0.67-0.07-0.83-0.01c-0.08,0.03-0.27,0.1-0.42,0.22
		c-0.18,0.14-0.31,0.3-0.31,0.3l-0.08,0.05l-2.16,0.53c0,0-0.1,0.01-0.09-0.14c0.01-0.14,0.24-1.43,0.12-1.63
		c-0.11-0.2-0.37-0.55-1.33-0.74c0,0-1.19-0.19-1.39-0.1c-0.21,0.1-0.23,0.11-0.26,0.46c-0.03,0.35,0.01,0.48,0.24,0.69
		c0.23,0.21,0.44,0.42,0.44,0.42S275.24,151.9,275.31,151.98z"/>
	<path class="st1" d="M271.17,160.23c0,0-0.12,0.6,0.3,1.18c0.11,0.16,0.07,0.5-0.01,0.94c-0.24,1.22-1.14,3.31-2.7,5.12
		c0,0-0.06,0.03-0.06,0.27l0.01,0.24c0,0-0.02,0.09,0.07,0.1c0.1,0.01,0.7,0,0.7,0s0.07,0.02,0.46-0.29
		c0.16-0.13,0.76-0.55,1.43-1.3c0.69-0.78,1.46-1.9,1.97-3.24c0.21-0.54,0.43-1.12,0.52-1.74c0,0,0.22-0.63-0.49-1.08
		c-0.72-0.45-1.33-0.48-1.71-0.46C271.28,160,271.18,160.02,271.17,160.23z"/>
	<path class="st1" d="M276.53,159.93l-0.03,7.39c0,0,0.03,0.6-0.37,0.63c-0.39,0.03-0.72,0.31-1.29-0.7
		c-0.29-0.53-0.35-0.92-0.36-1.2c-0.01-0.26,0.02-0.42,0.03-0.51c0,0,0.41-4.59,0.28-4.8c-0.04-0.07-0.09-0.2-0.16-0.35
		c-0.06-0.11-0.13-0.23-0.17-0.36c-0.05-0.19-0.04-0.41-0.02-0.56c0.01-0.11,0.06-0.17,0.12-0.21c0.15-0.12,0.38-0.09,0.38-0.09
		C274.94,159.18,276.13,159.22,276.53,159.93z"/>
	<path class="st1" d="M277.94,159.45c0,0,0.05,0.05,0.13,0.14c0.07,0.07,0.19,0.17,0.26,0.36c0.08,0.25,0.12,0.64,0.12,1.23
		c0,1.63-0.03,4.35-0.03,4.35s-0.35,2.6,2.63,2.95c1.44,0.17,2.19,0.15,2.69,0.14c0.53-0.01,0.76-0.01,1.18-0.09
		c0.81-0.15,1.08-0.38,1.14-0.47c0.06-0.09,0.18-0.81-0.21-1.42c0,0-0.13-0.4-0.26-0.93c-0.15-0.59-0.26-1.36-0.38-1.77
		c-0.02-0.08-0.1-0.1-0.14-0.1c-0.03-0.01-0.35-0.01-0.35-0.01s-0.16-0.05-0.22,0.26c-0.03,0.15-0.15,0.69-0.28,1.17
		c-0.13,0.48-0.27,0.89-0.27,0.89s-0.06,0.19-0.23,0.36c-0.09,0.1-0.22,0.19-0.37,0.24c-0.09,0.03-0.2,0.06-0.31,0.06
		c-0.57,0.01-1.33,0.01-1.67-0.03c-0.18-0.03-0.49-0.03-0.79-0.22c-0.14-0.08-0.28-0.19-0.37-0.38c-0.1-0.21-0.15-0.54-0.15-0.94
		c-0.02-1.51-0.02-1.52-0.02-1.52l0.47-2.99c0,0,0.35-1.15-0.62-1.6c-0.97-0.45-0.98-0.51-1.73-0.47c0,0-0.25-0.03-0.28,0.25
		C277.84,159.25,277.89,159.4,277.94,159.45z"/>
</g>
<g id="KanjiLinks">
	<path class="st1" d="M14.72,125.27l0.03,0.67c0,0,2.02,1.96,2.84,2.04c0.83,0.08,1.38,0.14,1.35-0.69
		c-0.02-0.83-0.36-1.25-0.63-1.58c-0.28-0.33-0.64-0.36-0.97-0.36c0,0-0.53,0.04-1.38-0.04C15.12,125.22,14.7,125.22,14.72,125.27z"
		/>
	<path class="st1" d="M16.15,130.71c1.05,0.92,1.16,1.86,1.11,2.26c-0.04,0.4-0.28,0.45-1.37,0.41c-1.09-0.04-2.31-2.18-2.31-2.18
		v-0.65L16.15,130.71z"/>
	<path class="st1" d="M23.27,124.55l-1.38-0.01l-0.2,0.17l0.01,0.6l0.31,0.28c0,0,0.03,0.02,0,0.19c-0.03,0.16-0.45,1.69-1.21,3.18
		c-0.76,1.48-1.22,2.32-1.55,2.72l-0.01,0.68h0.66c0,0,0.9-0.68,2.45-2.59c0,0,1.45-0.06,2.18-0.38c0,0,2.21-0.41,2.45-0.45
		c0.24-0.03,0.24-0.03,0.24-0.03s2.42-0.31,2.44-0.31c0.02,0,1.71,0.01,1.71-0.65c0-0.67,0.09-0.92-1.2-1.46
		c-1.29-0.54-1.79-0.04-1.8,0c-0.02,0.03-0.45,0.57-0.66,0.57c-0.27,0.12-0.66,0.18-1.18,0.33l-2.89,0.87c0,0-0.38,0.19-0.11-0.18
		c0.27-0.36,1.1-1.66,1.1-1.66s0.04-0.04,0.04-0.28c0-0.23,0.09-0.58-0.3-0.95C23.99,124.79,24.02,124.63,23.27,124.55z"/>
	<g>
		<path class="st1" d="M19.17,134.43L19.17,134.43C19.21,134.43,19.17,134.43,19.17,134.43z"/>
		<path class="st1" d="M34.21,134.33c-0.38-0.35-1.11-0.55-1.28-0.61c-0.18-0.06-0.6-0.22-1.21-0.22c-0.61,0-0.72,0.2-0.72,0.2
			c-0.48,0.37-0.62,0.31-0.62,0.31c-0.19,0.13-0.13-0.15-0.13-0.15l0.31-1.8c0-0.02,0.22-0.9,0.15-1.31
			c-0.07-0.4-1.52-0.92-1.52-0.92l-0.71,0.01c0,0-0.87,0.35-1.39,0.49c-0.52,0.15-2.72,0.59-2.91,0.64
			c-0.19,0.05-0.45,0.24-0.83,0.03c-0.38-0.2-0.6-0.16-0.6-0.16c-0.44-0.1-0.56,0.22-0.56,0.22l-0.01,0.57l0.15,0.36
			c0,0-0.17,0.82-0.4,1.68c-0.26,1-0.58,2.05-0.61,2.11c-0.05,0.11-2.23,0.33-2.35,0.31c-0.13-0.02-0.04-0.08-0.04-0.08l0.29-0.93
			l-0.03-0.65c-0.03,0-0.11,0-0.31,0c-0.44,0-0.47,0.23-0.47,0.23l-3.95,6.12c-0.13,0.31-0.54,0.09-0.71,0.1
			c-0.17,0.01-0.28,0.05-0.29,0.2c0,0.06-0.04,0.36,0.06,0.71c0.14,0.5,0.57,1.11,1.25,1.49c1.24,0.68,1.4-0.06,1.4-0.06
			s0.53-1.48,1.11-2.97c0.59-1.51,1.23-3.02,1.25-3.09c0.04-0.13,0.13-0.02,0.13-0.02l0.48,0.32c0,0,0.33,0.02,0.41,0.02
			c0.08,0,0.69-0.06,1.01-0.19c0.32-0.14,0.15,0.23,0.15,0.23s-0.24,0.49-0.74,1.47c-0.1,0.2-0.21,0.36-0.27,0.51
			c-0.06,0.14-0.1,0.17-0.14,0.27c-0.12,0.36-0.11,0.63-0.11,0.63s-0.02,0.82,0.12,1.02c0.16,0.24,0.41,0.26,0.63,0.27
			c0.29,0.02,0.55-0.02,0.55-0.02c0.89-0.64,1.55-0.57,1.55-0.57s0.98-0.01,1.93,0.01c0.79,0.01,1.56,0.06,1.67,0.06
			c0.25,0.02,0.57,0.06,0.76,0.05c0.18-0.01,0.14,0.13,0.14,0.13s0.01,0.13-0.48,0.84c-0.48,0.7-0.86,0.48-1.61,0.29
			c-0.74-0.18-1.11-0.21-1.37-0.21c-0.26,0.01-0.24,0.16-0.24,0.16s-0.01,0.34,0,0.43c0.01,0.09,0.06,0.12,0.06,0.12
			s0.68,0.4,1.55,1.01c0.47,0.33,1.72,1.67,1.75,1.68c0.04,0.01,0.32,0.06,0.66-0.04c0.34-0.1,0.64-0.77,0.95-1.38
			c0.3-0.61,0.9-2.47,0.94-2.62c0.04-0.14,0.14-0.08,0.14-0.08s0.92,0.26,1.81,0.5c0.89,0.24,1.27,0.24,1.57,0.2
			c0.3-0.04,0.27-0.44,0.27-0.73c0-0.29-0.03-0.37-0.04-0.44c-0.01-0.06-0.33-0.4-0.86-0.85c-0.53-0.44-1.05-0.53-1.05-0.53
			s-1.28-0.01-1.41-0.02c-0.13,0-0.12-0.12-0.12-0.12l0.61-3.68l0.03-0.08c0,0,0.02-0.02,0.09-0.02c0.51-0.02,2.86-0.09,3.56-0.1
			c0.79-0.01,0.87-0.24,0.87-0.24C34.47,135.38,34.59,134.68,34.21,134.33z M24.2,136.65c0,0-0.03,0.17-0.07,0.39
			c-0.05,0.22-0.32,1.25-0.36,1.41c-0.05,0.15-0.33,1.09-0.41,1.3c-0.08,0.21-0.15,0.19-0.15,0.19s-0.75,0.02-1.05,0.01
			c-0.3-0.01-0.16-0.18-0.16-0.18c0.3-0.62,1.13-3.04,1.13-3.04c0.06-0.05,0.12-0.04,0.2-0.04c0.08,0,0.52-0.07,0.75-0.15
			C24.31,136.46,24.2,136.65,24.2,136.65z M25.03,132.76c0,0-0.41,2.04-0.44,2.19c-0.03,0.16-0.09,0.15-0.09,0.15
			s-0.66,0.13-0.84,0.15c-0.19,0.02-0.09-0.15-0.09-0.15s0.1-0.4,0.27-1.05c0.18-0.68,0.26-1.75,0.26-1.75
			c0.71-0.16,0.58-0.12,0.77-0.13C25.06,132.15,25.03,132.76,25.03,132.76z M27.78,136.54c-0.06,0.33-0.4,2.58-0.5,2.97
			c-0.09,0.38-0.23,0.31-0.23,0.31l-1.55,0.02c0,0,0,0-0.23-0.01c-0.23-0.01-0.09-0.18-0.09-0.18l1.14-3.45c0,0-0.07-0.01,0.11-0.03
			c0.18-0.02,0.93-0.13,1.23-0.18C27.95,135.95,27.83,136.21,27.78,136.54z M28.31,132.54c0,0-0.23,1.47-0.27,1.72
			c-0.03,0.25-0.13,0.22-0.13,0.22s-0.94,0.18-1.12,0.21c-0.18,0.03-0.1-0.17-0.1-0.17l0.43-1.63c0.04-0.75-0.29-1.15-0.29-1.15
			c-0.08-0.17,0.09-0.12,0.14-0.13c0.06-0.02,0.85-0.13,1.02-0.18c0.17-0.06,0.27,0.03,0.27,0.03c0.06,0.05,0.09,0.13,0.09,0.13
			L28.31,132.54z"/>
	</g>
	<path class="st1" d="M16.3,149.9c-0.6-0.09-1.19-0.22-1.24-0.22c-0.33,0-0.35,0.15-0.35,0.15v0.44c0,0-0.04,0.15,0.35,0.61
		c0.39,0.46,1.68,1.89,2.36,1.98c0.68,0.09,1.03,0.22,1-0.5c0,0,0.16-1.13-0.52-1.86l-0.31-0.46
		C17.58,150.04,16.94,149.99,16.3,149.9z"/>
	<path class="st1" d="M13.34,155.16c0,0-0.16-0.03-0.17,0.13c-0.01,0.16-0.01,0.4-0.01,0.4s-0.01,0.04,0.05,0.14
		c0.05,0.1,0.6,0.93,1.4,1.54c0.81,0.61,0.92,0.61,1.21,0.64c0.29,0.03,0.91,0.15,0.94-0.37c0.03-0.53,0-1.16,0-1.16
		s0.07-0.62-1.03-0.89C14.63,155.31,14.33,155.09,13.34,155.16z"/>
	<path class="st1" d="M18.14,158.81c0,0-0.33-0.06-0.51,0.24c-0.18,0.31-3.63,6.21-3.96,6.17c-0.33-0.04-0.94-0.05-0.94-0.05
		s-0.09,0.02-0.1,0.17c-0.01,0.15,0,0.53,0,0.53s-0.01,0.17,0.16,0.46c0.17,0.29,1.09,1.68,1.38,1.74c0,0,0.25,0.16,0.56,0.15
		c0.3-0.01,0.42,0.06,0.62-0.4c0.2-0.46,3.01-8.09,3.01-8.09s0.06-0.12,0.07-0.36c0.01-0.24,0-0.34,0-0.34
		S18.41,158.82,18.14,158.81z"/>
	<path class="st1" d="M24.07,151.98l-4.7,1.16c0,0-0.12,0.03-0.11,0.17c0.01,0.14-0.07,0.44,0.19,0.59
		c0.25,0.15,0.45,0.28,0.45,0.28s0.12,0.07,0.24,0.08c0.12,0.01,0.52-0.01,0.52-0.01s1.04-0.39,1.59-0.51
		c0.55-0.12,1.08-0.25,1.08-0.25s0.27-0.14,0.19,0.15c-0.04,0.14-0.38,0.86-0.84,1.57c-0.54,0.84-1.26,1.67-1.72,1.74
		c0,0-0.26-0.07-0.76,0.43c0,0-0.22,0.13-0.22,0.55c-0.01,0.42-0.02,0.81-0.02,0.81s0.15,0.78,0.53,0.63c0,0,0.14,0.09,0.9-0.17
		c0.75-0.27,6.18-2.11,6.18-2.11l1.21,1.37c0,0,0.18,0.24,0.53,0.26c0.35,0.02,1.02,0.11,1.09-0.61c0.08-0.72-0.28-2.12-1.12-2.76
		l-2.37-0.96c0,0-0.39-0.06-0.44-0.03c-0.05,0.03-0.17,0.02-0.18,0.3c-0.01,0.28,0,0.52,0.21,0.82l0.31,0.4c0,0,0.11,0.09,0.01,0.12
		c-0.1,0.02-2.93,0.75-2.93,0.75s-0.26,0.08-0.07-0.16c0.19-0.24,1.3-2.05,1.41-2.52c0.11-0.48,0.06-0.94,0.06-0.92
		c0,0.03,1.05-0.24,2.2-0.33c1.13-0.09,3.19-0.19,3.19-0.19s0.62-0.19,0.86-0.38c0.23-0.18,0.18-0.29,0.18-0.29l-0.01-0.48
		c0,0,0.06-0.16-0.61-0.46c-0.67-0.3-1.18-0.54-1.18-0.54s-0.67-0.07-0.83-0.01c-0.08,0.03-0.27,0.1-0.42,0.22
		c-0.18,0.14-0.31,0.3-0.31,0.3l-0.08,0.05l-2.16,0.53c0,0-0.1,0.01-0.09-0.14c0.01-0.14,0.24-1.43,0.12-1.63
		c-0.11-0.2-0.37-0.55-1.33-0.74c0,0-1.19-0.19-1.39-0.1c-0.21,0.1-0.23,0.11-0.26,0.46c-0.03,0.35,0.01,0.48,0.24,0.69
		c0.23,0.21,0.44,0.42,0.44,0.42S24,151.9,24.07,151.98z"/>
	<path class="st1" d="M19.93,160.23c0,0-0.12,0.6,0.3,1.18c0.11,0.16,0.07,0.5-0.01,0.94c-0.24,1.22-1.14,3.31-2.7,5.12
		c0,0-0.06,0.03-0.06,0.27l0.01,0.24c0,0-0.02,0.09,0.07,0.1c0.1,0.01,0.7,0,0.7,0s0.07,0.02,0.46-0.29
		c0.16-0.13,0.76-0.55,1.43-1.3c0.69-0.78,1.46-1.9,1.97-3.24c0.21-0.54,0.43-1.12,0.52-1.74c0,0,0.22-0.63-0.49-1.08
		c-0.72-0.45-1.33-0.48-1.71-0.46C20.04,160,19.94,160.02,19.93,160.23z"/>
	<path class="st1" d="M25.28,159.93l-0.03,7.39c0,0,0.03,0.6-0.37,0.63c-0.4,0.03-0.72,0.31-1.29-0.7c-0.29-0.53-0.35-0.92-0.35-1.2
		c-0.01-0.26,0.02-0.42,0.03-0.51c0,0,0.41-4.59,0.28-4.8c-0.04-0.07-0.09-0.2-0.16-0.35c-0.06-0.11-0.13-0.23-0.17-0.36
		c-0.05-0.19-0.04-0.41-0.02-0.56c0.01-0.11,0.06-0.17,0.12-0.21c0.15-0.12,0.38-0.09,0.38-0.09
		C23.7,159.18,24.89,159.22,25.28,159.93z"/>
	<path class="st1" d="M26.69,159.45c0,0,0.05,0.05,0.13,0.14c0.07,0.07,0.19,0.17,0.26,0.36c0.08,0.25,0.12,0.64,0.12,1.23
		c0,1.63-0.03,4.35-0.03,4.35s-0.35,2.6,2.63,2.95c1.44,0.17,2.19,0.15,2.69,0.14c0.53-0.01,0.76-0.01,1.18-0.09
		c0.81-0.15,1.08-0.38,1.14-0.47c0.06-0.09,0.18-0.81-0.21-1.42c0,0-0.13-0.4-0.26-0.93c-0.15-0.59-0.26-1.36-0.38-1.77
		c-0.02-0.08-0.1-0.1-0.14-0.1c-0.03-0.01-0.35-0.01-0.35-0.01s-0.16-0.05-0.22,0.26c-0.03,0.15-0.15,0.69-0.28,1.17
		c-0.13,0.48-0.27,0.89-0.27,0.89s-0.06,0.19-0.23,0.36c-0.09,0.1-0.22,0.19-0.37,0.24c-0.09,0.03-0.2,0.06-0.31,0.06
		c-0.57,0.01-1.33,0.01-1.67-0.03c-0.18-0.03-0.5-0.03-0.79-0.22c-0.14-0.08-0.28-0.19-0.37-0.38c-0.1-0.21-0.15-0.54-0.15-0.94
		c-0.02-1.51-0.02-1.52-0.02-1.52l0.47-2.99c0,0,0.35-1.15-0.62-1.6c-0.97-0.45-0.98-0.51-1.73-0.47c0,0-0.25-0.03-0.28,0.25
		C26.6,159.25,26.64,159.4,26.69,159.45z"/>
</g>
</svg>
