<svg xmlns="http://www.w3.org/2000/svg" xml:space="preserve" id="Laag_1" x="0" y="0" style="enable-background:new 0 0 500 500" version="1.1" viewBox="0 0 500 500">
  <style>
    .st2{fill:#fff}
  </style>
  <circle cx="250" cy="250" r="218.22"/>
  <path d="M441.44 250c0 105.57-85.87 191.44-191.44 191.44S58.56 355.57 58.56 250 144.43 58.56 250 58.56 441.44 144.43 441.44 250zM250 5C114.88 5 5 114.88 5 250s109.88 245 245 245 245-109.88 245-245S385.12 5 250 5z" style="stroke:#d31245;stroke-width:3"/>
  <path d="M192.29 148.89c0 8.93-5.23 13.23-14 13.23-8.93 0-14-4.31-14-13.23v-20.47h7.23v20.47c0 3.54.92 7.08 6.77 7.08 5.23 0 6.77-2.31 6.77-7.08v-20.47h7.23v20.47zm5.69-11.39h6.16v3.23h.15c1.69-2.46 4.16-3.85 7.23-3.85 3.08 0 5.69 1.08 6.93 4 1.39-2.15 3.85-4 7.23-4 5.08 0 8.77 2.31 8.77 8.62v16.01h-6.62v-13.54c0-3.23-.31-5.85-4-5.85s-4.46 3.08-4.46 6v13.23h-6.62v-13.39c0-2.77.15-6-4-6-1.23 0-4.46.77-4.46 5.54v13.85h-6.62V137.5h.31zm48.33-3.69h-6.62v-5.39h6.62v5.39zm-6.47 3.69h6.62v23.85h-6.62V137.5zm25.24-9.08h17.85c5.85 0 9.7 4.16 9.7 9.08 0 3.85-1.54 6.77-5.23 8.31v.15c3.54.92 4.62 4.46 4.77 7.69.15 2 .15 6 1.39 7.85h-7.39c-.92-2.15-.77-5.23-1.23-7.85-.46-3.39-1.85-4.92-5.54-4.92h-7.08v12.93h-7.23v-33.24zm7.23 14.93h8c3.23 0 4.92-1.39 4.92-4.77 0-3.23-1.69-4.62-4.92-4.62h-8v9.39zm37.09 20.93c-1.39 3.85-3.69 5.39-8.16 5.39-1.39 0-2.62-.15-4-.31v-5.39c1.23.15 2.62.31 3.85.31 2.31-.31 3.08-2.62 2.31-4.46l-8.46-22.47h7.08l5.39 16.31h.15l5.23-16.31h6.77l-10.16 26.93zm34.63-2.92h-6.16v-3.39h-.15c-1.69 2.62-4.46 4-7.23 4-6.93 0-8.77-3.85-8.77-9.85V137.5h6.62v13.54c0 3.85 1.23 5.85 4.16 5.85 3.54 0 5.08-2 5.08-6.77v-12.47h6.62v23.7h-.17z" style="fill:#fff;stroke:#fff"/>
  <path d="M150.43 364.65h13.08v3.23h-9.23v3.69h8.46v3.08h-8.46v4.31h9.54v3.23h-13.39v-17.54zm15.7 4.93h3.39v2.31c.62-1.54 2.31-2.77 4-2.77.31 0 .62 0 .77.15v3.23c-.31 0-.77-.15-1.23-.15-2.62 0-3.39 1.85-3.39 4.16v5.69h-3.54v-12.62zm10 0h3.39v1.85c.92-1.39 2.46-2.15 3.85-2.15 3.69 0 4.62 2.15 4.62 5.23v7.85h-3.39v-7.23c0-2.15-.62-3.08-2.31-3.08-1.85 0-2.77 1.08-2.77 3.69v6.62h-3.54v-12.77h.15zm17.24 8.61c0 1.54 1.23 2.15 2.62 2.15 1.08 0 2.31-.46 2.31-1.69 0-1.08-1.39-1.39-4-2-2-.46-4-1.23-4-3.39 0-3.23 2.77-4.16 5.54-4.16s5.39.92 5.54 4h-3.39c-.15-1.39-1.08-1.69-2.46-1.69-.77 0-2 .15-2 1.23 0 1.23 2 1.39 4 1.85 2 .46 4 1.23 4 3.54 0 3.39-2.92 4.46-5.85 4.46s-5.85-1.08-6-4.46h3.69v.16zm14.92-8.61h2.62v2.31h-2.62v6.31c0 1.23.31 1.54 1.54 1.54.31 0 .77 0 1.08-.15v2.77c-.62.15-1.39.15-2 .15-2.15 0-4-.46-4-3.08v-7.54h-2.15v-2.31h2.15v-3.85h3.54v3.85h-.16zm18.16 12.77h-3.85l-4.31-12.77h3.69l2.62 8.62 2.62-8.62h3.54l-4.31 12.77zm5.7-8.93c.15-3.23 3.08-4.31 6-4.31 2.46 0 5.54.62 5.54 3.69v6.62c0 1.23.15 2.31.46 2.77h-3.54c-.15-.46-.15-.77-.31-1.23-1.08 1.23-2.77 1.54-4.31 1.54-2.46 0-4.31-1.23-4.31-3.85 0-2.92 2.15-3.54 4.31-3.85 2.15-.31 4.16-.31 4.16-1.69 0-1.54-1.08-1.69-2.31-1.69-1.39 0-2.15.62-2.31 1.85h-3.39v.15zm8 2.62c-.62.46-1.85.62-2.92.77-1.08.15-2 .62-2 1.85s1.08 1.69 2.15 1.69c2.77 0 2.77-2.15 2.77-2.92v-1.39zm6.16-6.46h3.39v1.85c.92-1.39 2.46-2.15 3.85-2.15 3.69 0 4.62 2.15 4.62 5.23v7.85h-3.54v-7.23c0-2.15-.62-3.08-2.31-3.08-1.85 0-2.77 1.08-2.77 3.69v6.62H246v-12.77h.31zm30.62 11.08c-.92 1.39-2.31 2-3.85 2-3.85 0-5.69-3.23-5.69-6.77 0-3.39 1.85-6.62 5.69-6.62 1.54 0 2.92.62 3.69 1.85v-6.46h3.54v17.54h-3.39v-1.54zm-3.08-8.78c-2.31 0-3.08 2-3.08 4s.92 4.16 3.08 4.16c2.31 0 3.08-2 3.08-4.16-.15-2.15-.77-4-3.08-4zm11.85 4.93c.15 2.15 1.23 3.23 3.08 3.23 1.39 0 2.46-.92 2.77-1.69h3.08c-.92 3.08-3.08 4.31-6 4.31-4 0-6.46-2.77-6.46-6.77 0-3.85 2.62-6.77 6.46-6.77 4.31 0 6.46 3.69 6.16 7.54h-9.08v.15zm5.7-2.31c-.31-1.85-1.08-2.77-2.77-2.77-2.15 0-2.92 1.69-2.92 2.77h5.69zm5.54-4.92h3.39v2.31c.62-1.54 2.31-2.77 4-2.77.31 0 .62 0 .77.15v3.23c-.31 0-.77-.15-1.23-.15-2.62 0-3.39 1.85-3.39 4.16v5.69h-3.54v-12.62zm15.7 9.69 9.39-11.23h-8.62v-3.39h13.85v3.08l-9.39 11.23h9.7v3.23H312.8v-2.92h-.16zm19.54-2.46c.15 2.15 1.23 3.23 3.08 3.23 1.39 0 2.46-.92 2.77-1.69h3.08c-.92 3.08-3.08 4.31-6 4.31-4 0-6.46-2.77-6.46-6.77 0-3.85 2.62-6.77 6.46-6.77 4.31 0 6.46 3.69 6.16 7.54h-9.08v.15zm5.69-2.31c-.31-1.85-1.08-2.77-2.77-2.77-2.15 0-2.92 1.69-2.92 2.77h5.69zm8.47 2.31c.15 2.15 1.23 3.23 3.08 3.23 1.39 0 2.46-.92 2.77-1.69h3.08c-.92 3.08-3.08 4.31-6 4.31-4 0-6.46-2.77-6.46-6.77 0-3.85 2.62-6.77 6.46-6.77 4.31 0 6.46 3.69 6.16 7.54h-9.08v.15zm5.69-2.31c-.31-1.85-1.08-2.77-2.77-2.77-2.15 0-2.92 1.69-2.92 2.77h5.69zm99.73-168.05v1.08s3.54 3.39 4.92 3.54c1.39.15 2.46.31 2.31-1.23 0-1.39-.62-2.15-1.08-2.77-.46-.62-1.08-.62-1.69-.62h-2.31c-1.54-.16-2.15-.16-2.15 0zm2.46 9.39c1.85 1.54 2 3.23 1.85 3.85 0 .62-.46.77-2.31.77s-4-3.85-4-3.85v-1.08l4.46.31zm12.31-10.78h-2.31l-.31.31v1.08l.62.46v.31c0 .31-.77 2.92-2.15 5.54-1.23 2.62-2.15 4-2.62 4.62v1.23h1.08s1.54-1.23 4.31-4.46c0 0 2.46-.15 3.85-.62 0 0 3.85-.77 4.31-.77h.46l4.16-.62s2.92 0 2.92-1.08c0-1.23.15-1.54-2-2.46-2.15-.92-3.08 0-3.08 0s-.77.92-1.08.92c-.46.15-1.08.31-2 .62l-4.92 1.54s-.62.31-.15-.31c.46-.62 1.85-2.92 1.85-2.92v-.46c0-.46.15-.92-.46-1.69-1.25-.78-1.25-1.08-2.48-1.24zm-7.08 17.09z" class="st2"/>
  <path d="M485.46 221.99c-.62-.62-1.85-.92-2.15-1.08-.31-.15-1.08-.31-2.15-.31-1.08 0-1.23.31-1.23.31-.77.62-1.08.46-1.08.46-.31.15-.15-.31-.15-.31l.46-3.08s.31-1.54.31-2.31c-.15-.77-2.62-1.54-2.62-1.54h-1.23s-1.54.62-2.46.77c-.92.31-4.77 1.08-5.08 1.08-.31.15-.77.46-1.39 0-.62-.31-1.08-.31-1.08-.31-.77-.15-.92.46-.92.46v.92l.31.62s-.31 1.39-.62 2.92c-.46 1.69-1.08 3.54-1.08 3.69-.15.15-3.85.62-4 .62-.15 0 0-.15 0-.15l.46-1.54v-1.08h-.62c-.77 0-.77.46-.77.46l-6.77 10.62c-.15.62-.92.15-1.23.15-.31 0-.46.15-.46.31 0 .15 0 .62.15 1.23.31.92.92 1.85 2.15 2.62 2.15 1.23 2.46-.15 2.46-.15s.92-2.62 1.85-5.08c1.08-2.62 2.15-5.23 2.15-5.39 0-.15.15 0 .15 0l.77.62h.77c.15 0 1.23-.15 1.69-.31.62-.31.31.46.31.46s-.46.77-1.23 2.62c-.15.31-.31.62-.46.92-.15.31-.15.31-.31.46-.15.62-.15 1.08-.15 1.08s0 1.39.15 1.69c.31.46.77.46 1.08.46h.92c1.54-1.08 2.62-.92 2.62-.92h3.39c1.39 0 2.62.15 2.92.15.46 0 .92.15 1.39.15.31 0 .31.15.31.15s0 .31-.77 1.39c-.77 1.23-1.54.77-2.77.46s-1.85-.31-2.31-.31c-.46 0-.46.31-.46.31v.77c0 .15.15.15.15.15s1.23.77 2.62 1.69c.77.62 2.92 2.92 3.08 2.92 0 0 .62.15 1.08 0 .62-.15 1.08-1.39 1.69-2.46.46-1.08 1.54-4.31 1.69-4.46 0-.31.31-.15.31-.15l3.08.92c1.54.46 2.15.46 2.77.31.46 0 .46-.77.46-1.23v-.77c0-.15-.62-.77-1.54-1.39-.92-.77-1.85-.92-1.85-.92h-2.46c-.15 0-.15-.15-.15-.15l1.08-6.31v-.15h.15c.92 0 4.92-.15 6.16-.15 1.39 0 1.54-.46 1.54-.46-.62-.6-.47-1.83-1.08-2.45zm-17.39 4s0 .31-.15.62-.62 2.15-.62 2.46c-.15.31-.62 1.85-.77 2.31-.15.31-.31.31-.31.31h-1.85c-.46 0-.31-.31-.31-.31.46-1.08 2-5.23 2-5.23.15-.15.15 0 .31 0s.92-.15 1.23-.31c.78-.16.47.15.47.15zm1.54-6.61s-.77 3.54-.77 3.85c0 .31-.15.31-.15.31s-1.08.15-1.39.31c-.31 0-.15-.31-.15-.31s.15-.62.46-1.85c.31-1.23.46-3.08.46-3.08 1.23-.31 1.08-.15 1.39-.31.15 0 .15 1.08.15 1.08zm4.77 6.46c-.15.62-.77 4.46-.92 5.08-.15.62-.46.46-.46.46h-3.08c-.46 0-.15-.31-.15-.31l2-6h.15c.31 0 1.54-.15 2.15-.31.46 0 .31.46.31 1.08zm.92-6.93s-.46 2.46-.46 2.92c0 .46-.15.31-.15.31s-1.69.31-2 .31c-.31 0-.15-.31-.15-.31l.77-2.77c0-1.23-.46-2-.46-2-.15-.31.15-.15.31-.15s1.54-.15 1.69-.31c.31-.15.46 0 .46 0l.15.15-.16 1.85zm-20.77 30.01c-1.08-.15-2-.46-2.15-.46-.62 0-.62.31-.62.31v.77s0 .31.62 1.08 2.92 3.23 4.16 3.39c1.23.15 1.85.31 1.69-.92 0 0 .31-2-.92-3.23l-.62-.77c-.01.14-1.09-.01-2.16-.17zm-5.08 9.08s-.31 0-.31.31v.62l.15.31c.15.15 1.08 1.54 2.46 2.62 1.39 1.08 1.54 1.08 2.15 1.08.46 0 1.54.31 1.69-.62v-2s.15-1.08-1.85-1.54c-2.14-.47-2.6-.93-4.29-.78zm8.15 6.31s-.62-.15-.92.46c-.31.46-6.31 10.77-6.77 10.62-.62 0-1.69-.15-1.69-.15s-.15 0-.15.31v.92s0 .31.31.77 1.85 2.92 2.46 3.08c0 0 .46.31.92.31s.77.15 1.08-.62c.31-.77 5.23-14 5.23-14s.15-.15.15-.62v-.62s-.15-.46-.62-.46zm10.31-11.85-8.16 2s-.15 0-.15.31-.15.77.31 1.08c.46.31.77.46.77.46s.15.15.46.15h.92s1.85-.62 2.77-.92c.92-.15 1.85-.46 1.85-.46s.46-.31.31.31c0 .31-.62 1.54-1.39 2.77-.92 1.39-2.15 2.92-2.92 2.92 0 0-.46-.15-1.39.77 0 0-.31.15-.46.92v1.39s.31 1.39.92 1.08c0 0 .31.15 1.54-.31 1.23-.46 10.62-3.69 10.62-3.69l2.15 2.31s.31.46.92.46 1.69.15 1.85-1.08c.15-1.23-.46-3.69-2-4.77l-4.16-1.69s-.62-.15-.77 0c-.15 0-.31 0-.31.46s0 .92.31 1.39l.46.62s.15.15 0 .15-5.08 1.23-5.08 1.23-.46.15-.15-.31c.31-.46 2.31-3.54 2.46-4.31.15-.77.15-1.69.15-1.54 0 0 1.85-.46 3.85-.62s5.54-.31 5.54-.31 1.08-.31 1.54-.62c.46-.31.31-.46.31-.46v-.77s.15-.31-1.08-.77c-1.08-.46-2-.92-2-.92s-1.08-.15-1.39 0c-.15 0-.46.15-.77.31l-.46.46-.15.15-3.69.92s-.15 0-.15-.31.46-2.46.15-2.77c-.15-.31-.62-.92-2.31-1.23 0 0-2-.31-2.46-.15-.31.15-.46.15-.46.77s0 .77.46 1.23c.46.31.77.77.77.77s.32 2.47.47 2.62zm-7.23 14.31s-.15 1.08.46 2c.15.31.15.92 0 1.69-.46 2.15-2 5.69-4.62 8.77 0 0-.15 0-.15.46v.46s0 .15.15.15h1.23s.15 0 .77-.46c.31-.15 1.23-.92 2.46-2.31 1.23-1.39 2.46-3.23 3.39-5.54.31-.92.77-2 .92-3.08 0 0 .31-1.08-.92-1.85s-2.31-.77-2.92-.77c-.46.02-.61.18-.77.48zm9.39-.46v12.77s0 1.08-.62 1.08-1.23.62-2.31-1.23c-.46-.92-.62-1.54-.62-2v-.92s.77-7.85.46-8.31c0-.15-.15-.31-.31-.62-.15-.15-.15-.46-.31-.62-.15-.31 0-.77 0-.92s.15-.31.15-.31c.31-.15.62-.15.62-.15.17-.15 2.17 0 2.94 1.23z" class="st2"/>
  <path d="M472.38 265.39s.15.15.15.31c.15.15.31.31.46.62.15.46.15 1.08.15 2.15v7.54s-.62 4.46 4.62 5.08c2.46.31 3.85.31 4.62.31.92 0 1.39 0 2-.15 1.39-.31 1.85-.62 2-.77.15-.15.31-1.39-.31-2.46 0 0-.15-.77-.46-1.54-.31-1.08-.46-2.31-.62-3.08 0-.15-.15-.15-.31-.15h-.62s-.31-.15-.31.46c0 .31-.31 1.23-.46 2-.15.77-.46 1.54-.46 1.54s-.15.31-.46.62c-.15.15-.46.31-.62.46-.15 0-.31.15-.46.15h-2.92c-.31 0-.92 0-1.39-.31-.31-.15-.46-.31-.62-.62-.15-.31-.31-.92-.31-1.69v-2.62l.77-5.23s.62-2-1.08-2.77c-1.69-.77-1.69-.92-2.92-.77 0 0-.46 0-.46.46-.14.15.02.46.02.46z" class="st2"/>
  <path d="M143.35 64.71c2 3.85 5.85 3.85 9.23 2 2.31-1.23 5.39-3.69 3.85-6.62-1.69-3.08-6.31-1.39-11.23-.31-4.92 1.08-10.16 1.69-13.08-3.69-3.08-6 1.08-11.85 6.31-14.62 6.16-3.23 13.08-3.54 16.62 3.23l-6.16 3.23c-2-3.39-5.08-3.08-8.16-1.39-2 1.08-4 3.23-2.62 5.69 1.23 2.31 2.77 1.85 11.08-.15 2.46-.62 9.7-2.62 13.08 4 2.77 5.39.77 11.54-7.23 15.7-6.46 3.39-14.16 3.39-17.85-3.85l6.16-3.22zm15.7-32.32 6.16-2.15 4.16 11.7h.15c.62-3.08 2.92-5.23 5.23-6.16 6.62-2.31 9.54.77 11.54 6.31l4.92 13.85-6.16 2.15-4.62-12.62c-1.39-3.69-3.08-5.08-6-4.16-3.39 1.23-4.16 3.54-2.46 8.16l4.16 11.85-6.16 2.15-10.92-31.08zm36.78-6-6.31 1.54-1.39-5.23 6.31-1.54 1.39 5.23zm-5.39 5.23 6.31-1.54 5.85 23.08-6.31 1.54-5.85-23.08zm12.31-12.46 6.46-.92 1.85 11.85h.15c1.23-2.62 4-4.16 6.93-4.62 4.77-.77 10.31 2.31 11.7 10.93s-3.23 13.23-7.85 14c-3.54.46-6.46-.15-8.31-2.46h-.15l.46 3.08-6.16.92-5.08-32.78zm13.7 11.39c-3.85.62-4.92 4.46-4.31 8.46.62 4 2.77 7.23 6.62 6.62 3.85-.62 4.92-4.46 4.31-8.31-.46-4-2.77-7.39-6.62-6.77zM258 47.32l-6.16.15v-3.39h-.15c-1.54 2.77-4.46 4-7.23 4.16-6.93.15-8.77-3.69-8.93-9.7l-.31-14.62 6.62-.15.31 13.54c0 3.85 1.23 5.85 4.31 5.85 3.54 0 5.08-2.15 4.92-6.93l-.31-12.47 6.62-.15.31 23.71zm35.09 1.39c-2 2.31-4.92 2.92-7.85 2.31-7.08-1.23-9.54-8-8.31-14.47 1.08-6.31 5.69-11.54 12.62-10.31 2.77.46 5.23 2.15 6.31 4.77h.15l2.15-11.85 6.46 1.08-5.69 32.47-6.16-1.08.32-2.92zm-2.77-17.24c-4.16-.77-6.31 2.62-7.08 6.46-.62 3.69.31 7.85 4.31 8.62 4.31.77 6.16-2.77 6.93-6.62.76-3.84 0-7.84-4.16-8.46zm31.86 2.77c7.23 2.31 10.31 8.62 7.85 15.85-2.31 7.23-8.46 10.46-15.7 8.16-7.08-2.31-10.16-8.46-7.85-15.7 2.46-7.39 8.46-10.62 15.7-8.31zm-6.31 19.24c4.31 1.39 6.77-1.85 7.85-5.54 1.23-3.69 1.08-7.69-3.23-9.08-4.16-1.39-6.62 1.85-7.85 5.54-1.08 3.69-.93 7.69 3.23 9.08zm10.15 10.92c.31.31.77.46 1.23.77 1.23.46 2.46.77 3.23-.92l9.85-22.62 6 2.62-10 22.93c-2 4.46-4.46 5.85-10.62 3.23-.62-.31-1.23-.62-1.85-1.08l2.16-4.93zm21.86-23.54-6-2.62 2.15-4.92 6 2.62-2.15 4.92zm16.31 11.69c6.62 3.69 8.31 10.46 4.62 17.08-3.69 6.62-10.31 8.62-16.93 4.92-6.46-3.69-8.31-10.31-4.62-16.93 3.69-6.76 10.31-8.76 16.93-5.07zm-10 17.55c3.85 2.15 6.93-.46 8.77-3.85 1.85-3.39 2.62-7.39-1.39-9.54-3.85-2.15-6.93.46-8.77 3.85-1.69 3.38-2.46 7.38 1.39 9.54zM140.58 442.83c-2.15 3.69-6.77 8.93-15.24 4-4.77-2.77-7.85-8.16-4.16-14.31l1.54-2.46 5.69 3.39-.77 1.23c-1.69 2.77-2.15 5.08.77 6.93 3.23 2 4.92-.62 6-2.62l11.39-19.08 6.16 3.69-11.38 19.23zm28.01-2.62c6.93 2.77 9.54 9.23 6.62 16.31-2.92 7.08-9.23 9.85-16.16 6.93-6.93-2.77-9.54-9.23-6.62-16.31 2.77-6.93 9.23-9.7 16.16-6.93zm-7.69 18.78c4.16 1.69 6.77-1.39 8.31-4.92 1.39-3.54 1.69-7.54-2.46-9.23-4.16-1.69-6.77 1.39-8.31 4.92-1.39 3.53-1.55 7.54 2.46 9.23zm30.31-19.39 6.31 1.54-2.92 12.16h.15c2.31-2.15 5.39-2.77 7.69-2.31 6.77 1.54 7.54 5.85 6.16 11.54l-3.39 14.31-6.31-1.54 3.08-13.08c.92-3.85.15-6-2.77-6.62-3.39-.77-5.39.77-6.46 5.54l-2.92 12.16-6.31-1.54 7.69-32.16zm30.17 15.7 6.16.46-.31 3.39h.15c1.85-2.46 4.77-3.54 7.54-3.39 6.93.62 8.31 4.62 7.85 10.46l-1.23 14.62-6.46-.46 1.08-13.39c.31-3.85-.62-6-3.69-6.16-3.54-.31-5.23 1.54-5.54 6.46l-1.08 12.47-6.46-.46 1.99-24zm60.48 12.46c.77 4.31 4.31 5.39 8.16 4.77 2.46-.46 6.16-1.85 5.69-5.08-.62-3.54-5.54-3.23-10.62-3.69-5.08-.46-10.16-1.54-11.23-7.54-1.08-6.62 4.62-10.93 10.46-11.85 6.77-1.08 13.54.77 14.77 8.31l-6.93 1.23c-.92-3.85-3.85-4.46-7.23-3.85-2.31.31-4.77 1.85-4.31 4.46.46 2.46 2 2.62 10.46 3.23 2.46.15 10 .46 11.23 7.85 1.08 6-2.92 11.23-11.7 12.77-7.23 1.23-14.47-1.23-15.85-9.23l7.1-1.38zm26.77-18 5.85-2.15 1.08 3.08h.15c.77-2.92 2.62-5.08 5.54-6.16 2.77-1.08 5.69-.92 7.85 1.23.62-2.46 2.31-5.08 5.39-6.16 4.77-1.69 8.93-.77 11.08 4.92l5.54 14.93-6.16 2.31-4.77-12.62c-1.08-2.92-2.31-5.39-5.85-4-3.39 1.23-3.08 4.31-2 7.23l4.62 12.47-6.16 2.31-4.62-12.62c-.92-2.62-1.85-5.69-5.85-4.16-1.23.46-3.85 2.31-2.31 6.62l4.77 12.93-6.16 2.31-7.99-22.47zm47.56-24.78-5.69 3.23-2.62-4.77 5.69-3.23 2.62 4.77zm-3.85 6.46 5.69-3.23 11.54 20.93-5.69 3.23-11.54-20.93zm22.93-14.16 4-2.77 2.46 3.54-4 2.77 6.77 9.7c1.23 1.85 2 2 3.85.77.62-.46 1.08-.77 1.54-1.23l2.92 4.16c-.77.77-2 1.69-3.08 2.31-3.23 2.31-6.77 3.54-9.39-.46l-8-11.39-3.23 2.31-2.46-3.54 3.23-2.31-4-5.85 5.39-3.69 4 5.68z" style="fill:#d31245;stroke:#d31245"/>
  <path d="m135.81 268.31 8.62-5.84 6.46-5.08 5.08-3.54 4.62-2.93 5.38-3.54 7.54-2.15 5.24-1.08 5.08.46 6-.77 4.92.62 7.85-.92 6.16-1.39 6.61-2.61 6.01-.77 3.69-2.77 3.23-2.93 7.08-2.31 5.85-1.23 5.08-1.23 7.23-2.15 5.69-1.85 4.62.46 3.54 4.62 1.85 4.31 2.61 4 2.16 6.15 2.15 6.47 3.08 6.92 3.39 10.16 2 6.77-.47 5.85-1.23 4.77-4 .15-3.54-7.69-1.38-10-2.62-5.39-3.54-10.46-2.15-8.32-3.23-6.15-6.62-3.23-5.7-.31-8.92 2-5.23 2.15-3.39 3.08 6.77-1.07 7.23-2.62 5.85-.77 6 2.62 2.93 5.07 1.08 6.78 2.77 8.61 1.84 4 4 7.85 1.39 4.77.77 6.78-1.08 4.61-4 2.31-5.69 1.69-5.39 2.16-5.85 1.84-5.39-1.84-3.53-4.93-3.24-3.38-1.84-8.62 6.15-1.69 4 1.38 4.77 5.85 3.24-1.39-1.23-4.46-1.39-3.54 2.77-6.46-5.69 3.85-7.85-1.39-4-7.23-.77 5.85h-.77v.61l.46.46.31.62.3.77.47.31-4.01.77-4-2.16 1.85 8.93-5.39 3.69-10.46 4.62-4 5.08-5.39 5.07-6.46 1.39-6 2.15-5.08-1.07-5.08-5.7-4.31-2.61-5.39-.62-8.31 5.39-4.77 4.77-5.38 5.54-4.93 4.46-4.15 3.69-4.62 5.54-1.23 5.08 6.77-5.69 5.39-5.54 5.84-4.31 8.16-6.77 6.46-5.39 4.31-2.46 2.62 1.08.62 3.84-3.85 4.01-4 5.07-4 4.62-3.54 4-3.54 4.62-3.7 7.23-1.84 3.54-3.85 5.85-3.08 4.62-9.08-10.01-4.15-7.23-6.47-12-4-10.78-2.77-8.46-2.92-11.7-.62-3.54-.31-5.38 2-.77 5.08-.31z" style="fill-rule:evenodd;clip-rule:evenodd;fill:#fff;stroke:#000;stroke-width:.216;stroke-miterlimit:2.4142"/>
  <path d="m267.85 218.3 4.31 6.77 2.46 6.92 4.77 6.78 3.54 8.31 3.54 7.08 4.77 8 4.93 5.69 5.08 4.77 5.08 2.46 5.69.31 4.77 10.78 3.85 12.31 3.69 12.92 3.23 9.7 4.31 9.69 4 7.55 2.77 4.3 8.31-8.92 7.54-8.62 5.08-10.16 5.08-12.46 2.77-11.24-.61-6.15-8.62-9.24-5.54-5.38-4.31-6.47-3.54-4-6.16-7.54-8.92-10.77-6.16-9.39-8.62-11.85-7.85-9.08-6.92-5.69-8.62-5.39-4-4.77-7.85-6-4-3.69-6.77-3.24-9.7.77-4.31 2.47-13.38 6-11.85 4-5.24 2.62-8 3.07-7.39 3.54-5.69 3.08-6.16 2.62-4.61 2.15-6 3.39-7.7 5.23-4.46 2.77-5.23 4-3.54 3.23 2.15 3.23 3.54-3.23 9.08-5.69 6.16-3.69 8.15-5.7 2.16-2.15 4.77-2.93 4.61-1.69 5.08-2.15 3.54-1.08 6.47-2.62 5.07-2.46 3.54-2.16 6.16-1.84 7.23-1.39 6.47-2.92 3.54-1.85 5.84-.61-2.92 4.31-7.54 2.77-7.54 3.23-8 1.07-4.31 1.85-5.39 2.93-7.54 2.92-5.39 1.69-6.77 3.7-4.31 2.77-7.23 4-6.16 4.31-5.54 2.92-3.38 3.23-2.93.31.77 5.08 3.24 2.92 5.69-2.15 2.92-2.62 2.16-4.31 7.85-3.54 6.46-2.92 5.39-3.54 5.54-2.15 3.84-2.93 5.08-1.38 3.23-2.93 4.01-1.84 6-1.7 6.92-1.84 7.24-3.7 3.84.77-2.15 3.23-7.85 3.24-9.08 4.3-7.08 3.24-6.15 1.07-6.78 3.24-5.54 2.92-4.92 4.31-8 3.69-3.85 1.69-.77 4.01 4.77 1.38 7.85-.31 4.62-3.23 4.3-2.92 5.39.46 4-1.08 3.23-3.69 7.54-2.46h4.62l5.54-1.54 7.08-2.47 6.16-2.46 3.54-2.61z" style="fill-rule:evenodd;clip-rule:evenodd;fill:#fff;stroke:#2f2b27;stroke-width:.216;stroke-miterlimit:2.4142"/>
  <path d="M17.77 206.45v1.08s3.54 3.39 4.92 3.54c1.39.15 2.46.31 2.31-1.23 0-1.39-.62-2.15-1.08-2.77-.46-.62-1.08-.62-1.69-.62h-2.31c-1.53-.16-2.15-.16-2.15 0zm2.47 9.39c1.85 1.54 2 3.23 1.85 3.85 0 .62-.46.77-2.31.77s-4-3.69-4-3.69v-1.08l4.46.15zm12.31-10.78h-2.31l-.31.31v1.08l.62.46v.31c0 .31-.77 2.92-2.15 5.54-1.23 2.62-2.15 4-2.62 4.62v1.23h1.08s1.54-1.23 4.31-4.46c0 0 2.46-.15 3.85-.62 0 0 3.85-.77 4.31-.77h.46l4.16-.62s2.92 0 2.92-1.08c0-1.23.15-1.54-2-2.46-2.15-.92-3.08 0-3.08 0s-.77.92-1.08.92c-.46.15-1.08.31-2 .62l-4.92 1.54s-.62.31-.15-.31c.46-.62 1.85-2.92 1.85-2.92v-.46c0-.46.15-.92-.46-1.69-1.25-.78-1.25-1.08-2.48-1.24zm-7.08 17.09z" class="st2"/>
  <path d="M51.48 221.99c-.62-.62-1.85-.92-2.15-1.08-.31-.15-1.08-.31-2.15-.31-1.08 0-1.23.31-1.23.31-.77.62-1.08.46-1.08.46-.31.15-.15-.31-.15-.31l.46-3.08s.31-1.54.31-2.31c-.15-.77-2.62-1.54-2.62-1.54h-1.23s-1.54.62-2.46.77c-.92.31-4.77 1.08-5.08 1.08-.31.15-.77.46-1.39 0-.62-.31-1.08-.31-1.08-.31-.77-.15-.92.46-.92.46v.92l.31.62s-.31 1.39-.62 2.92c-.46 1.69-1.08 3.54-1.08 3.69-.15.15-3.85.62-4 .62-.15 0 0-.15 0-.15l.46-1.54v-1.08h-.62c-.77 0-.77.46-.77.46l-6.77 10.62c-.15.62-.92.15-1.23.15s-.46.15-.46.31c0 .15 0 .62.15 1.23.31.92.92 1.85 2.15 2.62 2.15 1.23 2.46-.15 2.46-.15s.92-2.62 1.85-5.08c1.08-2.62 2.15-5.23 2.15-5.39 0-.15.15 0 .15 0l.77.62h.77c.15 0 1.23-.15 1.69-.31.62-.31.31.46.31.46s-.46.77-1.23 2.62c-.15.31-.31.62-.46.92s-.15.31-.31.46c-.15.62-.15 1.08-.15 1.08s0 1.39.15 1.69c.31.46.77.46 1.08.46h.92c1.54-1.08 2.62-.92 2.62-.92h3.39c1.39 0 2.62.15 2.92.15.46 0 .92.15 1.39.15.31 0 .31.15.31.15s0 .31-.77 1.39c-.77 1.23-1.54.77-2.77.46-1.23-.28-1.85-.28-2.31-.28-.46 0-.46.31-.46.31v.77c0 .15.15.15.15.15s1.23.77 2.62 1.69c.77.62 2.92 2.92 3.08 2.92 0 0 .62.15 1.08 0 .62-.15 1.08-1.39 1.69-2.46.46-1.08 1.54-4.31 1.69-4.46 0-.31.31-.15.31-.15l3.08.92c1.54.46 2.15.46 2.77.31.46 0 .46-.77.46-1.23V234c0-.15-.62-.77-1.54-1.39-.92-.77-1.85-.92-1.85-.92h-2.46c-.15 0-.15-.15-.15-.15l1.08-6.31v-.15h.15c.92 0 4.92-.15 6.16-.15 1.39 0 1.54-.46 1.54-.46-.62-.63-.47-1.86-1.08-2.48zm-17.39 4s0 .31-.15.62-.62 2.15-.62 2.46c-.15.31-.62 1.85-.77 2.31-.15.31-.31.31-.31.31h-1.85c-.46 0-.31-.31-.31-.31.46-1.08 2-5.23 2-5.23.15-.15.15 0 .31 0 .15 0 .92-.15 1.23-.31.77-.16.47.15.47.15zm1.53-6.61s-.77 3.54-.77 3.85c0 .31-.15.31-.15.31s-1.08.15-1.39.31c-.31 0-.15-.31-.15-.31s.15-.62.46-1.85c.31-1.23.46-3.08.46-3.08 1.23-.31 1.08-.15 1.39-.31.15 0 .15 1.08.15 1.08zm4.62 6.46c-.15.62-.77 4.46-.92 5.08s-.46.46-.46.46h-3.08c-.46 0-.15-.31-.15-.31l2-6h.15c.31 0 1.54-.15 2.15-.31.62 0 .47.46.31 1.08zm.93-6.93s-.46 2.46-.46 2.92c0 .46-.15.31-.15.31s-1.69.31-2 .31c-.31 0-.15-.31-.15-.31l.77-2.77c0-1.23-.46-2-.46-2-.15-.31.15-.15.31-.15.15 0 1.54-.15 1.69-.31.31-.15.46 0 .46 0l.15.15-.16 1.85zm-20.63 30.01c-1.08-.15-2-.46-2.15-.46-.62 0-.62.31-.62.31v.77s0 .31.62 1.08 2.92 3.23 4.16 3.39c1.23.15 1.85.31 1.69-.92 0 0 .31-2-.92-3.23l-.62-.77c0 .14-1.08-.01-2.16-.17zM15.31 258s-.31 0-.31.31v.62l.15.31c.15.15 1.08 1.54 2.46 2.62 1.39 1.08 1.54 1.08 2.15 1.08.46 0 1.54.31 1.69-.62v-2s.15-1.08-1.85-1.54c-1.98-.47-2.6-.93-4.29-.78zm8.31 6.31s-.62-.15-.92.46c-.31.46-6.31 10.77-6.77 10.62-.62 0-1.69-.15-1.69-.15s-.15 0-.15.31v.92s0 .31.31.77 1.85 2.92 2.46 3.08c0 0 .46.31.92.31s.77.15 1.08-.62c.31-.77 5.23-14 5.23-14s.15-.15.15-.62v-.62s-.16-.46-.62-.46zm10.31-11.85-8.16 2s-.15 0-.15.31-.15.77.31 1.08c.46.31.77.46.77.46s.15.15.46.15h.92s1.85-.62 2.77-.92c.92-.15 1.85-.46 1.85-.46s.46-.31.31.31c0 .31-.62 1.54-1.39 2.77-.92 1.39-2.15 2.92-2.92 2.92 0 0-.46-.15-1.39.77 0 0-.31.15-.46.92v1.39s.31 1.39.92 1.08c0 0 .31.15 1.54-.31 1.23-.46 10.62-3.69 10.62-3.69l2.15 2.31s.31.46.92.46c.62 0 1.69.15 1.85-1.08.15-1.23-.46-3.69-2-4.77l-4.16-1.69s-.62-.15-.77 0c-.15 0-.31 0-.31.46s0 .92.31 1.39l.46.62s.15.15 0 .15-5.08 1.23-5.08 1.23-.46.15-.15-.31c.31-.46 2.31-3.54 2.46-4.31.15-.77.15-1.69.15-1.54 0 0 1.85-.46 3.85-.62s5.54-.31 5.54-.31 1.08-.31 1.54-.62c.46-.31.31-.46.31-.46v-.77s.15-.31-1.08-.77c-1.08-.46-2-.92-2-.92s-1.08-.15-1.39 0c-.15 0-.46.15-.77.31l-.46.46-.15.15-3.69.92s-.15 0-.15-.31.46-2.46.15-2.77c-.15-.31-.62-.92-2.31-1.23 0 0-2-.31-2.46-.15-.31.15-.46.15-.46.77s0 .77.46 1.23c.46.31.77.77.77.77s.32 2.47.47 2.62zm-7.23 14.31s-.15 1.08.46 2c.15.31.15.92 0 1.69-.46 2.15-2 5.69-4.62 8.77 0 0-.15 0-.15.46v.46s0 .15.15.15h1.23s.15 0 .77-.46c.31-.15 1.23-.92 2.46-2.31 1.23-1.39 2.46-3.23 3.39-5.54.31-.92.77-2 .92-3.08 0 0 .31-1.08-.92-1.85s-2.31-.77-2.92-.77c-.46.02-.62.18-.77.48zm9.23-.46v12.77s0 1.08-.62 1.08-1.23.62-2.31-1.23c-.46-.92-.62-1.54-.62-2v-.92s.77-7.85.46-8.31c0-.15-.15-.31-.31-.62-.15-.15-.15-.46-.31-.62-.15-.31 0-.77 0-.92s.15-.31.15-.31c.31-.15.62-.15.62-.15.33-.15 2.33 0 2.94 1.23z" class="st2"/>
  <path d="M38.4 265.39s.15.15.15.31c.15.15.31.31.46.62.15.46.15 1.08.15 2.15v7.54s-.62 4.46 4.62 5.08c2.46.31 3.85.31 4.62.31.92 0 1.39 0 2-.15 1.39-.31 1.85-.62 2-.77.15-.15.31-1.39-.31-2.46 0 0-.15-.77-.46-1.54-.31-1.08-.46-2.31-.62-3.08 0-.15-.15-.15-.31-.15h-.62s-.31-.15-.31.46c0 .31-.31 1.23-.46 2s-.46 1.54-.46 1.54-.15.31-.46.62c-.15.15-.46.31-.62.46-.15 0-.31.15-.46.15h-2.92c-.31 0-.92 0-1.39-.31-.31-.15-.46-.31-.62-.62-.15-.31-.31-.92-.31-1.69v-2.62l.77-5.23s.62-2-1.08-2.77c-1.69-.77-1.69-.92-2.92-.77 0 0-.46 0-.46.46-.14.15.02.46.02.46zm178.51 145.74c0 2.31 1.85 3.23 3.85 3.23 1.39 0 3.39-.46 3.39-2.15 0-1.85-2.62-2.15-5.23-2.92-2.62-.62-5.23-1.69-5.23-4.92 0-3.54 3.39-5.39 6.62-5.39 3.69 0 7.08 1.54 7.08 5.69h-3.69c-.15-2.15-1.69-2.62-3.54-2.62-1.23 0-2.62.46-2.62 2 0 1.39.77 1.54 5.23 2.62 1.23.31 5.23 1.08 5.23 5.08 0 3.23-2.46 5.69-7.39 5.69-3.85 0-7.54-1.85-7.54-6.31h3.84zm13.08-11.85h3.54v6.62c.92-1.39 2.46-2.15 3.69-2.15 3.69 0 4.62 2.15 4.62 5.23v7.85h-3.39v-7.23c0-2.15-.62-3.08-2.31-3.08-1.85 0-2.77 1.08-2.77 3.69v6.62h-3.54v-17.54h.16zm18.16 2.92h-3.54v-2.92h3.54v2.92zm-3.54 2h3.54v12.77h-3.54V404.2zm6.31-4.92h3.54v6.62c.92-1.39 2.46-2.15 3.69-2.15 3.69 0 4.62 2.15 4.62 5.23v7.85h-3.54v-7.23c0-2.15-.62-3.08-2.31-3.08-1.85 0-2.77 1.08-2.77 3.69v6.62h-3.54v-17.54h.31zm14.47 8.77c.15-3.23 3.08-4.31 6-4.31 2.46 0 5.54.62 5.54 3.69v6.62c0 1.23.15 2.31.46 2.77h-3.54c-.15-.46-.15-.77-.31-1.23-1.08 1.23-2.77 1.54-4.31 1.54-2.46 0-4.31-1.23-4.31-3.85 0-2.92 2.15-3.54 4.31-3.85s4.16-.31 4.16-1.69c0-1.54-1.08-1.69-2.31-1.69-1.39 0-2.15.62-2.31 1.85h-3.39v.15zm8 2.62c-.62.46-1.85.62-2.92.77-1.08.15-2 .62-2 1.85s1.08 1.69 2.15 1.69c2.77 0 2.77-2.15 2.77-2.92v-1.39zm6.31-6.47h3.39v1.85c.92-1.39 2.46-2.15 3.85-2.15 3.69 0 4.62 2.15 4.62 5.23v7.85h-3.54v-7.23c0-2.15-.62-3.08-2.31-3.08-1.85 0-2.77 1.08-2.77 3.69v6.62h-3.54V404.2h.3z" class="st2"/>
</svg>