<?xml version="1.0" encoding="utf-8"?>
<!-- Generator: Adobe Illustrator 26.3.1, SVG Export Plug-In . SVG Version: 6.00 Build 0)  -->
<svg version="1.1" id="Mon" xmlns="http://www.w3.org/2000/svg" xmlns:xlink="http://www.w3.org/1999/xlink" x="0px" y="0px"
	 viewBox="0 0 350 350" style="enable-background:new 0 0 350 350;" xml:space="preserve">
<style type="text/css">
	.st0{stroke:#D0043C;stroke-width:3;}
	.st1{fill:#FFFFFF;stroke:#FFFFFF;}
	.st2{fill:#FFFFFF;}
	.st3{fill:#D0043C;stroke:#D0043C;}
	.st4{fill-rule:evenodd;clip-rule:evenodd;fill:#FFFFFF;stroke:#000000;stroke-width:0.216;stroke-miterlimit:2.4142;}
	.st5{fill-rule:evenodd;clip-rule:evenodd;fill:#FFFFFF;stroke:#362E28;stroke-width:0.216;stroke-miterlimit:2.4142;}
</style>
<g>
	<ellipse transform="matrix(0.7071 -0.7071 0.7071 0.7071 -73.2136 175.4967)" cx="175.24" cy="176.12" rx="152.03" ry="152.03"/>
	<path class="st0" d="M308.65,176.12c0,73.57-59.85,133.42-133.42,133.42S41.82,249.69,41.82,176.12S101.67,42.71,175.24,42.71
		S308.65,102.56,308.65,176.12z M175.24,5.47C81.14,5.47,4.59,82.03,4.59,176.12s76.55,170.65,170.65,170.65
		s170.65-76.55,170.65-170.65S269.33,5.47,175.24,5.47z"/>
</g>
<g>
	<path class="st1" d="M130.52,112.61c-1.74,1.51-4.14,2.27-7.2,2.27c-3.11,0-5.52-0.75-7.22-2.25c-1.71-1.5-2.56-3.82-2.56-6.95
		V91.4h5.05v14.28c0,0.62,0.05,1.23,0.16,1.83c0.11,0.6,0.33,1.13,0.68,1.59c0.34,0.46,0.82,0.84,1.43,1.13
		c0.61,0.29,1.43,0.43,2.46,0.43c1.8,0,3.04-0.4,3.73-1.21c0.69-0.8,1.03-2.06,1.03-3.78V91.4h5.05v14.28
		C133.13,108.79,132.26,111.1,130.52,112.61z"/>
	<path class="st1" d="M141.42,97.74v2.25h0.06c0.6-0.86,1.32-1.52,2.17-1.99c0.85-0.47,1.82-0.71,2.91-0.71
		c1.05,0,2.01,0.2,2.88,0.61s1.53,1.13,1.98,2.15c0.49-0.73,1.16-1.37,2.01-1.93c0.85-0.56,1.85-0.84,3.01-0.84
		c0.88,0,1.69,0.11,2.44,0.32c0.75,0.21,1.39,0.56,1.93,1.03c0.54,0.47,0.95,1.09,1.25,1.85c0.3,0.76,0.45,1.68,0.45,2.75v11.13
		h-4.57v-9.42c0-0.56-0.02-1.08-0.06-1.58c-0.04-0.49-0.16-0.92-0.35-1.29c-0.19-0.36-0.48-0.65-0.85-0.87
		c-0.38-0.21-0.88-0.32-1.53-0.32c-0.64,0-1.16,0.12-1.56,0.37c-0.4,0.25-0.71,0.57-0.93,0.96c-0.23,0.4-0.38,0.85-0.45,1.35
		c-0.08,0.5-0.11,1.01-0.11,1.53v9.26h-4.57v-9.33c0-0.49-0.01-0.98-0.03-1.46c-0.02-0.48-0.11-0.93-0.27-1.33
		c-0.16-0.41-0.43-0.73-0.8-0.98c-0.38-0.25-0.93-0.37-1.66-0.37c-0.21,0-0.5,0.05-0.85,0.14c-0.35,0.1-0.7,0.28-1.03,0.55
		c-0.33,0.27-0.62,0.65-0.85,1.16c-0.24,0.5-0.35,1.16-0.35,1.98v9.65h-4.57V97.74H141.42z"/>
	<path class="st1" d="M166.25,95.16V91.4h4.57v3.76H166.25z M170.82,97.74v16.63h-4.57V97.74H170.82z"/>
	<path class="st1" d="M196.23,91.4c1.03,0,1.96,0.17,2.78,0.5c0.83,0.33,1.53,0.79,2.12,1.37c0.59,0.58,1.04,1.25,1.35,2.01
		c0.31,0.76,0.47,1.58,0.47,2.46c0,1.35-0.28,2.52-0.85,3.51c-0.57,0.99-1.5,1.74-2.78,2.25v0.06c0.62,0.17,1.14,0.43,1.54,0.79
		c0.41,0.35,0.74,0.77,1,1.25c0.26,0.48,0.44,1.01,0.56,1.59c0.12,0.58,0.2,1.16,0.24,1.74c0.02,0.36,0.04,0.79,0.06,1.29
		c0.02,0.49,0.06,1,0.11,1.51c0.05,0.51,0.14,1,0.26,1.46c0.12,0.46,0.29,0.85,0.53,1.17h-5.05c-0.28-0.73-0.45-1.6-0.52-2.61
		c-0.06-1.01-0.16-1.97-0.29-2.89c-0.17-1.2-0.54-2.08-1.09-2.64c-0.56-0.56-1.47-0.84-2.73-0.84h-5.05v8.97h-5.05V91.4H196.23z
		 M194.43,101.79c1.16,0,2.03-0.26,2.6-0.77c0.58-0.51,0.87-1.35,0.87-2.51c0-1.11-0.29-1.92-0.87-2.43
		c-0.58-0.5-1.45-0.76-2.6-0.76h-5.53v6.46H194.43z"/>
	<path class="st1" d="M212.73,119.32c-0.88,0.58-2.1,0.87-3.67,0.87c-0.47,0-0.94-0.02-1.4-0.05c-0.46-0.03-0.93-0.07-1.4-0.11
		v-3.76c0.43,0.04,0.87,0.09,1.32,0.13c0.45,0.04,0.9,0.05,1.35,0.03c0.6-0.06,1.04-0.3,1.33-0.71c0.29-0.41,0.43-0.86,0.43-1.35
		c0-0.36-0.06-0.71-0.19-1.03l-5.82-15.6h4.86l3.76,11.39h0.06l3.63-11.39h4.73l-6.95,18.69
		C214.29,117.77,213.61,118.74,212.73,119.32z"/>
	<path class="st1" d="M234.54,114.36v-2.32h-0.1c-0.58,0.97-1.33,1.66-2.25,2.09c-0.92,0.43-1.87,0.64-2.83,0.64
		c-1.22,0-2.22-0.16-3.01-0.48c-0.78-0.32-1.4-0.78-1.85-1.37c-0.45-0.59-0.77-1.31-0.95-2.16c-0.18-0.85-0.27-1.78-0.27-2.81V97.74
		h4.57v9.39c0,1.37,0.21,2.4,0.64,3.07c0.43,0.68,1.19,1.01,2.28,1.01c1.24,0,2.14-0.37,2.7-1.11c0.56-0.74,0.84-1.96,0.84-3.65
		v-8.72h4.57v16.63H234.54z"/>
</g>
<g>
	<path class="st2" d="M113.93,256.03v2.26h-6.47v2.62h5.93v2.09h-5.93v3h6.6v2.26h-9.3v-12.25H113.93z"/>
	<path class="st2" d="M117.94,259.41v1.65h0.03c0.11-0.28,0.27-0.53,0.46-0.76c0.19-0.23,0.42-0.43,0.67-0.6
		c0.25-0.17,0.52-0.29,0.81-0.39c0.29-0.09,0.58-0.14,0.89-0.14c0.16,0,0.34,0.03,0.53,0.09v2.26c-0.11-0.02-0.25-0.04-0.41-0.06
		c-0.16-0.02-0.31-0.03-0.46-0.03c-0.45,0-0.82,0.07-1.13,0.22c-0.31,0.15-0.56,0.35-0.75,0.61c-0.19,0.26-0.32,0.56-0.4,0.9
		c-0.08,0.34-0.12,0.71-0.12,1.12v4h-2.44v-8.87H117.94z"/>
	<path class="st2" d="M124.92,259.41v1.24h0.05c0.31-0.52,0.71-0.89,1.2-1.12s1-0.35,1.51-0.35c0.65,0,1.19,0.09,1.6,0.27
		c0.42,0.18,0.75,0.42,0.99,0.74c0.24,0.32,0.41,0.7,0.51,1.15c0.1,0.45,0.15,0.95,0.15,1.5v5.45h-2.44v-5.01
		c0-0.73-0.11-1.28-0.34-1.64c-0.23-0.36-0.64-0.54-1.22-0.54c-0.66,0-1.14,0.2-1.44,0.59c-0.3,0.4-0.45,1.04-0.45,1.95v4.65h-2.44
		v-8.87H124.92z"/>
	<path class="st2" d="M134.83,266.07c0.11,0.19,0.25,0.34,0.42,0.46c0.17,0.12,0.37,0.21,0.59,0.27c0.22,0.06,0.45,0.09,0.69,0.09
		c0.17,0,0.35-0.02,0.54-0.06c0.19-0.04,0.36-0.1,0.51-0.19c0.15-0.09,0.28-0.2,0.39-0.34c0.1-0.14,0.15-0.32,0.15-0.54
		c0-0.37-0.24-0.64-0.73-0.82c-0.49-0.18-1.16-0.37-2.03-0.55c-0.35-0.08-0.7-0.18-1.04-0.28c-0.34-0.11-0.64-0.25-0.9-0.43
		c-0.26-0.18-0.47-0.4-0.63-0.67c-0.16-0.27-0.24-0.6-0.24-0.99c0-0.57,0.11-1.04,0.33-1.41s0.52-0.65,0.88-0.87
		c0.37-0.21,0.78-0.36,1.23-0.45c0.46-0.09,0.93-0.13,1.41-0.13c0.48,0,0.95,0.05,1.4,0.14c0.45,0.09,0.85,0.24,1.21,0.46
		s0.65,0.51,0.88,0.87c0.23,0.36,0.37,0.81,0.42,1.36h-2.32c-0.03-0.47-0.21-0.79-0.53-0.95c-0.32-0.17-0.7-0.25-1.13-0.25
		c-0.14,0-0.29,0.01-0.45,0.03c-0.16,0.02-0.31,0.05-0.44,0.11c-0.13,0.06-0.24,0.14-0.33,0.25c-0.09,0.11-0.14,0.25-0.14,0.44
		c0,0.22,0.08,0.39,0.24,0.53c0.16,0.14,0.37,0.25,0.63,0.33c0.26,0.09,0.55,0.16,0.88,0.23c0.33,0.07,0.67,0.14,1.01,0.22
		c0.35,0.08,0.7,0.18,1.04,0.29c0.34,0.11,0.64,0.27,0.9,0.45c0.26,0.19,0.47,0.42,0.63,0.7c0.16,0.28,0.24,0.63,0.24,1.04
		c0,0.58-0.12,1.07-0.35,1.47c-0.23,0.39-0.54,0.71-0.92,0.95c-0.38,0.24-0.81,0.41-1.3,0.51c-0.49,0.1-0.98,0.15-1.48,0.15
		c-0.51,0-1.02-0.05-1.51-0.15c-0.49-0.1-0.93-0.27-1.31-0.52c-0.38-0.24-0.7-0.56-0.94-0.95c-0.25-0.4-0.38-0.89-0.4-1.48h2.32
		C134.66,265.66,134.72,265.88,134.83,266.07z"/>
	<path class="st2" d="M146.86,259.41v1.63h-1.78v4.39c0,0.41,0.07,0.69,0.21,0.83c0.14,0.14,0.41,0.21,0.82,0.21
		c0.14,0,0.27-0.01,0.39-0.02c0.13-0.01,0.25-0.03,0.36-0.05v1.89c-0.21,0.04-0.44,0.06-0.69,0.07c-0.25,0.01-0.5,0.02-0.74,0.02
		c-0.38,0-0.73-0.03-1.07-0.08c-0.34-0.05-0.63-0.15-0.89-0.3c-0.26-0.15-0.46-0.36-0.61-0.63c-0.15-0.27-0.22-0.63-0.22-1.08v-5.23
		h-1.48v-1.63h1.48v-2.66h2.44v2.66H146.86z"/>
	<path class="st2" d="M154.99,268.28l-3.04-8.87h2.56l1.87,6.06h0.03l1.87-6.06h2.42l-3,8.87H154.99z"/>
	<path class="st2" d="M161.61,262.14c0.03-0.57,0.18-1.05,0.43-1.42c0.25-0.38,0.57-0.68,0.96-0.91c0.39-0.23,0.83-0.39,1.31-0.49
		c0.49-0.1,0.97-0.15,1.47-0.15c0.45,0,0.9,0.03,1.36,0.09c0.46,0.06,0.87,0.19,1.25,0.37s0.69,0.44,0.93,0.76
		c0.24,0.33,0.36,0.76,0.36,1.29v4.62c0,0.4,0.02,0.78,0.07,1.15c0.05,0.37,0.13,0.64,0.24,0.82h-2.47
		c-0.05-0.14-0.08-0.28-0.11-0.42c-0.03-0.14-0.05-0.29-0.06-0.44c-0.39,0.4-0.85,0.68-1.37,0.84c-0.53,0.16-1.06,0.24-1.61,0.24
		c-0.42,0-0.82-0.05-1.18-0.15c-0.37-0.1-0.69-0.26-0.96-0.48c-0.27-0.22-0.49-0.49-0.64-0.83c-0.15-0.33-0.23-0.72-0.23-1.18
		c0-0.5,0.09-0.92,0.27-1.24c0.18-0.32,0.41-0.59,0.69-0.78c0.28-0.19,0.6-0.34,0.96-0.44c0.36-0.1,0.72-0.18,1.09-0.23
		c0.37-0.06,0.73-0.1,1.08-0.14c0.35-0.03,0.67-0.08,0.94-0.15c0.27-0.07,0.49-0.17,0.65-0.3c0.16-0.13,0.23-0.32,0.22-0.57
		c0-0.26-0.04-0.47-0.13-0.63c-0.09-0.15-0.2-0.27-0.34-0.36c-0.14-0.09-0.31-0.14-0.5-0.17c-0.19-0.03-0.39-0.04-0.61-0.04
		c-0.48,0-0.86,0.1-1.13,0.31c-0.27,0.21-0.43,0.55-0.48,1.03H161.61z M167.24,263.94c-0.1,0.09-0.23,0.16-0.39,0.21
		c-0.15,0.05-0.32,0.09-0.5,0.13c-0.18,0.03-0.36,0.06-0.56,0.08c-0.19,0.02-0.39,0.05-0.58,0.09c-0.18,0.04-0.36,0.08-0.54,0.14
		c-0.18,0.06-0.33,0.13-0.46,0.23c-0.13,0.1-0.24,0.22-0.32,0.37c-0.08,0.15-0.12,0.34-0.12,0.57c0,0.22,0.04,0.4,0.12,0.55
		s0.19,0.27,0.33,0.35c0.14,0.09,0.3,0.15,0.48,0.18c0.18,0.04,0.37,0.05,0.57,0.05c0.48,0,0.85-0.08,1.12-0.24
		c0.26-0.16,0.46-0.35,0.58-0.57c0.13-0.22,0.2-0.45,0.23-0.68c0.03-0.23,0.04-0.41,0.04-0.55V263.94z"/>
	<path class="st2" d="M173.88,259.41v1.24h0.05c0.31-0.52,0.71-0.89,1.2-1.12c0.49-0.23,1-0.35,1.51-0.35c0.65,0,1.19,0.09,1.6,0.27
		c0.42,0.18,0.75,0.42,0.99,0.74c0.24,0.32,0.41,0.7,0.51,1.15c0.1,0.45,0.15,0.95,0.15,1.5v5.45h-2.44v-5.01
		c0-0.73-0.11-1.28-0.34-1.64c-0.23-0.36-0.64-0.54-1.22-0.54c-0.66,0-1.14,0.2-1.44,0.59c-0.3,0.4-0.45,1.04-0.45,1.95v4.65h-2.44
		v-8.87H173.88z"/>
	<path class="st2" d="M192.8,267.14c-0.29,0.48-0.66,0.83-1.12,1.04c-0.46,0.21-0.99,0.32-1.57,0.32c-0.66,0-1.25-0.13-1.75-0.39
		c-0.5-0.26-0.92-0.61-1.24-1.04c-0.33-0.44-0.57-0.95-0.74-1.52c-0.17-0.57-0.25-1.17-0.25-1.78c0-0.59,0.08-1.17,0.25-1.73
		c0.17-0.55,0.41-1.04,0.74-1.47c0.33-0.42,0.73-0.76,1.23-1.02c0.49-0.26,1.06-0.39,1.71-0.39c0.53,0,1.03,0.11,1.5,0.34
		c0.47,0.22,0.85,0.55,1.12,0.99h0.03v-4.46h2.44v12.25h-2.32v-1.13H192.8z M192.69,262.76c-0.07-0.34-0.19-0.64-0.35-0.89
		c-0.17-0.26-0.38-0.47-0.64-0.63c-0.26-0.16-0.59-0.24-0.99-0.24c-0.4,0-0.74,0.08-1.01,0.24s-0.5,0.37-0.66,0.64
		c-0.17,0.26-0.29,0.56-0.36,0.9c-0.07,0.34-0.11,0.69-0.11,1.06c0,0.34,0.04,0.68,0.12,1.03c0.08,0.34,0.21,0.65,0.39,0.92
		c0.18,0.27,0.4,0.49,0.67,0.65c0.27,0.17,0.59,0.25,0.97,0.25c0.4,0,0.73-0.08,1-0.24c0.27-0.16,0.48-0.37,0.64-0.64
		c0.16-0.27,0.28-0.58,0.34-0.92c0.07-0.34,0.1-0.7,0.1-1.06C192.8,263.45,192.76,263.1,192.69,262.76z"/>
	<path class="st2" d="M199.59,266.15c0.37,0.36,0.89,0.53,1.58,0.53c0.49,0,0.91-0.12,1.27-0.37c0.35-0.24,0.57-0.5,0.65-0.78h2.14
		c-0.34,1.06-0.87,1.82-1.58,2.28c-0.71,0.46-1.57,0.69-2.57,0.69c-0.7,0-1.33-0.11-1.89-0.34c-0.56-0.22-1.04-0.54-1.42-0.95
		c-0.39-0.41-0.69-0.9-0.9-1.47c-0.21-0.57-0.32-1.2-0.32-1.89c0-0.66,0.11-1.28,0.33-1.85c0.22-0.57,0.53-1.07,0.93-1.48
		c0.4-0.42,0.88-0.75,1.43-0.99c0.55-0.24,1.17-0.36,1.84-0.36c0.75,0,1.41,0.15,1.97,0.44c0.56,0.29,1.02,0.68,1.38,1.17
		c0.36,0.49,0.62,1.05,0.78,1.68c0.16,0.63,0.22,1.29,0.17,1.97h-6.4C199.02,265.22,199.22,265.79,199.59,266.15z M202.34,261.48
		c-0.29-0.32-0.73-0.48-1.33-0.48c-0.39,0-0.71,0.06-0.97,0.2c-0.26,0.13-0.46,0.3-0.62,0.49c-0.15,0.19-0.26,0.4-0.33,0.62
		c-0.06,0.22-0.1,0.41-0.11,0.58h3.96C202.84,262.27,202.63,261.8,202.34,261.48z"/>
	<path class="st2" d="M209.14,259.41v1.65h0.03c0.11-0.28,0.27-0.53,0.46-0.76c0.19-0.23,0.42-0.43,0.67-0.6
		c0.25-0.17,0.52-0.29,0.81-0.39c0.29-0.09,0.58-0.14,0.89-0.14c0.16,0,0.34,0.03,0.53,0.09v2.26c-0.11-0.02-0.25-0.04-0.41-0.06
		s-0.31-0.03-0.46-0.03c-0.45,0-0.82,0.07-1.13,0.22c-0.31,0.15-0.56,0.35-0.75,0.61c-0.19,0.26-0.32,0.56-0.4,0.9
		c-0.08,0.34-0.12,0.71-0.12,1.12v4h-2.44v-8.87H209.14z"/>
	<path class="st2" d="M224.31,258.29h-6.06v-2.26h9.64v2.13l-6.57,7.86h6.74v2.26h-10.33v-2.13L224.31,258.29z"/>
	<path class="st2" d="M231.99,266.15c0.37,0.36,0.89,0.53,1.58,0.53c0.49,0,0.91-0.12,1.27-0.37c0.35-0.24,0.57-0.5,0.65-0.78h2.14
		c-0.34,1.06-0.87,1.82-1.58,2.28c-0.71,0.46-1.57,0.69-2.57,0.69c-0.7,0-1.33-0.11-1.89-0.34c-0.56-0.22-1.04-0.54-1.42-0.95
		c-0.39-0.41-0.69-0.9-0.9-1.47c-0.21-0.57-0.32-1.2-0.32-1.89c0-0.66,0.11-1.28,0.33-1.85c0.22-0.57,0.53-1.07,0.93-1.48
		c0.4-0.42,0.88-0.75,1.43-0.99c0.55-0.24,1.17-0.36,1.84-0.36c0.75,0,1.41,0.15,1.97,0.44c0.56,0.29,1.02,0.68,1.38,1.17
		c0.36,0.49,0.62,1.05,0.78,1.68c0.16,0.63,0.22,1.29,0.17,1.97h-6.4C231.43,265.22,231.63,265.79,231.99,266.15z M234.75,261.48
		c-0.29-0.32-0.73-0.48-1.33-0.48c-0.39,0-0.71,0.06-0.97,0.2c-0.26,0.13-0.46,0.3-0.62,0.49c-0.15,0.19-0.26,0.4-0.33,0.62
		c-0.06,0.22-0.1,0.41-0.11,0.58h3.96C235.24,262.27,235.04,261.8,234.75,261.48z"/>
	<path class="st2" d="M241.84,266.15c0.37,0.36,0.89,0.53,1.58,0.53c0.49,0,0.92-0.12,1.27-0.37c0.35-0.24,0.57-0.5,0.65-0.78h2.14
		c-0.34,1.06-0.87,1.82-1.58,2.28c-0.71,0.46-1.57,0.69-2.57,0.69c-0.7,0-1.33-0.11-1.89-0.34c-0.56-0.22-1.04-0.54-1.42-0.95
		c-0.39-0.41-0.69-0.9-0.9-1.47s-0.32-1.2-0.32-1.89c0-0.66,0.11-1.28,0.33-1.85c0.22-0.57,0.53-1.07,0.93-1.48
		c0.4-0.42,0.88-0.75,1.43-0.99c0.55-0.24,1.17-0.36,1.84-0.36c0.75,0,1.41,0.15,1.97,0.44c0.56,0.29,1.02,0.68,1.38,1.17
		c0.36,0.49,0.62,1.05,0.78,1.68c0.16,0.63,0.22,1.29,0.17,1.97h-6.4C241.27,265.22,241.47,265.79,241.84,266.15z M244.59,261.48
		c-0.29-0.32-0.73-0.48-1.33-0.48c-0.39,0-0.71,0.06-0.97,0.2c-0.26,0.13-0.46,0.3-0.62,0.49c-0.15,0.19-0.26,0.4-0.33,0.62
		c-0.06,0.22-0.1,0.41-0.11,0.58h3.96C245.09,262.27,244.88,261.8,244.59,261.48z"/>
	<path class="st2" d="M151.15,285.84c0.15,0.29,0.35,0.52,0.59,0.7c0.25,0.18,0.53,0.31,0.87,0.39c0.33,0.09,0.67,0.13,1.03,0.13
		c0.24,0,0.5-0.02,0.77-0.06c0.27-0.04,0.53-0.12,0.77-0.23c0.24-0.11,0.44-0.27,0.6-0.47c0.16-0.2,0.24-0.45,0.24-0.76
		c0-0.33-0.11-0.6-0.32-0.81c-0.21-0.21-0.49-0.38-0.83-0.51c-0.34-0.14-0.73-0.26-1.17-0.36c-0.44-0.1-0.88-0.22-1.32-0.34
		c-0.46-0.12-0.9-0.26-1.34-0.42c-0.44-0.17-0.82-0.38-1.17-0.64c-0.34-0.26-0.62-0.59-0.83-0.99c-0.21-0.4-0.32-0.87-0.32-1.43
		c0-0.63,0.13-1.17,0.4-1.64c0.27-0.46,0.62-0.85,1.05-1.16c0.43-0.31,0.93-0.54,1.48-0.69c0.55-0.15,1.1-0.22,1.65-0.22
		c0.64,0,1.25,0.07,1.84,0.22c0.59,0.14,1.11,0.37,1.57,0.7c0.46,0.32,0.82,0.73,1.09,1.22c0.27,0.5,0.4,1.1,0.4,1.81h-2.61
		c-0.02-0.37-0.1-0.67-0.23-0.91c-0.13-0.24-0.31-0.43-0.52-0.57c-0.22-0.14-0.47-0.23-0.75-0.29c-0.28-0.06-0.59-0.09-0.92-0.09
		c-0.22,0-0.44,0.02-0.65,0.07c-0.22,0.04-0.41,0.13-0.59,0.24c-0.18,0.12-0.32,0.26-0.44,0.43s-0.17,0.39-0.17,0.65
		c0,0.24,0.05,0.44,0.14,0.58c0.09,0.15,0.27,0.28,0.54,0.41c0.27,0.13,0.64,0.25,1.12,0.38c0.47,0.13,1.09,0.28,1.86,0.48
		c0.23,0.05,0.55,0.13,0.95,0.25c0.41,0.12,0.81,0.31,1.21,0.57c0.4,0.26,0.75,0.62,1.04,1.06s0.44,1,0.44,1.69
		c0,0.56-0.11,1.08-0.33,1.56c-0.22,0.48-0.54,0.89-0.97,1.24c-0.43,0.35-0.96,0.62-1.6,0.82c-0.63,0.19-1.37,0.29-2.2,0.29
		c-0.67,0-1.33-0.08-1.96-0.25c-0.63-0.17-1.2-0.43-1.68-0.78c-0.49-0.35-0.87-0.81-1.16-1.35c-0.29-0.55-0.42-1.2-0.41-1.96h2.61
		C150.92,285.21,151,285.56,151.15,285.84z"/>
	<path class="st2" d="M162.4,276.61v4.61h0.05c0.31-0.51,0.7-0.89,1.18-1.12c0.48-0.23,0.95-0.35,1.41-0.35
		c0.65,0,1.19,0.09,1.6,0.27c0.42,0.18,0.75,0.42,0.99,0.74s0.41,0.7,0.51,1.15c0.1,0.45,0.15,0.95,0.15,1.5v5.45h-2.44v-5.01
		c0-0.73-0.11-1.28-0.34-1.64c-0.23-0.36-0.63-0.54-1.22-0.54c-0.66,0-1.14,0.2-1.44,0.59c-0.3,0.39-0.45,1.04-0.45,1.95v4.65h-2.44
		v-12.25H162.4z"/>
	<path class="st2" d="M170.21,278.62v-2.01h2.44v2.01H170.21z M172.64,279.99v8.87h-2.44v-8.87H172.64z"/>
	<path class="st2" d="M177,276.61v4.61h0.05c0.31-0.51,0.7-0.89,1.18-1.12c0.48-0.23,0.95-0.35,1.41-0.35c0.65,0,1.19,0.09,1.6,0.27
		c0.42,0.18,0.75,0.42,0.99,0.74c0.24,0.31,0.41,0.7,0.51,1.15c0.1,0.45,0.15,0.95,0.15,1.5v5.45h-2.44v-5.01
		c0-0.73-0.11-1.28-0.34-1.64c-0.23-0.36-0.64-0.54-1.22-0.54c-0.66,0-1.14,0.2-1.44,0.59c-0.3,0.39-0.45,1.04-0.45,1.95v4.65h-2.44
		v-12.25H177z"/>
	<path class="st2" d="M184.63,282.72c0.03-0.57,0.18-1.05,0.43-1.42c0.25-0.38,0.57-0.68,0.96-0.91c0.39-0.23,0.83-0.39,1.31-0.49
		c0.49-0.1,0.97-0.14,1.47-0.14c0.45,0,0.9,0.03,1.35,0.09c0.46,0.06,0.88,0.19,1.25,0.37c0.38,0.18,0.69,0.44,0.93,0.76
		c0.24,0.32,0.36,0.76,0.36,1.29v4.62c0,0.4,0.02,0.78,0.07,1.15c0.05,0.36,0.13,0.64,0.24,0.82h-2.47
		c-0.05-0.14-0.08-0.28-0.11-0.42c-0.03-0.14-0.05-0.29-0.06-0.44c-0.39,0.4-0.85,0.68-1.37,0.84c-0.53,0.16-1.06,0.24-1.61,0.24
		c-0.42,0-0.82-0.05-1.18-0.15c-0.37-0.1-0.69-0.26-0.96-0.48c-0.27-0.22-0.49-0.49-0.64-0.82c-0.15-0.33-0.23-0.73-0.23-1.18
		c0-0.5,0.09-0.92,0.26-1.24c0.18-0.33,0.41-0.59,0.69-0.78c0.28-0.19,0.6-0.34,0.96-0.44c0.36-0.1,0.72-0.17,1.09-0.23
		c0.37-0.06,0.73-0.1,1.08-0.14c0.35-0.03,0.67-0.09,0.94-0.15c0.27-0.07,0.49-0.17,0.65-0.3c0.16-0.13,0.23-0.32,0.22-0.58
		c0-0.26-0.04-0.47-0.13-0.63c-0.09-0.15-0.2-0.27-0.34-0.36c-0.14-0.09-0.31-0.14-0.5-0.17c-0.19-0.03-0.39-0.04-0.61-0.04
		c-0.48,0-0.86,0.1-1.13,0.31c-0.27,0.21-0.43,0.55-0.48,1.03H184.63z M190.26,284.52c-0.1,0.09-0.23,0.16-0.39,0.22
		c-0.15,0.05-0.32,0.09-0.5,0.13c-0.18,0.03-0.36,0.06-0.56,0.09c-0.19,0.02-0.39,0.05-0.58,0.09c-0.18,0.03-0.36,0.08-0.54,0.14
		c-0.18,0.06-0.33,0.14-0.46,0.23c-0.13,0.1-0.24,0.22-0.32,0.37c-0.08,0.15-0.12,0.34-0.12,0.57c0,0.22,0.04,0.4,0.12,0.55
		c0.08,0.15,0.19,0.27,0.33,0.35c0.14,0.09,0.3,0.14,0.48,0.18c0.18,0.03,0.37,0.05,0.57,0.05c0.48,0,0.85-0.08,1.12-0.24
		c0.26-0.16,0.46-0.35,0.58-0.58c0.13-0.22,0.2-0.45,0.23-0.68c0.03-0.23,0.04-0.41,0.04-0.55V284.52z"/>
	<path class="st2" d="M196.9,279.99v1.24h0.05c0.31-0.51,0.71-0.89,1.2-1.12c0.49-0.23,1-0.35,1.51-0.35c0.65,0,1.19,0.09,1.6,0.27
		c0.42,0.18,0.75,0.42,0.99,0.74c0.24,0.31,0.41,0.7,0.51,1.15c0.1,0.45,0.15,0.95,0.15,1.5v5.45h-2.44v-5.01
		c0-0.73-0.11-1.28-0.34-1.64c-0.23-0.36-0.64-0.54-1.22-0.54c-0.66,0-1.14,0.2-1.44,0.59c-0.3,0.39-0.45,1.04-0.45,1.95v4.65h-2.44
		v-8.87H196.9z"/>
</g>
<g>
	<path class="st2" d="M315.78,145.73l0.03,0.8c0,0,2.43,2.36,3.42,2.46c1,0.1,1.66,0.16,1.63-0.83c-0.03-1-0.43-1.5-0.76-1.9
		c-0.34-0.4-0.77-0.43-1.17-0.43c0,0-0.64,0.05-1.66-0.05C316.27,145.68,315.76,145.68,315.78,145.73z"/>
	<path class="st2" d="M317.51,152.28c1.26,1.11,1.39,2.24,1.33,2.72c-0.05,0.48-0.34,0.54-1.64,0.49c-1.31-0.05-2.78-2.63-2.78-2.63
		v-0.78L317.51,152.28z"/>
	<path class="st2" d="M326.07,144.87l-1.66-0.01l-0.24,0.2l0.02,0.72l0.38,0.33c0,0,0.04,0.03,0,0.22c-0.04,0.2-0.54,2.04-1.46,3.83
		c-0.91,1.78-1.46,2.79-1.86,3.27l-0.01,0.81h0.79c0,0,1.09-0.81,2.95-3.12c0,0,1.74-0.07,2.63-0.45c0,0,2.66-0.5,2.95-0.54
		c0.29-0.04,0.29-0.04,0.29-0.04s2.91-0.38,2.93-0.38c0.03,0,2.05,0.02,2.05-0.79c0-0.81,0.11-1.1-1.44-1.75
		c-1.55-0.65-2.15-0.05-2.17,0c-0.02,0.04-0.54,0.68-0.79,0.68c-0.32,0.14-0.79,0.21-1.43,0.4l-3.48,1.04c0,0-0.46,0.22-0.14-0.22
		c0.33-0.44,1.32-1.99,1.32-1.99s0.05-0.05,0.05-0.33c0-0.28,0.1-0.69-0.36-1.15C326.94,145.16,326.98,144.96,326.07,144.87z"/>
	<g>
		<path class="st2" d="M321.15,156.75L321.15,156.75C321.19,156.75,321.15,156.75,321.15,156.75z"/>
		<path class="st2" d="M339.23,156.64c-0.46-0.42-1.33-0.67-1.54-0.74c-0.21-0.07-0.72-0.26-1.46-0.26
			c-0.74-0.01-0.87,0.24-0.87,0.24c-0.57,0.44-0.74,0.37-0.74,0.37c-0.23,0.16-0.16-0.18-0.16-0.18l0.37-2.17
			c-0.01-0.03,0.26-1.09,0.17-1.57c-0.09-0.48-1.82-1.11-1.82-1.11l-0.85,0.02c0,0-1.05,0.42-1.67,0.59
			c-0.62,0.17-3.27,0.71-3.5,0.77c-0.22,0.06-0.54,0.28-1,0.04c-0.46-0.24-0.72-0.2-0.72-0.2c-0.53-0.13-0.67,0.27-0.67,0.27
			l-0.01,0.68l0.18,0.43c0,0-0.21,0.99-0.48,2.02c-0.31,1.2-0.7,2.47-0.73,2.54c-0.06,0.13-2.68,0.4-2.83,0.38
			c-0.16-0.02-0.05-0.1-0.05-0.1l0.35-1.11l-0.03-0.78c-0.04,0-0.13,0-0.38,0c-0.53,0-0.56,0.27-0.56,0.27l-4.76,7.37
			c-0.16,0.38-0.65,0.11-0.86,0.12c-0.21,0.01-0.33,0.06-0.34,0.25c0,0.08-0.05,0.44,0.08,0.86c0.17,0.6,0.69,1.34,1.51,1.79
			c1.49,0.82,1.68-0.07,1.68-0.07s0.64-1.78,1.34-3.57c0.71-1.81,1.48-3.64,1.5-3.72c0.05-0.15,0.16-0.03,0.16-0.03l0.58,0.39
			c0,0,0.4,0.03,0.5,0.03c0.1,0,0.83-0.07,1.22-0.22c0.38-0.16,0.18,0.28,0.18,0.28s-0.29,0.59-0.89,1.77
			c-0.12,0.24-0.25,0.43-0.33,0.61c-0.07,0.17-0.12,0.2-0.16,0.33c-0.15,0.43-0.14,0.76-0.14,0.76s-0.02,0.99,0.14,1.23
			c0.2,0.28,0.49,0.31,0.76,0.33c0.35,0.02,0.66-0.03,0.66-0.03c1.08-0.77,1.87-0.68,1.87-0.68s1.18-0.01,2.32,0.01
			c0.96,0.02,1.87,0.07,2.01,0.08c0.3,0.02,0.69,0.07,0.91,0.06c0.21-0.01,0.16,0.15,0.16,0.15s0.01,0.16-0.57,1.01
			c-0.58,0.84-1.04,0.58-1.93,0.35c-0.89-0.22-1.33-0.26-1.64-0.25c-0.31,0.01-0.29,0.2-0.29,0.2s-0.01,0.41,0,0.52
			c0.01,0.11,0.08,0.14,0.08,0.14s0.82,0.49,1.87,1.21c0.57,0.39,2.07,2.01,2.1,2.02c0.04,0.01,0.38,0.07,0.79-0.05
			c0.41-0.12,0.77-0.93,1.14-1.66c0.36-0.74,1.08-2.98,1.14-3.15c0.05-0.17,0.17-0.1,0.17-0.1s1.11,0.32,2.18,0.61
			c1.07,0.29,1.53,0.29,1.89,0.24c0.36-0.05,0.32-0.52,0.32-0.88c0-0.35-0.04-0.45-0.05-0.53c-0.01-0.08-0.4-0.49-1.04-1.02
			c-0.64-0.53-1.26-0.63-1.26-0.63s-1.54-0.01-1.7-0.03c-0.16,0-0.15-0.14-0.15-0.14l0.73-4.43l0.03-0.09c0,0,0.02-0.02,0.11-0.02
			c0.62-0.02,3.44-0.11,4.29-0.12c0.96-0.01,1.05-0.29,1.05-0.29C339.55,157.9,339.69,157.06,339.23,156.64z M327.19,159.43
			c0,0-0.03,0.2-0.09,0.46c-0.06,0.26-0.38,1.51-0.43,1.7c-0.06,0.19-0.39,1.31-0.49,1.56c-0.1,0.25-0.18,0.23-0.18,0.23
			s-0.9,0.02-1.26,0.01c-0.36-0.01-0.19-0.21-0.19-0.21c0.36-0.75,1.36-3.66,1.36-3.66c0.07-0.06,0.15-0.05,0.24-0.05
			c0.1,0,0.62-0.08,0.9-0.18C327.33,159.2,327.19,159.43,327.19,159.43z M328.19,154.74c0,0-0.5,2.45-0.52,2.64
			c-0.03,0.19-0.11,0.18-0.11,0.18s-0.79,0.16-1.01,0.18c-0.23,0.02-0.11-0.18-0.11-0.18s0.12-0.48,0.33-1.27
			c0.22-0.82,0.32-2.11,0.32-2.11c0.86-0.19,0.7-0.15,0.93-0.16C328.23,154.01,328.19,154.74,328.19,154.74z M331.5,159.29
			c-0.07,0.4-0.49,3.1-0.6,3.57c-0.11,0.46-0.28,0.37-0.28,0.37l-1.87,0.02c0,0,0,0-0.28-0.01c-0.28-0.01-0.11-0.21-0.11-0.21
			l1.38-4.15c0,0-0.08-0.01,0.13-0.04c0.21-0.03,1.12-0.15,1.48-0.21C331.7,158.59,331.57,158.9,331.5,159.29z M332.14,154.48
			c0,0-0.27,1.76-0.32,2.07c-0.04,0.3-0.15,0.26-0.15,0.26s-1.13,0.22-1.35,0.25c-0.22,0.03-0.12-0.2-0.12-0.2l0.52-1.96
			c0.05-0.91-0.35-1.39-0.35-1.39c-0.09-0.21,0.11-0.14,0.17-0.16c0.07-0.02,1.02-0.15,1.23-0.22c0.2-0.07,0.32,0.04,0.32,0.04
			c0.08,0.06,0.11,0.15,0.11,0.15L332.14,154.48z"/>
	</g>
	<path class="st2" d="M317.69,175.37c-0.72-0.11-1.43-0.27-1.49-0.27c-0.39,0-0.42,0.18-0.42,0.18v0.53c0,0-0.05,0.19,0.42,0.74
		c0.47,0.55,2.02,2.27,2.84,2.39c0.82,0.11,1.24,0.27,1.2-0.6c0,0,0.19-1.36-0.63-2.24l-0.38-0.55
		C319.23,175.54,318.46,175.49,317.69,175.37z"/>
	<path class="st2" d="M314.13,181.7c0,0-0.2-0.04-0.21,0.16c-0.01,0.2-0.01,0.48-0.01,0.48s-0.01,0.05,0.06,0.17
		c0.07,0.12,0.72,1.12,1.69,1.85c0.97,0.73,1.1,0.73,1.46,0.77c0.35,0.03,1.1,0.18,1.13-0.45c0.04-0.63,0-1.39,0-1.39
		s0.09-0.74-1.24-1.08C315.67,181.88,315.31,181.61,314.13,181.7z"/>
	<path class="st2" d="M319.9,186.09c0,0-0.4-0.07-0.62,0.29c-0.22,0.37-4.37,7.47-4.76,7.43c-0.39-0.05-1.13-0.06-1.13-0.06
		s-0.11,0.03-0.12,0.2c-0.01,0.18,0,0.64,0,0.64s-0.01,0.2,0.2,0.56c0.21,0.35,1.31,2.02,1.66,2.1c0,0,0.3,0.2,0.67,0.18
		c0.37-0.02,0.51,0.07,0.75-0.48c0.24-0.55,3.62-9.73,3.62-9.73s0.07-0.15,0.08-0.43c0.01-0.28,0-0.41,0-0.41
		S320.22,186.1,319.9,186.09z"/>
	<path class="st2" d="M327.03,177.88l-5.66,1.39c0,0-0.15,0.04-0.14,0.2c0.01,0.17-0.08,0.53,0.23,0.71
		c0.3,0.18,0.54,0.33,0.54,0.33s0.14,0.08,0.29,0.1c0.15,0.01,0.63-0.01,0.63-0.01s1.25-0.47,1.91-0.61c0.66-0.15,1.3-0.3,1.3-0.3
		s0.32-0.17,0.23,0.18c-0.05,0.16-0.45,1.04-1.01,1.89c-0.65,1.01-1.51,2.01-2.07,2.09c0,0-0.32-0.09-0.92,0.52
		c0,0-0.26,0.16-0.27,0.66c-0.01,0.5-0.03,0.97-0.03,0.97s0.18,0.94,0.64,0.76c0,0,0.17,0.11,1.08-0.21
		c0.91-0.32,7.43-2.54,7.43-2.54l1.46,1.65c0,0,0.21,0.28,0.64,0.31c0.43,0.02,1.23,0.13,1.31-0.74c0.09-0.87-0.33-2.55-1.35-3.32
		l-2.85-1.15c0,0-0.48-0.07-0.53-0.03c-0.06,0.04-0.2,0.02-0.21,0.36c-0.01,0.34-0.01,0.63,0.25,0.98l0.37,0.48
		c0,0,0.13,0.11,0.01,0.14c-0.12,0.03-3.52,0.91-3.52,0.91s-0.31,0.1-0.08-0.19c0.23-0.29,1.57-2.47,1.69-3.04
		c0.13-0.58,0.07-1.14,0.07-1.11c0,0.03,1.26-0.29,2.64-0.4c1.36-0.11,3.83-0.23,3.83-0.23s0.75-0.23,1.04-0.45
		c0.28-0.22,0.21-0.35,0.21-0.35l-0.01-0.58c0,0,0.07-0.19-0.73-0.56c-0.8-0.36-1.43-0.65-1.43-0.65s-0.8-0.09-1-0.01
		c-0.09,0.03-0.33,0.13-0.5,0.26c-0.22,0.16-0.37,0.36-0.37,0.36l-0.1,0.06l-2.59,0.64c0,0-0.12,0.01-0.11-0.17
		c0.01-0.17,0.28-1.71,0.15-1.96c-0.14-0.25-0.45-0.66-1.6-0.89c0,0-1.43-0.23-1.68-0.12c-0.25,0.12-0.27,0.13-0.31,0.55
		c-0.03,0.42,0.01,0.58,0.29,0.83c0.28,0.26,0.52,0.51,0.52,0.51S326.95,177.77,327.03,177.88z"/>
	<path class="st2" d="M322.06,187.8c0,0-0.14,0.72,0.36,1.42c0.13,0.19,0.08,0.6-0.02,1.13c-0.28,1.47-1.37,3.98-3.25,6.16
		c0,0-0.07,0.04-0.07,0.33l0.01,0.29c0,0-0.02,0.11,0.09,0.12c0.12,0.01,0.84,0.01,0.84,0.01s0.09,0.03,0.55-0.35
		c0.19-0.16,0.91-0.66,1.72-1.56c0.83-0.93,1.76-2.29,2.37-3.89c0.25-0.65,0.52-1.35,0.63-2.1c0,0,0.27-0.76-0.59-1.3
		c-0.86-0.54-1.6-0.58-2.05-0.55C322.19,187.52,322.07,187.55,322.06,187.8z"/>
	<path class="st2" d="M328.5,187.45l-0.04,8.89c0,0,0.04,0.72-0.44,0.75c-0.48,0.03-0.87,0.38-1.56-0.84
		c-0.35-0.64-0.42-1.1-0.43-1.44c-0.01-0.31,0.02-0.51,0.03-0.61c0,0,0.49-5.52,0.34-5.78c-0.05-0.09-0.11-0.24-0.2-0.42
		c-0.07-0.13-0.16-0.27-0.2-0.44c-0.06-0.22-0.04-0.49-0.03-0.67c0.01-0.14,0.08-0.2,0.15-0.26c0.18-0.14,0.46-0.11,0.46-0.1
		C326.59,186.54,328.02,186.59,328.5,187.45z"/>
	<path class="st2" d="M330.19,186.87c0,0,0.06,0.06,0.16,0.17c0.08,0.08,0.23,0.2,0.31,0.44c0.1,0.3,0.14,0.78,0.14,1.48
		c0,1.96-0.04,5.23-0.04,5.23s-0.42,3.13,3.17,3.55c1.73,0.2,2.64,0.18,3.23,0.17c0.64-0.01,0.92-0.01,1.42-0.1
		c0.98-0.18,1.3-0.46,1.38-0.56c0.07-0.11,0.21-0.98-0.26-1.71c0,0-0.16-0.48-0.31-1.12c-0.18-0.71-0.31-1.63-0.46-2.12
		c-0.03-0.09-0.13-0.12-0.17-0.12c-0.04-0.01-0.42-0.01-0.42-0.01s-0.19-0.06-0.26,0.31c-0.04,0.19-0.18,0.83-0.34,1.41
		c-0.16,0.57-0.32,1.07-0.32,1.07s-0.08,0.23-0.28,0.43c-0.11,0.12-0.27,0.22-0.45,0.29c-0.11,0.04-0.24,0.07-0.37,0.07
		c-0.68,0.01-1.59,0.01-2.01-0.04c-0.21-0.03-0.6-0.04-0.95-0.26c-0.16-0.1-0.34-0.23-0.45-0.45c-0.13-0.26-0.18-0.65-0.18-1.13
		c-0.02-1.82-0.02-1.83-0.02-1.83l0.56-3.59c0,0,0.42-1.38-0.75-1.92c-1.16-0.54-1.18-0.61-2.08-0.56c0,0-0.3-0.04-0.34,0.31
		C330.08,186.63,330.13,186.81,330.19,186.87z"/>
</g>
<g>
	<path class="st3" d="M76.86,44.62l5.44,7.81l1.92-12.94l5.17-3.6l-2.18,12.57l16.02,5.78l-5.2,3.62l-11.57-4.52l-0.7,4.06
		l4.23,6.07l-4.14,2.89L72.71,47.51L76.86,44.62z"/>
	<path class="st3" d="M98.69,43.9c-0.43-0.98-0.59-1.9-0.49-2.74c0.1-0.84,0.38-1.62,0.83-2.34c0.46-0.71,1.05-1.36,1.78-1.93
		c0.73-0.57,1.51-1.07,2.33-1.49c0.75-0.38,1.53-0.71,2.35-0.99c0.82-0.28,1.62-0.43,2.41-0.45c0.79-0.01,1.52,0.15,2.2,0.49
		c0.68,0.34,1.25,0.96,1.7,1.86l3.92,7.71c0.34,0.67,0.7,1.29,1.09,1.86c0.39,0.57,0.75,0.96,1.1,1.17l-4.13,2.1
		c-0.19-0.19-0.37-0.39-0.54-0.61c-0.17-0.21-0.33-0.44-0.47-0.68c-0.31,1-0.84,1.86-1.58,2.57c-0.74,0.71-1.57,1.3-2.49,1.77
		c-0.71,0.36-1.41,0.61-2.11,0.75c-0.7,0.14-1.37,0.14-2.01,0.01c-0.64-0.13-1.23-0.41-1.77-0.83c-0.54-0.42-1-1.02-1.39-1.78
		c-0.43-0.84-0.63-1.61-0.61-2.3c0.02-0.7,0.18-1.32,0.48-1.89c0.3-0.56,0.72-1.08,1.23-1.55c0.52-0.47,1.06-0.91,1.62-1.31
		c0.56-0.41,1.13-0.79,1.69-1.15c0.56-0.36,1.05-0.71,1.45-1.06c0.4-0.35,0.68-0.7,0.84-1.06c0.16-0.35,0.12-0.74-0.12-1.15
		c-0.22-0.44-0.47-0.75-0.75-0.94c-0.27-0.19-0.57-0.29-0.88-0.31c-0.31-0.02-0.64,0.02-0.98,0.14c-0.34,0.11-0.69,0.26-1.05,0.44
		c-0.8,0.41-1.35,0.9-1.63,1.48c-0.28,0.58-0.26,1.29,0.07,2.13L98.69,43.9z M109.62,42.14c-0.09,0.24-0.25,0.47-0.46,0.69
		c-0.21,0.22-0.46,0.43-0.72,0.64c-0.27,0.21-0.55,0.41-0.86,0.62c-0.31,0.2-0.61,0.42-0.9,0.64c-0.28,0.21-0.54,0.44-0.79,0.69
		c-0.25,0.25-0.44,0.51-0.58,0.78c-0.14,0.27-0.21,0.57-0.22,0.89c-0.01,0.32,0.09,0.67,0.28,1.05c0.18,0.36,0.41,0.64,0.67,0.82
		c0.26,0.18,0.54,0.28,0.84,0.31c0.3,0.03,0.62-0.01,0.96-0.11c0.33-0.1,0.66-0.23,0.99-0.39c0.8-0.41,1.36-0.86,1.66-1.35
		c0.3-0.49,0.47-0.98,0.49-1.46c0.02-0.48-0.04-0.92-0.19-1.33c-0.15-0.41-0.28-0.72-0.39-0.95L109.62,42.14z"/>
	<path class="st3" d="M118.23,29.19l1.11,2.88l0.06-0.02c0.02-0.56,0.12-1.11,0.3-1.65c0.18-0.54,0.44-1.04,0.77-1.5
		c0.33-0.46,0.71-0.86,1.15-1.22c0.44-0.35,0.93-0.63,1.47-0.84c0.28-0.11,0.61-0.18,0.99-0.21l1.52,3.96
		c-0.22,0.04-0.47,0.09-0.76,0.17c-0.29,0.08-0.57,0.17-0.83,0.27c-0.78,0.3-1.39,0.68-1.83,1.15c-0.44,0.47-0.74,0.99-0.9,1.57
		c-0.16,0.58-0.19,1.19-0.1,1.85c0.09,0.65,0.27,1.33,0.54,2.03l2.68,7l-4.26,1.64l-5.96-15.52L118.23,29.19z"/>
	<path class="st3" d="M128.12,30.91c-0.22-1.05-0.19-1.98,0.08-2.79c0.27-0.81,0.7-1.51,1.3-2.11c0.59-0.6,1.31-1.11,2.14-1.52
		c0.83-0.41,1.69-0.74,2.58-0.98c0.81-0.22,1.64-0.38,2.5-0.49c0.86-0.11,1.67-0.09,2.45,0.06c0.77,0.15,1.46,0.46,2.05,0.93
		c0.59,0.47,1.02,1.2,1.28,2.17l2.25,8.36c0.19,0.73,0.42,1.41,0.68,2.05c0.26,0.64,0.54,1.1,0.84,1.37l-4.47,1.2
		c-0.15-0.23-0.29-0.46-0.41-0.71c-0.12-0.24-0.23-0.5-0.32-0.76c-0.51,0.91-1.2,1.64-2.08,2.19c-0.87,0.55-1.81,0.95-2.8,1.22
		c-0.77,0.21-1.51,0.3-2.22,0.3c-0.71-0.01-1.37-0.14-1.97-0.4c-0.6-0.26-1.12-0.65-1.57-1.18c-0.44-0.53-0.77-1.2-1-2.03
		c-0.24-0.91-0.29-1.71-0.12-2.38c0.16-0.68,0.45-1.26,0.86-1.75c0.41-0.49,0.92-0.91,1.53-1.26c0.61-0.35,1.22-0.67,1.86-0.95
		c0.63-0.28,1.26-0.54,1.89-0.77c0.63-0.23,1.17-0.48,1.63-0.74c0.46-0.26,0.81-0.54,1.03-0.86c0.23-0.32,0.27-0.7,0.12-1.15
		c-0.13-0.48-0.31-0.83-0.54-1.07c-0.23-0.24-0.5-0.4-0.8-0.49s-0.63-0.11-0.98-0.07c-0.36,0.04-0.73,0.11-1.12,0.22
		c-0.87,0.23-1.5,0.6-1.9,1.11s-0.52,1.21-0.37,2.1L128.12,30.91z M139.19,31.44c-0.14,0.22-0.34,0.41-0.59,0.58
		c-0.25,0.17-0.53,0.33-0.84,0.48c-0.3,0.15-0.63,0.29-0.97,0.43c-0.34,0.14-0.68,0.28-1.01,0.44c-0.32,0.15-0.62,0.32-0.91,0.51
		c-0.29,0.19-0.54,0.41-0.73,0.64c-0.19,0.24-0.32,0.51-0.4,0.82c-0.07,0.31-0.05,0.67,0.06,1.08c0.11,0.39,0.27,0.71,0.48,0.94
		c0.22,0.23,0.47,0.39,0.76,0.48c0.29,0.09,0.61,0.12,0.96,0.09c0.35-0.03,0.7-0.09,1.05-0.18c0.87-0.23,1.5-0.56,1.9-0.98
		c0.4-0.42,0.66-0.86,0.78-1.32c0.12-0.46,0.15-0.91,0.09-1.34c-0.06-0.43-0.12-0.77-0.19-1.01L139.19,31.44z"/>
	<path class="st3" d="M154.97,19.76l0.5,3.02l-3.3,0.54l1.34,8.12c0.13,0.76,0.34,1.25,0.63,1.46c0.3,0.21,0.82,0.26,1.59,0.13
		c0.25-0.04,0.5-0.09,0.72-0.15c0.23-0.06,0.45-0.13,0.65-0.2l0.57,3.49c-0.37,0.13-0.79,0.24-1.25,0.34
		c-0.46,0.1-0.92,0.18-1.36,0.26c-0.7,0.12-1.37,0.18-2.01,0.18c-0.64,0.01-1.22-0.09-1.74-0.28c-0.52-0.2-0.96-0.53-1.32-0.99
		c-0.36-0.46-0.61-1.11-0.74-1.93l-1.59-9.68l-2.73,0.45l-0.5-3.01l2.73-0.45l-0.81-4.92l4.51-0.74l0.81,4.92L154.97,19.76z"/>
	<path class="st3" d="M163.94,31.57c0.73,0.62,1.73,0.89,3.02,0.81c0.92-0.06,1.7-0.34,2.33-0.84c0.63-0.5,1.01-1.02,1.13-1.54
		l4.01-0.26c-0.51,2.03-1.41,3.52-2.68,4.46c-1.27,0.94-2.85,1.47-4.73,1.59c-1.31,0.08-2.5-0.05-3.57-0.4
		c-1.08-0.35-2-0.89-2.78-1.61c-0.78-0.72-1.4-1.61-1.86-2.65c-0.46-1.04-0.74-2.21-0.82-3.49c-0.08-1.24,0.05-2.41,0.39-3.51
		c0.34-1.1,0.86-2.06,1.56-2.89c0.7-0.83,1.55-1.5,2.56-2.02c1.01-0.52,2.14-0.81,3.41-0.9c1.41-0.09,2.66,0.1,3.74,0.58
		c1.08,0.48,1.99,1.16,2.72,2.03c0.73,0.88,1.29,1.89,1.66,3.05c0.37,1.16,0.56,2.38,0.56,3.67l-11.97,0.77
		C162.77,29.91,163.21,30.96,163.94,31.57z M168.53,22.51c-0.58-0.56-1.43-0.81-2.55-0.74c-0.73,0.05-1.32,0.21-1.79,0.49
		c-0.47,0.28-0.83,0.61-1.1,0.99c-0.27,0.38-0.44,0.78-0.54,1.19c-0.09,0.41-0.14,0.78-0.14,1.11l7.41-0.48
		C169.55,23.93,169.11,23.08,168.53,22.51z"/>
	<path class="st3" d="M181.17,31c0.19,0.36,0.43,0.67,0.74,0.91c0.31,0.24,0.67,0.43,1.08,0.56c0.41,0.13,0.84,0.21,1.29,0.23
		c0.32,0.02,0.66,0,1.02-0.06c0.36-0.06,0.68-0.16,0.98-0.3c0.3-0.15,0.55-0.35,0.76-0.6c0.21-0.26,0.32-0.59,0.34-1
		c0.04-0.69-0.39-1.22-1.28-1.61c-0.89-0.39-2.14-0.8-3.75-1.23c-0.66-0.18-1.29-0.4-1.91-0.63c-0.62-0.24-1.17-0.53-1.64-0.89
		c-0.48-0.36-0.85-0.8-1.12-1.32c-0.27-0.52-0.39-1.14-0.35-1.87c0.06-1.07,0.31-1.94,0.77-2.6c0.45-0.66,1.03-1.17,1.74-1.53
		c0.71-0.36,1.49-0.6,2.36-0.71s1.75-0.15,2.65-0.1c0.9,0.05,1.77,0.18,2.6,0.4c0.84,0.22,1.58,0.55,2.22,0.99
		c0.64,0.44,1.16,1.01,1.57,1.71c0.4,0.7,0.62,1.56,0.65,2.6l-4.34-0.23c-0.02-0.88-0.32-1.49-0.9-1.84
		c-0.58-0.34-1.28-0.54-2.1-0.58c-0.26-0.01-0.54-0.01-0.84,0c-0.3,0.02-0.58,0.07-0.83,0.17c-0.25,0.09-0.47,0.24-0.65,0.43
		c-0.18,0.19-0.28,0.46-0.3,0.81c-0.02,0.41,0.11,0.75,0.4,1.02c0.29,0.27,0.67,0.5,1.14,0.69c0.47,0.19,1.02,0.36,1.63,0.52
		c0.61,0.16,1.24,0.33,1.87,0.52c0.66,0.19,1.29,0.4,1.91,0.65c0.62,0.25,1.17,0.56,1.64,0.94c0.47,0.38,0.85,0.84,1.12,1.38
		c0.27,0.54,0.39,1.2,0.35,1.97c-0.06,1.09-0.33,2-0.8,2.71c-0.48,0.72-1.08,1.28-1.81,1.69c-0.73,0.41-1.56,0.69-2.48,0.82
		c-0.92,0.13-1.85,0.18-2.79,0.13c-0.96-0.05-1.9-0.2-2.81-0.44c-0.91-0.24-1.71-0.61-2.41-1.09c-0.69-0.49-1.25-1.11-1.67-1.88
		c-0.42-0.76-0.62-1.7-0.61-2.82l4.34,0.23C180.91,30.21,180.99,30.64,181.17,31z"/>
	<path class="st3" d="M203.86,23.85c-0.72-0.12-1.35-0.06-1.89,0.18c-0.54,0.24-1.01,0.6-1.41,1.06c-0.4,0.46-0.71,1-0.95,1.6
		c-0.24,0.6-0.41,1.21-0.51,1.82c-0.1,0.59-0.14,1.21-0.12,1.84c0.02,0.63,0.13,1.22,0.33,1.77c0.2,0.55,0.51,1.02,0.95,1.42
		c0.43,0.4,1,0.66,1.69,0.78c1.08,0.19,1.96,0.03,2.64-0.47s1.19-1.25,1.51-2.23l4.34,0.75c-0.67,2.12-1.8,3.64-3.4,4.54
		c-1.59,0.9-3.48,1.16-5.65,0.78c-1.22-0.21-2.31-0.61-3.27-1.2c-0.95-0.59-1.73-1.32-2.32-2.18c-0.59-0.86-1-1.84-1.22-2.94
		c-0.22-1.09-0.23-2.25-0.02-3.48c0.22-1.27,0.61-2.41,1.17-3.44c0.56-1.02,1.26-1.87,2.12-2.54c0.86-0.67,1.84-1.13,2.95-1.4
		c1.11-0.26,2.33-0.28,3.67-0.05c0.97,0.17,1.88,0.46,2.74,0.87c0.85,0.41,1.59,0.93,2.21,1.57c0.62,0.64,1.08,1.38,1.39,2.23
		c0.31,0.85,0.41,1.81,0.29,2.87l-4.41-0.76C206.73,25.32,205.78,24.19,203.86,23.85z"/>
	<path class="st3" d="M222.26,18.49l-2.53,8.27l0.09,0.03c0.84-0.75,1.75-1.21,2.74-1.37c0.99-0.16,1.89-0.11,2.71,0.14
		c1.17,0.36,2.08,0.81,2.73,1.36c0.65,0.55,1.11,1.17,1.36,1.86c0.26,0.7,0.35,1.48,0.28,2.34c-0.07,0.86-0.26,1.79-0.56,2.77
		l-2.99,9.78l-4.37-1.34l2.75-8.98c0.4-1.31,0.5-2.35,0.28-3.13c-0.21-0.77-0.84-1.32-1.89-1.64c-1.19-0.36-2.16-0.27-2.91,0.27
		c-0.75,0.54-1.37,1.63-1.87,3.25l-2.55,8.33l-4.37-1.34l6.72-21.96L222.26,18.49z"/>
	<path class="st3" d="M233.7,33.84c0.82-0.82,1.73-1.42,2.73-1.8c1-0.38,2.06-0.55,3.19-0.49c1.13,0.05,2.29,0.35,3.48,0.89
		c1.19,0.54,2.18,1.22,2.98,2.04c0.79,0.82,1.37,1.73,1.74,2.74c0.37,1,0.51,2.08,0.44,3.24c-0.08,1.15-0.39,2.34-0.94,3.55
		c-0.55,1.21-1.23,2.22-2.05,3.03c-0.82,0.81-1.72,1.4-2.72,1.79c-1,0.38-2.06,0.54-3.2,0.47c-1.13-0.07-2.3-0.37-3.49-0.91
		c-1.19-0.54-2.18-1.22-2.97-2.02c-0.79-0.81-1.37-1.71-1.73-2.71c-0.37-1-0.52-2.08-0.44-3.22c0.07-1.14,0.38-2.32,0.93-3.53
		C232.2,35.67,232.88,34.65,233.7,33.84z M235.17,40.62c-0.14,0.63-0.18,1.24-0.1,1.82c0.07,0.59,0.28,1.12,0.63,1.61
		c0.34,0.49,0.87,0.89,1.57,1.21c0.7,0.32,1.35,0.45,1.96,0.39c0.6-0.06,1.15-0.25,1.64-0.58c0.49-0.33,0.93-0.76,1.31-1.28
		c0.38-0.52,0.71-1.09,0.98-1.69c0.28-0.6,0.49-1.23,0.64-1.87c0.15-0.64,0.18-1.25,0.1-1.82c-0.08-0.58-0.29-1.12-0.64-1.62
		c-0.35-0.5-0.88-0.91-1.58-1.23c-0.7-0.32-1.35-0.44-1.95-0.37c-0.6,0.07-1.14,0.27-1.63,0.59c-0.49,0.32-0.92,0.75-1.31,1.28
		c-0.38,0.53-0.71,1.1-0.99,1.71C235.53,39.37,235.32,39.99,235.17,40.62z"/>
	<path class="st3" d="M252.25,42.6c0.92-0.7,1.9-1.18,2.94-1.43s2.12-0.27,3.23-0.07c1.11,0.2,2.22,0.65,3.33,1.34
		c1.11,0.69,2,1.5,2.68,2.41c0.68,0.92,1.13,1.9,1.37,2.94c0.23,1.04,0.24,2.13,0.01,3.27c-0.23,1.13-0.69,2.27-1.4,3.39
		c-0.7,1.13-1.51,2.04-2.42,2.73c-0.91,0.69-1.89,1.17-2.93,1.41s-2.12,0.27-3.23,0.05c-1.12-0.22-2.23-0.67-3.34-1.36
		c-1.11-0.69-2-1.49-2.68-2.39c-0.68-0.9-1.13-1.87-1.36-2.92c-0.23-1.04-0.24-2.13-0.02-3.25c0.22-1.12,0.68-2.25,1.39-3.38
		C250.52,44.21,251.34,43.3,252.25,42.6z M252.83,49.51c-0.23,0.61-0.34,1.2-0.34,1.8c0,0.59,0.13,1.15,0.41,1.68
		c0.28,0.53,0.74,1,1.4,1.4c0.65,0.41,1.28,0.62,1.89,0.65c0.61,0.02,1.17-0.1,1.7-0.36c0.53-0.26,1.02-0.63,1.46-1.1
		c0.44-0.47,0.84-0.98,1.19-1.55c0.35-0.56,0.64-1.15,0.87-1.77c0.23-0.61,0.35-1.21,0.34-1.8c0-0.58-0.14-1.15-0.43-1.69
		c-0.28-0.54-0.75-1.02-1.4-1.43c-0.65-0.41-1.28-0.62-1.88-0.63c-0.6-0.01-1.17,0.11-1.69,0.37c-0.52,0.25-1.01,0.62-1.46,1.1
		c-0.45,0.48-0.85,1-1.2,1.56C253.34,48.32,253.06,48.91,252.83,49.51z"/>
	<path class="st3" d="M279.52,47.68l-13.9,18.28l-3.64-2.77l13.9-18.28L279.52,47.68z"/>
</g>
<g>
	<path class="st3" d="M112.11,321.16c-0.54,0.76-1.22,1.38-2.05,1.87c-0.83,0.48-1.82,0.75-2.96,0.79
		c-1.14,0.04-2.48-0.31-4.03-1.06c-0.87-0.42-1.65-0.95-2.34-1.59c-0.69-0.64-1.23-1.38-1.61-2.21c-0.38-0.83-0.57-1.75-0.56-2.75
		c0.01-1.01,0.3-2.09,0.87-3.25l0.89-1.83l4.11,2l-0.46,0.94c-0.25,0.51-0.44,1-0.57,1.47c-0.13,0.47-0.18,0.9-0.13,1.3
		c0.04,0.4,0.19,0.77,0.44,1.11s0.65,0.64,1.19,0.91c0.6,0.29,1.11,0.41,1.55,0.35c0.43-0.06,0.81-0.22,1.12-0.5
		c0.31-0.27,0.58-0.61,0.81-0.99c0.23-0.39,0.43-0.77,0.61-1.14l6.92-14.23l4.54,2.21l-7.03,14.43
		C113.08,319.67,112.64,320.4,112.11,321.16z"/>
	<path class="st3" d="M119.47,316.41c0.74-0.92,1.59-1.62,2.55-2.11c0.96-0.49,2.01-0.77,3.14-0.84c1.13-0.07,2.32,0.11,3.56,0.53
		c1.24,0.42,2.29,1.01,3.16,1.75c0.87,0.75,1.53,1.61,1.99,2.58c0.46,0.98,0.7,2.06,0.73,3.23c0.03,1.18-0.17,2.41-0.61,3.69
		c-0.44,1.28-1.03,2.38-1.76,3.28c-0.74,0.9-1.59,1.6-2.55,2.1c-0.96,0.49-2.01,0.77-3.15,0.82c-1.14,0.05-2.33-0.13-3.57-0.56
		s-2.29-1-3.15-1.73c-0.86-0.73-1.52-1.59-1.98-2.56c-0.46-0.98-0.71-2.05-0.74-3.22c-0.03-1.17,0.17-2.39,0.61-3.68
		C118.14,318.43,118.73,317.33,119.47,316.41z M121.57,323.13c-0.09,0.65-0.07,1.27,0.06,1.86c0.13,0.59,0.39,1.11,0.78,1.57
		c0.39,0.46,0.95,0.81,1.68,1.06c0.73,0.25,1.39,0.31,1.99,0.19c0.6-0.12,1.12-0.37,1.58-0.76c0.46-0.39,0.85-0.86,1.18-1.43
		c0.33-0.57,0.6-1.17,0.82-1.82c0.22-0.64,0.37-1.29,0.46-1.96c0.09-0.66,0.07-1.28-0.06-1.86c-0.13-0.58-0.4-1.1-0.79-1.57
		c-0.4-0.47-0.96-0.83-1.69-1.08c-0.73-0.25-1.39-0.31-1.98-0.17c-0.59,0.14-1.11,0.39-1.57,0.77c-0.46,0.38-0.85,0.85-1.18,1.43
		c-0.33,0.58-0.61,1.19-0.83,1.83C121.81,321.83,121.66,322.47,121.57,323.13z"/>
	<path class="st3" d="M145.01,312.4l-1.74,8.66l0.09,0.02c0.76-0.85,1.63-1.41,2.6-1.67c0.97-0.26,1.88-0.31,2.72-0.14
		c1.2,0.24,2.15,0.61,2.85,1.09c0.7,0.49,1.21,1.07,1.53,1.75c0.32,0.68,0.49,1.46,0.5,2.34c0.01,0.88-0.09,1.84-0.3,2.87
		l-2.06,10.23l-4.48-0.9l1.89-9.4c0.28-1.37,0.27-2.44-0.01-3.2c-0.28-0.76-0.96-1.25-2.03-1.46c-1.22-0.25-2.18-0.05-2.87,0.58
		c-0.7,0.63-1.21,1.79-1.56,3.49l-1.76,8.72l-4.48-0.9l4.63-22.97L145.01,312.4z"/>
	<path class="st3" d="M161.98,321.65l-0.17,2.36l0.1,0.01c0.65-0.94,1.45-1.6,2.4-1.98c0.95-0.38,1.91-0.54,2.87-0.47
		c1.22,0.09,2.21,0.33,2.96,0.72c0.76,0.39,1.34,0.91,1.74,1.54c0.41,0.63,0.67,1.39,0.79,2.26c0.12,0.88,0.14,1.84,0.07,2.88
		l-0.75,10.41l-4.56-0.33l0.69-9.56c0.1-1.4-0.04-2.45-0.42-3.17c-0.38-0.72-1.11-1.12-2.2-1.2c-1.24-0.09-2.17,0.22-2.78,0.93
		c-0.61,0.71-0.98,1.93-1.1,3.66l-0.64,8.87l-4.56-0.33l1.22-16.93L161.98,321.65z"/>
	<path class="st3" d="M190.77,332.88c0.34,0.51,0.76,0.91,1.26,1.19c0.5,0.28,1.06,0.47,1.7,0.56c0.64,0.09,1.28,0.1,1.95,0.02
		c0.45-0.05,0.92-0.15,1.42-0.28c0.5-0.14,0.96-0.34,1.39-0.61c0.42-0.27,0.76-0.61,1.01-1.03c0.25-0.41,0.34-0.92,0.27-1.5
		c-0.07-0.63-0.33-1.12-0.77-1.46c-0.44-0.34-1-0.61-1.66-0.79c-0.67-0.19-1.42-0.33-2.25-0.43c-0.83-0.1-1.68-0.22-2.54-0.36
		c-0.88-0.12-1.74-0.28-2.59-0.5c-0.85-0.22-1.62-0.54-2.32-0.96c-0.7-0.42-1.29-0.99-1.77-1.69c-0.48-0.7-0.79-1.59-0.91-2.65
		c-0.14-1.2-0.01-2.26,0.38-3.2c0.4-0.94,0.96-1.75,1.7-2.43c0.74-0.68,1.6-1.23,2.59-1.63c0.99-0.4,1.99-0.67,3.02-0.79
		c1.19-0.14,2.35-0.14,3.48,0c1.13,0.14,2.16,0.47,3.08,0.97c0.92,0.51,1.69,1.2,2.31,2.09c0.61,0.89,1,2,1.16,3.35l-4.85,0.58
		c-0.12-0.69-0.34-1.25-0.64-1.68c-0.3-0.43-0.67-0.75-1.1-0.96s-0.92-0.34-1.45-0.39c-0.54-0.05-1.11-0.03-1.73,0.04
		c-0.41,0.05-0.8,0.14-1.2,0.28c-0.39,0.14-0.74,0.33-1.05,0.59c-0.3,0.26-0.54,0.56-0.72,0.91c-0.17,0.35-0.23,0.78-0.17,1.28
		c0.05,0.46,0.18,0.82,0.39,1.08c0.2,0.26,0.57,0.48,1.1,0.66c0.53,0.18,1.25,0.34,2.16,0.47c0.91,0.13,2.1,0.3,3.57,0.5
		c0.44,0.04,1.04,0.12,1.83,0.26c0.78,0.14,1.58,0.41,2.38,0.82c0.8,0.41,1.53,1,2.17,1.78c0.64,0.77,1.04,1.81,1.2,3.11
		c0.13,1.07,0.04,2.08-0.26,3.04c-0.3,0.96-0.8,1.82-1.52,2.58c-0.72,0.76-1.65,1.39-2.79,1.9c-1.14,0.51-2.48,0.86-4.04,1.04
		c-1.26,0.15-2.49,0.14-3.71-0.04c-1.22-0.17-2.32-0.55-3.31-1.11c-0.99-0.57-1.81-1.34-2.46-2.32c-0.66-0.98-1.06-2.19-1.21-3.62
		l4.85-0.58C190.22,331.73,190.43,332.37,190.77,332.88z"/>
	<path class="st3" d="M209.73,318.71l0.65,2.21l0.06-0.02c0.33-1.01,0.83-1.86,1.51-2.56c0.68-0.7,1.54-1.2,2.59-1.51
		c1.01-0.3,1.99-0.37,2.94-0.21c0.95,0.15,1.79,0.67,2.52,1.55c0.26-0.85,0.72-1.67,1.38-2.46c0.65-0.78,1.53-1.34,2.65-1.66
		c0.84-0.25,1.66-0.37,2.44-0.37c0.78,0,1.5,0.15,2.15,0.46c0.65,0.31,1.23,0.8,1.73,1.46c0.51,0.66,0.91,1.52,1.22,2.57l3.19,10.9
		l-4.38,1.28l-2.71-9.23c-0.16-0.55-0.33-1.05-0.51-1.53c-0.18-0.47-0.42-0.86-0.71-1.16c-0.29-0.3-0.65-0.51-1.07-0.61
		c-0.42-0.1-0.94-0.07-1.56,0.12c-0.62,0.18-1.08,0.45-1.39,0.8c-0.31,0.35-0.52,0.75-0.62,1.21c-0.1,0.45-0.12,0.93-0.05,1.45
		c0.07,0.52,0.18,1.02,0.33,1.53l2.66,9.07l-4.38,1.28l-2.68-9.13c-0.14-0.48-0.29-0.96-0.45-1.42c-0.16-0.47-0.37-0.88-0.64-1.23
		c-0.27-0.35-0.62-0.6-1.05-0.73c-0.43-0.14-1-0.1-1.7,0.1c-0.21,0.06-0.46,0.19-0.78,0.38c-0.31,0.19-0.59,0.47-0.83,0.83
		c-0.24,0.36-0.4,0.81-0.48,1.37c-0.08,0.56-0.01,1.24,0.23,2.04l2.77,9.45l-4.38,1.28l-4.77-16.29L209.73,318.71z"/>
	<path class="st3" d="M231.9,308.6l-1.53-3.52l4.19-1.82l1.53,3.52L231.9,308.6z M237.14,309.19l6.76,15.57l-4.19,1.82l-6.76-15.56
		L237.14,309.19z"/>
	<path class="st3" d="M248.38,303.6l1.42,2.77l-2.97,1.53l3.84,7.47c0.36,0.7,0.72,1.11,1.06,1.22c0.35,0.12,0.87,0,1.55-0.35
		c0.23-0.12,0.44-0.24,0.64-0.37c0.2-0.13,0.39-0.26,0.56-0.4l1.65,3.21c-0.31,0.23-0.68,0.47-1.08,0.7
		c-0.41,0.23-0.81,0.46-1.21,0.66c-0.63,0.32-1.25,0.59-1.86,0.79c-0.61,0.2-1.19,0.29-1.75,0.25c-0.56-0.03-1.08-0.22-1.57-0.56
		c-0.49-0.34-0.93-0.89-1.32-1.65l-4.58-8.9l-2.46,1.26l-1.43-2.77l2.46-1.26l-2.33-4.53l4.06-2.09l2.33,4.53L248.38,303.6z"/>
</g>
<polygon class="st4" points="95.68,188.84 101.69,184.83 106.2,181.32 109.71,178.82 112.97,176.81 116.73,174.3 121.99,172.8 
	125.62,172.08 129.09,172.32 133.27,171.8 136.78,172.3 142.23,171.62 146.5,170.62 151.06,168.79 155.32,168.29 157.84,166.35 
	160.09,164.28 165.1,162.78 169.11,161.9 172.62,161.02 177.69,159.46 181.64,158.26 184.9,158.52 187.4,161.77 188.66,164.78 
	190.41,167.54 191.91,171.8 193.42,176.31 195.59,181.14 197.96,188.29 199.34,192.9 199.05,197.04 198.17,200.37 195.36,200.5 
	192.92,195.1 191.91,188.09 190.16,184.33 187.65,177.06 186.15,171.3 183.89,167.04 179.26,164.77 175.32,164.57 169.11,165.9 
	165.45,167.42 163.09,169.54 167.85,168.79 172.87,167.04 177,166.43 181.14,168.29 183.14,171.8 183.89,176.56 185.9,182.57 
	187.15,185.33 189.91,190.84 190.91,194.1 191.41,198.86 190.66,202.12 187.9,203.63 183.89,204.88 180.14,206.38 176.13,207.64 
	172.37,206.38 169.86,202.87 167.6,200.62 166.35,194.6 170.61,193.35 173.37,194.35 176.73,198.42 179.01,197.48 178.13,194.35 
	177.13,191.85 179.13,187.34 175.12,190.09 169.61,189.09 166.85,184.08 166.35,188.09 166.1,188.09 165.85,188.09 165.85,188.59 
	166.1,188.84 166.35,189.34 166.6,189.84 166.85,190.09 166.85,190.09 164.1,190.59 161.34,189.09 162.59,195.35 158.83,197.86 
	151.56,201.12 148.81,204.63 145.05,208.14 140.54,209.14 136.28,210.64 132.77,209.89 129.26,205.88 126.25,204.13 122.49,203.63 
	116.73,207.39 113.35,210.71 109.59,214.6 106.15,217.74 103.33,220.31 100.07,224.12 99.18,227.69 103.95,223.68 107.71,219.92 
	111.72,216.91 117.48,212.15 121.99,208.39 125,206.63 126.75,207.39 127.25,210.14 124.5,212.9 121.74,216.41 118.98,219.67 
	116.48,222.42 113.97,225.68 111.47,230.69 110.21,233.2 107.46,237.21 105.36,240.49 99,233.43 96.14,228.42 91.6,220.1 
	88.87,212.53 86.93,206.71 84.82,198.49 84.45,196.02 84.22,192.35 85.58,191.77 89.16,191.6 95.68,188.84 "/>
<polygon class="st5" points="187.65,154 190.66,158.77 192.42,163.53 195.67,168.29 198.18,174.05 200.69,179.07 203.94,184.58 
	207.45,188.59 210.96,191.85 214.47,193.6 218.48,193.85 221.74,201.37 224.49,209.89 227,218.91 229.26,225.68 232.26,232.45 
	235.02,237.71 237.02,240.72 242.79,234.45 248.05,228.44 251.56,221.42 255.07,212.65 257.07,204.88 256.57,200.62 250.56,194.1 
	246.8,190.34 243.79,185.83 241.29,183.08 237.02,177.81 230.76,170.29 226.5,163.78 220.48,155.51 214.97,149.24 210.21,145.23 
	204.19,141.47 201.44,138.22 195.92,133.95 193.17,131.45 188.41,129.19 181.64,129.69 178.63,131.45 169.29,135.6 161.09,138.42 
	157.39,140.17 151.83,142.37 146.68,144.81 142.79,146.99 138.41,148.81 135.29,150.26 131.03,152.7 125.75,156.26 122.57,158.21 
	118.93,160.97 116.48,163.28 117.98,165.53 120.49,163.28 126.75,159.27 131.01,156.76 136.78,152.75 138.28,151.25 141.54,149.24 
	144.8,147.99 148.31,146.49 150.81,145.73 155.32,143.98 158.83,142.22 161.34,140.72 165.6,139.47 170.61,138.47 175.12,136.46 
	177.63,135.21 181.64,134.71 179.63,137.71 174.37,139.72 169.11,141.97 163.59,142.73 160.59,143.98 156.84,146 151.56,147.99 
	147.81,149.24 143.04,151.75 140.04,153.75 135.02,156.51 130.76,159.52 126.91,161.59 124.5,163.78 122.49,164.03 122.99,167.54 
	125.25,169.54 129.26,168.04 131.26,166.28 132.77,163.28 138.28,160.77 142.79,158.77 146.55,156.26 150.31,154.76 153.07,152.75 
	156.58,151.75 158.83,149.74 161.59,148.49 165.85,147.24 170.61,145.98 175.62,143.48 178.38,143.98 176.88,146.23 171.36,148.49 
	165.1,151.5 160.09,153.75 155.83,154.51 151.06,156.76 147.3,158.77 143.8,161.77 138.28,164.28 135.53,165.53 135.02,168.29 
	138.35,169.21 143.8,169.04 147.05,166.79 150.06,164.77 153.82,165.03 156.58,164.28 158.83,161.77 164.1,160.02 167.35,160.02 
	171.11,159.02 176.13,157.26 180.39,155.51 182.89,153.75 187.65,154 "/>
<g>
	<path class="st2" d="M13.44,145.73l0.03,0.8c0,0,2.43,2.36,3.42,2.46c1,0.1,1.66,0.16,1.63-0.83c-0.03-1-0.43-1.5-0.76-1.9
		c-0.34-0.4-0.77-0.43-1.17-0.43c0,0-0.64,0.05-1.66-0.05C13.93,145.68,13.42,145.68,13.44,145.73z"/>
	<path class="st2" d="M15.17,152.28c1.26,1.11,1.39,2.24,1.33,2.72c-0.05,0.48-0.34,0.54-1.64,0.49c-1.31-0.05-2.78-2.63-2.78-2.63
		v-0.78L15.17,152.28z"/>
	<path class="st2" d="M23.73,144.87l-1.66-0.01l-0.24,0.2l0.02,0.72l0.38,0.33c0,0,0.04,0.03,0,0.22c-0.04,0.2-0.54,2.04-1.46,3.83
		c-0.91,1.78-1.46,2.79-1.86,3.27l-0.01,0.81h0.79c0,0,1.09-0.81,2.95-3.11c0,0,1.74-0.07,2.63-0.45c0,0,2.66-0.5,2.95-0.54
		c0.29-0.04,0.29-0.04,0.29-0.04s2.91-0.38,2.93-0.38c0.03,0,2.05,0.02,2.05-0.79c0-0.81,0.11-1.1-1.44-1.75
		c-1.55-0.65-2.15-0.05-2.17,0c-0.02,0.04-0.54,0.68-0.79,0.68c-0.32,0.14-0.79,0.21-1.43,0.4l-3.48,1.04c0,0-0.46,0.22-0.14-0.22
		c0.33-0.44,1.32-1.99,1.32-1.99s0.05-0.05,0.05-0.33c0-0.28,0.1-0.69-0.36-1.15C24.6,145.16,24.64,144.96,23.73,144.87z"/>
	<g>
		<path class="st2" d="M18.81,156.75L18.81,156.75C18.85,156.75,18.81,156.75,18.81,156.75z"/>
		<path class="st2" d="M36.89,156.63c-0.46-0.42-1.33-0.66-1.54-0.73c-0.21-0.07-0.72-0.26-1.46-0.26s-0.87,0.24-0.87,0.24
			c-0.57,0.44-0.74,0.37-0.74,0.37c-0.23,0.16-0.16-0.17-0.16-0.17l0.37-2.17c-0.01-0.03,0.26-1.09,0.17-1.57
			c-0.09-0.48-1.82-1.11-1.82-1.11l-0.85,0.02c0,0-1.05,0.42-1.67,0.59c-0.62,0.17-3.27,0.71-3.5,0.77c-0.22,0.06-0.54,0.28-1,0.04
			c-0.46-0.24-0.72-0.2-0.72-0.2c-0.53-0.13-0.67,0.27-0.67,0.27l-0.01,0.68l0.18,0.43c0,0-0.21,0.99-0.48,2.02
			c-0.31,1.2-0.7,2.47-0.73,2.54c-0.06,0.13-2.68,0.4-2.83,0.38c-0.16-0.02-0.05-0.1-0.05-0.1l0.35-1.11l-0.03-0.78
			c-0.04,0-0.13,0-0.38,0c-0.53,0-0.56,0.27-0.56,0.27l-4.76,7.37c-0.16,0.38-0.65,0.11-0.86,0.12c-0.21,0.01-0.33,0.06-0.34,0.25
			c0,0.08-0.05,0.44,0.08,0.86c0.17,0.6,0.69,1.34,1.51,1.79c1.49,0.82,1.68-0.07,1.68-0.07s0.64-1.78,1.34-3.57
			c0.71-1.81,1.48-3.64,1.5-3.72c0.05-0.15,0.16-0.03,0.16-0.03l0.58,0.39c0,0,0.4,0.03,0.5,0.03c0.1,0,0.83-0.07,1.22-0.22
			c0.38-0.16,0.18,0.28,0.18,0.28s-0.29,0.59-0.89,1.77c-0.12,0.24-0.25,0.43-0.33,0.61c-0.07,0.17-0.12,0.2-0.16,0.33
			c-0.15,0.43-0.14,0.76-0.14,0.76s-0.02,0.99,0.14,1.23c0.2,0.28,0.49,0.31,0.76,0.33c0.35,0.02,0.66-0.03,0.66-0.03
			c1.08-0.77,1.87-0.68,1.87-0.68s1.18-0.01,2.32,0.01c0.96,0.02,1.87,0.07,2.01,0.08c0.3,0.02,0.69,0.07,0.91,0.06
			c0.21-0.01,0.16,0.15,0.16,0.15s0.01,0.16-0.57,1.01c-0.58,0.84-1.04,0.58-1.93,0.35c-0.89-0.22-1.33-0.26-1.64-0.25
			c-0.31,0.01-0.29,0.2-0.29,0.2s-0.01,0.41,0,0.52c0.01,0.11,0.08,0.14,0.08,0.14s0.82,0.49,1.87,1.21
			c0.57,0.39,2.07,2.01,2.1,2.02c0.04,0.01,0.38,0.07,0.79-0.05c0.41-0.12,0.77-0.93,1.14-1.66c0.36-0.74,1.08-2.98,1.14-3.15
			c0.05-0.17,0.17-0.1,0.17-0.1s1.11,0.32,2.18,0.61c1.07,0.29,1.53,0.29,1.89,0.24c0.36-0.05,0.32-0.52,0.32-0.88
			c0-0.35-0.04-0.45-0.05-0.53c-0.01-0.08-0.4-0.49-1.04-1.02c-0.64-0.53-1.26-0.63-1.26-0.63s-1.54-0.01-1.7-0.03
			c-0.16,0-0.15-0.14-0.15-0.14l0.73-4.43l0.03-0.09c0,0,0.02-0.02,0.11-0.02c0.62-0.02,3.44-0.11,4.29-0.12
			c0.96-0.01,1.05-0.29,1.05-0.29C37.21,157.9,37.35,157.06,36.89,156.63z M24.85,159.43c0,0-0.03,0.2-0.09,0.46
			c-0.06,0.26-0.38,1.51-0.43,1.7c-0.06,0.19-0.39,1.31-0.49,1.56c-0.1,0.25-0.18,0.23-0.18,0.23s-0.9,0.02-1.26,0.01
			c-0.36-0.01-0.19-0.21-0.19-0.21c0.36-0.75,1.36-3.66,1.36-3.66c0.07-0.06,0.15-0.05,0.24-0.05c0.1,0,0.62-0.08,0.9-0.18
			C24.99,159.2,24.85,159.43,24.85,159.43z M25.85,154.74c0,0-0.5,2.45-0.52,2.64c-0.03,0.19-0.11,0.18-0.11,0.18
			s-0.79,0.16-1.01,0.18c-0.23,0.02-0.11-0.18-0.11-0.18s0.12-0.48,0.33-1.27c0.22-0.81,0.32-2.11,0.32-2.11
			c0.86-0.19,0.7-0.15,0.93-0.16C25.89,154.01,25.85,154.74,25.85,154.74z M29.16,159.29c-0.07,0.4-0.49,3.1-0.6,3.57
			c-0.11,0.46-0.28,0.37-0.28,0.37l-1.87,0.02c0,0,0,0-0.28-0.01c-0.28-0.01-0.11-0.21-0.11-0.21l1.38-4.15c0,0-0.08-0.01,0.13-0.04
			c0.21-0.03,1.12-0.15,1.48-0.21C29.36,158.59,29.23,158.9,29.16,159.29z M29.8,154.48c0,0-0.27,1.77-0.32,2.06
			c-0.04,0.3-0.16,0.26-0.16,0.26s-1.13,0.22-1.35,0.25c-0.22,0.03-0.12-0.2-0.12-0.2l0.52-1.96c0.05-0.91-0.35-1.39-0.35-1.39
			c-0.09-0.21,0.11-0.14,0.17-0.16c0.07-0.02,1.02-0.15,1.23-0.22c0.2-0.07,0.32,0.04,0.32,0.04c0.08,0.06,0.11,0.15,0.11,0.15
			L29.8,154.48z"/>
	</g>
	<path class="st2" d="M15.35,175.37c-0.72-0.11-1.43-0.27-1.49-0.27c-0.39,0-0.42,0.18-0.42,0.18v0.53c0,0-0.05,0.19,0.42,0.74
		c0.47,0.55,2.02,2.27,2.84,2.39c0.82,0.11,1.24,0.27,1.2-0.6c0,0,0.19-1.36-0.63-2.24l-0.38-0.55
		C16.89,175.54,16.12,175.49,15.35,175.37z"/>
	<path class="st2" d="M11.79,181.7c0,0-0.2-0.04-0.21,0.16c-0.01,0.2-0.01,0.48-0.01,0.48s-0.01,0.05,0.06,0.17
		c0.07,0.12,0.72,1.12,1.69,1.85c0.97,0.73,1.1,0.73,1.46,0.77c0.35,0.03,1.1,0.18,1.13-0.45c0.04-0.63,0-1.39,0-1.39
		s0.09-0.74-1.24-1.08C13.33,181.88,12.97,181.61,11.79,181.7z"/>
	<path class="st2" d="M17.56,186.09c0,0-0.4-0.07-0.62,0.29c-0.22,0.37-4.37,7.47-4.76,7.43c-0.39-0.05-1.13-0.06-1.13-0.06
		s-0.11,0.03-0.12,0.2c-0.01,0.18,0,0.64,0,0.64s-0.01,0.2,0.2,0.56c0.21,0.35,1.31,2.02,1.66,2.1c0,0,0.3,0.2,0.67,0.18
		c0.37-0.02,0.51,0.07,0.75-0.48c0.24-0.55,3.62-9.73,3.62-9.73s0.07-0.15,0.08-0.43c0.01-0.28,0-0.41,0-0.41
		S17.88,186.1,17.56,186.09z"/>
	<path class="st2" d="M24.69,177.88l-5.66,1.39c0,0-0.15,0.04-0.14,0.2c0.01,0.17-0.08,0.53,0.23,0.71c0.3,0.18,0.54,0.33,0.54,0.33
		s0.14,0.08,0.29,0.1c0.15,0.01,0.63-0.01,0.63-0.01s1.25-0.47,1.91-0.61c0.66-0.15,1.3-0.3,1.3-0.3s0.32-0.17,0.23,0.18
		c-0.05,0.16-0.45,1.04-1.01,1.89c-0.65,1.01-1.51,2.01-2.07,2.09c0,0-0.32-0.09-0.92,0.52c0,0-0.26,0.16-0.27,0.66
		c-0.01,0.5-0.03,0.97-0.03,0.97s0.18,0.94,0.64,0.76c0,0,0.17,0.11,1.08-0.21c0.91-0.32,7.43-2.54,7.43-2.54l1.46,1.65
		c0,0,0.21,0.28,0.64,0.31c0.43,0.02,1.23,0.13,1.31-0.74c0.09-0.87-0.33-2.55-1.35-3.32l-2.85-1.15c0,0-0.48-0.07-0.53-0.03
		c-0.06,0.04-0.2,0.02-0.21,0.36c-0.01,0.34-0.01,0.63,0.25,0.98l0.37,0.48c0,0,0.13,0.11,0.01,0.14c-0.12,0.03-3.52,0.91-3.52,0.91
		s-0.31,0.1-0.08-0.19c0.23-0.29,1.57-2.47,1.69-3.04c0.13-0.58,0.07-1.14,0.07-1.11c0,0.03,1.26-0.29,2.64-0.4
		c1.36-0.11,3.83-0.23,3.83-0.23s0.75-0.23,1.04-0.45c0.28-0.22,0.21-0.35,0.21-0.35l-0.01-0.58c0,0,0.07-0.19-0.73-0.56
		c-0.8-0.36-1.43-0.65-1.43-0.65s-0.8-0.09-1-0.01c-0.09,0.03-0.33,0.13-0.5,0.26c-0.22,0.16-0.37,0.36-0.37,0.36l-0.1,0.06
		l-2.59,0.64c0,0-0.12,0.01-0.11-0.17c0.01-0.17,0.28-1.71,0.15-1.96c-0.14-0.25-0.45-0.66-1.6-0.89c0,0-1.43-0.23-1.68-0.12
		c-0.25,0.12-0.27,0.13-0.31,0.55c-0.03,0.42,0.01,0.58,0.29,0.83c0.28,0.26,0.52,0.51,0.52,0.51S24.61,177.77,24.69,177.88z"/>
	<path class="st2" d="M19.72,187.8c0,0-0.14,0.72,0.36,1.42c0.13,0.19,0.08,0.6-0.02,1.13c-0.28,1.47-1.37,3.98-3.25,6.16
		c0,0-0.07,0.04-0.07,0.33l0.01,0.29c0,0-0.02,0.11,0.09,0.12c0.12,0.01,0.84,0.01,0.84,0.01s0.09,0.03,0.55-0.35
		c0.19-0.16,0.91-0.66,1.72-1.56c0.83-0.93,1.76-2.29,2.37-3.89c0.25-0.65,0.52-1.35,0.63-2.1c0,0,0.27-0.76-0.59-1.3
		c-0.86-0.54-1.6-0.58-2.05-0.55C19.85,187.52,19.73,187.55,19.72,187.8z"/>
	<path class="st2" d="M26.16,187.45l-0.04,8.89c0,0,0.04,0.72-0.44,0.75c-0.48,0.03-0.87,0.38-1.56-0.84
		c-0.35-0.64-0.42-1.1-0.43-1.44c-0.01-0.31,0.02-0.51,0.03-0.61c0,0,0.49-5.52,0.34-5.78c-0.05-0.09-0.11-0.24-0.2-0.42
		c-0.07-0.13-0.16-0.27-0.2-0.44c-0.06-0.22-0.04-0.49-0.03-0.67c0.01-0.14,0.08-0.2,0.15-0.26c0.18-0.14,0.46-0.11,0.46-0.1
		C24.25,186.54,25.68,186.59,26.16,187.45z"/>
	<path class="st2" d="M27.85,186.87c0,0,0.06,0.06,0.16,0.17c0.08,0.08,0.23,0.2,0.31,0.44c0.1,0.3,0.14,0.78,0.14,1.48
		c0,1.96-0.04,5.23-0.04,5.23s-0.42,3.13,3.17,3.55c1.73,0.2,2.64,0.18,3.23,0.17c0.64-0.01,0.92-0.01,1.42-0.1
		c0.98-0.18,1.3-0.46,1.38-0.56c0.07-0.11,0.21-0.98-0.26-1.71c0,0-0.15-0.48-0.31-1.12c-0.18-0.71-0.31-1.63-0.46-2.12
		c-0.03-0.09-0.13-0.12-0.17-0.12c-0.04-0.01-0.42-0.01-0.42-0.01s-0.19-0.06-0.26,0.31c-0.04,0.19-0.18,0.83-0.34,1.41
		c-0.16,0.57-0.32,1.07-0.32,1.07s-0.08,0.23-0.28,0.43c-0.11,0.12-0.27,0.22-0.45,0.29c-0.11,0.04-0.24,0.07-0.37,0.07
		c-0.68,0.01-1.59,0.01-2.01-0.04c-0.21-0.03-0.6-0.04-0.95-0.26c-0.16-0.1-0.34-0.23-0.45-0.45c-0.13-0.26-0.18-0.65-0.18-1.13
		c-0.02-1.82-0.02-1.83-0.02-1.83l0.56-3.59c0,0,0.42-1.38-0.75-1.92c-1.16-0.54-1.18-0.61-2.08-0.56c0,0-0.3-0.04-0.34,0.31
		C27.74,186.63,27.79,186.81,27.85,186.87z"/>
</g>
</svg>
